SplineFontDB: 3.2
FontName: SydnieOutline
FullName: SydnieOutline
FamilyName: SydnieOutline
Weight: Book
Copyright: (c) Copyright , FFDec v.22.0.2.
Version: 1.0
ItalicAngle: 10
UnderlinePosition: -30
UnderlineWidth: 60
Ascent: 819
Descent: 205
InvalidEm: 0
sfntRevision: 0x00010000
LayerCount: 2
Layer: 0 1 "Back" 1
Layer: 1 1 "Fore" 0
XUID: [1021 891 -1597383762 31902]
StyleMap: 0x0040
FSType: 0
OS2Version: 2
OS2_WeightWidthSlopeOnly: 0
OS2_UseTypoMetrics: 0
CreationTime: 850008720
ModificationTime: 1758290838
PfmFamily: 81
TTFWeight: 400
TTFWidth: 5
LineGap: 170
VLineGap: 0
Panose: 0 0 0 0 0 0 0 0 0 0
OS2TypoAscent: 683
OS2TypoAOffset: 0
OS2TypoDescent: -171
OS2TypoDOffset: 0
OS2TypoLinegap: 170
OS2WinAscent: 694
OS2WinAOffset: 0
OS2WinDescent: 169
OS2WinDOffset: 0
HheadAscent: 694
HheadAOffset: 0
HheadDescent: -169
HheadDOffset: 0
OS2SubXSize: 128
OS2SubYSize: 128
OS2SubXOff: 0
OS2SubYOff: -64
OS2SupXSize: 128
OS2SupYSize: 128
OS2SupXOff: 0
OS2SupYOff: 64
OS2StrikeYSize: 51
OS2StrikeYPos: 512
OS2CapHeight: 683
OS2XHeight: 424
OS2FamilyClass: 2048
OS2Vendor: 'dtyp'
OS2CodePages: 00000001.00000000
OS2UnicodeRanges: 00000003.00000000.00000000.00000000
MarkAttachClasses: 1
DEI: 91125
ShortTable: maxp 16
  1
  0
  67
  110
  22
  0
  0
  2
  128
  64
  128
  128
  128
  128
  128
  0
EndShort
LangName: 1033 "+AKkA Copyright , FFDec v.22.0.2." "" "Regular" "" "" "Version 1.0" "" "n/a" "FFDec v.22.0.2"
Encoding: UnicodeBmp
UnicodeInterp: none
NameList: AGL For New Fonts
DisplaySize: -48
AntiAlias: 1
FitToEm: 0
WinInfo: 38 38 14
BeginPrivate: 0
EndPrivate
BeginChars: 65539 67

StartChar: .notdef
Encoding: 65536 -1 0
Width: 512
GlyphClass: 1
Flags: W
LayerCount: 2
Fore
SplineSet
0 683 m 1,0,-1
 438 683 l 1,1,-1
 438 0 l 1,2,-1
 0 0 l 1,3,-1
 0 683 l 1,0,-1
365 610 m 1,4,-1
 73 610 l 1,5,-1
 73 73 l 1,6,-1
 365 73 l 1,7,-1
 365 610 l 1,4,-1
0 684 m 2,8,-1
 438 684 l 2,9,10
 439 684 439 684 439 683 c 2,11,-1
 439 0 l 2,12,13
 439 -1 439 -1 438 -1 c 2,14,-1
 0 -1 l 2,15,16
 -1 -1 -1 -1 -1 0 c 2,17,-1
 -1 683 l 2,18,19
 -1 684 -1 684 0 684 c 2,8,-1
364 74 m 1,20,-1
 74 74 l 1,21,-1
 74 609 l 1,22,-1
 364 609 l 1,23,-1
 364 74 l 1,20,-1
0 684 m 2,24,25
 -1 684 -1 684 -1 683 c 2,26,-1
 -1 0 l 2,27,28
 -1 -1 -1 -1 0 -1 c 2,29,-1
 438 -1 l 2,30,31
 439 -1 439 -1 439 0 c 2,32,-1
 439 683 l 2,33,34
 439 684 439 684 438 684 c 2,35,-1
 0 684 l 2,24,25
364 74 m 1,36,-1
 364 609 l 1,37,-1
 74 609 l 1,38,-1
 74 74 l 1,39,-1
 364 74 l 1,36,-1
EndSplineSet
EndChar

StartChar: exclam
Encoding: 33 33 4
Width: 205
GlyphClass: 1
Flags: W
LayerCount: 2
Fore
SplineSet
189 590 m 1,0,-1
 189 694 l 1,1,-1
 84 694 l 1,2,-1
 84 590 l 1,3,-1
 189 590 l 1,4,-1
 189 590 l 1,0,-1
189 506 m 1,5,-1
 189 506 l 1,6,-1
 84 506 l 1,7,-1
 84 610 l 1,8,-1
 189 610 l 1,9,-1
 189 506 l 1,5,-1
189 421 m 1,10,-1
 189 526 l 1,11,-1
 84 526 l 1,12,-1
 84 421 l 1,13,-1
 189 421 l 1,14,-1
 189 421 l 1,10,-1
189 337 m 1,15,-1
 189 337 l 1,16,-1
 84 337 l 1,17,-1
 84 441 l 1,18,-1
 189 441 l 1,19,-1
 189 337 l 1,15,-1
189 252 m 1,20,-1
 189 357 l 1,21,-1
 84 357 l 1,22,-1
 84 252 l 1,23,-1
 189 252 l 1,24,-1
 189 252 l 1,20,-1
189 168 m 1,25,-1
 189 168 l 1,26,-1
 84 168 l 1,27,-1
 84 272 l 1,28,-1
 189 272 l 1,29,-1
 189 168 l 1,25,-1
189 0 m 1,30,-1
 189 0 l 1,31,-1
 84 0 l 1,32,-1
 84 104 l 1,33,-1
 189 104 l 1,34,-1
 189 0 l 1,30,-1
189 -1 m 2,35,-1
 84 -1 l 2,36,37
 83 -1 83 -1 83 0 c 2,38,-1
 83 104 l 2,39,40
 83 105 83 105 84 105 c 2,41,-1
 189 105 l 2,42,43
 190 105 190 105 190 104 c 2,44,-1
 190 0 l 2,45,46
 190 -1 190 -1 189 -1 c 2,35,-1
189 167 m 2,47,-1
 84 167 l 2,48,49
 83 167 83 167 83 168 c 2,50,-1
 83 694 l 2,51,52
 83 695 83 695 84 695 c 2,53,-1
 189 695 l 2,54,55
 190 695 190 695 190 694 c 2,56,-1
 190 168 l 2,57,58
 190 167 190 167 189 167 c 2,47,-1
189 -1 m 2,59,60
 190 -1 190 -1 190 0 c 2,61,-1
 190 104 l 2,62,63
 190 105 190 105 189 105 c 2,64,-1
 84 105 l 2,65,66
 83 105 83 105 83 104 c 2,67,-1
 83 0 l 2,68,69
 83 -1 83 -1 84 -1 c 2,70,-1
 189 -1 l 2,59,60
189 167 m 2,71,72
 190 167 190 167 190 168 c 2,73,-1
 190 694 l 2,74,75
 190 695 190 695 189 695 c 2,76,-1
 84 695 l 2,77,78
 83 695 83 695 83 694 c 2,79,-1
 83 168 l 2,80,81
 83 167 83 167 84 167 c 2,82,-1
 189 167 l 2,71,72
EndSplineSet
EndChar

StartChar: quotedbl
Encoding: 34 34 5
Width: 374
GlyphClass: 1
Flags: W
LayerCount: 2
Fore
SplineSet
358 590 m 1,0,-1
 358 694 l 1,1,-1
 253 694 l 1,2,-1
 253 590 l 1,3,-1
 358 590 l 1,4,-1
 358 590 l 1,0,-1
358 506 m 1,5,-1
 358 506 l 1,6,-1
 253 506 l 1,7,-1
 253 610 l 1,8,-1
 358 610 l 1,9,-1
 358 506 l 1,5,-1
189 590 m 1,10,-1
 189 694 l 1,11,-1
 84 694 l 1,12,-1
 84 590 l 1,13,-1
 189 590 l 1,14,-1
 189 590 l 1,10,-1
189 506 m 1,15,-1
 189 506 l 1,16,-1
 84 506 l 1,17,-1
 84 610 l 1,18,-1
 189 610 l 1,19,-1
 189 506 l 1,15,-1
189 505 m 2,20,-1
 84 505 l 2,21,22
 83 505 83 505 83 506 c 2,23,-1
 83 694 l 2,24,25
 83 695 83 695 84 695 c 2,26,-1
 189 695 l 2,27,28
 190 695 190 695 190 694 c 2,29,-1
 190 506 l 2,30,31
 190 505 190 505 189 505 c 2,20,-1
358 505 m 2,32,33
 359 505 359 505 359 506 c 2,34,-1
 359 694 l 2,35,36
 359 695 359 695 358 695 c 2,37,-1
 253 695 l 2,38,39
 252 695 252 695 252 694 c 2,40,-1
 252 506 l 2,41,42
 252 505 252 505 253 505 c 2,43,-1
 358 505 l 2,32,33
189 505 m 2,44,45
 190 505 190 505 190 506 c 2,46,-1
 190 694 l 2,47,48
 190 695 190 695 189 695 c 2,49,-1
 84 695 l 2,50,51
 83 695 83 695 83 694 c 2,52,-1
 83 506 l 2,53,54
 83 505 83 505 84 505 c 2,55,-1
 189 505 l 2,44,45
358 505 m 2,56,-1
 253 505 l 2,57,58
 252 505 252 505 252 506 c 2,59,-1
 252 694 l 2,60,61
 252 695 252 695 253 695 c 2,62,-1
 358 695 l 2,63,64
 359 695 359 695 359 694 c 2,65,-1
 359 506 l 2,66,67
 359 505 359 505 358 505 c 2,56,-1
EndSplineSet
EndChar

StartChar: comma
Encoding: 44 44 6
Width: 290
GlyphClass: 1
Flags: W
LayerCount: 2
Fore
SplineSet
189 -85 m 1,0,-1
 189 -85 l 1,1,-1
 84 -85 l 1,2,-1
 84 20 l 1,3,-1
 189 20 l 1,4,-1
 189 -85 l 1,0,-1
274 0 m 1,5,-1
 274 104 l 1,6,-1
 169 104 l 1,7,-1
 169 0 l 1,8,-1
 274 0 l 1,9,-1
 274 0 l 1,5,-1
189 -86 m 2,10,-1
 84 -86 l 2,11,12
 83 -86 83 -86 83 -85 c 2,13,-1
 83 20 l 2,14,15
 83 21 83 21 84 21 c 2,16,-1
 168 21 l 1,17,-1
 168 104 l 2,18,19
 168 105 168 105 169 105 c 2,20,-1
 274 105 l 2,21,22
 275 105 275 105 275 104 c 2,23,-1
 275 0 l 2,24,25
 275 -1 275 -1 274 -1 c 2,26,-1
 190 -1 l 1,27,-1
 190 -85 l 2,28,29
 190 -86 190 -86 189 -86 c 2,10,-1
189 -86 m 2,30,31
 190 -86 190 -86 190 -85 c 2,32,-1
 190 -1 l 1,33,-1
 274 -1 l 2,34,35
 275 -1 275 -1 275 0 c 2,36,-1
 275 104 l 2,37,38
 275 105 275 105 274 105 c 2,39,-1
 169 105 l 2,40,41
 168 105 168 105 168 104 c 2,42,-1
 168 21 l 1,43,-1
 84 21 l 2,44,45
 83 21 83 21 83 20 c 2,46,-1
 83 -85 l 2,47,48
 83 -86 83 -86 84 -86 c 2,49,-1
 189 -86 l 2,30,31
EndSplineSet
EndChar

StartChar: hyphen
Encoding: 45 45 7
Width: 542
GlyphClass: 1
Flags: W
LayerCount: 2
Fore
SplineSet
106 253 m 1,0,-1
 106 253 l 1,1,-1
 1 253 l 1,2,-1
 1 357 l 1,3,-1
 106 357 l 1,4,-1
 106 253 l 1,0,-1
190 253 m 1,5,-1
 190 357 l 1,6,-1
 85 357 l 1,7,-1
 85 253 l 1,8,-1
 190 253 l 1,9,-1
 190 253 l 1,5,-1
274 253 m 1,10,-1
 274 253 l 1,11,-1
 169 253 l 1,12,-1
 169 357 l 1,13,-1
 274 357 l 1,14,-1
 274 253 l 1,10,-1
358 253 m 1,15,-1
 358 357 l 1,16,-1
 254 357 l 1,17,-1
 254 253 l 1,18,-1
 358 253 l 1,19,-1
 358 253 l 1,15,-1
443 253 m 1,20,-1
 443 253 l 1,21,-1
 338 253 l 1,22,-1
 338 357 l 1,23,-1
 443 357 l 1,24,-1
 443 253 l 1,20,-1
1 358 m 2,25,-1
 443 358 l 2,26,27
 444 358 444 358 444 357 c 2,28,-1
 444 253 l 2,29,30
 444 252 444 252 443 252 c 2,31,-1
 1 252 l 2,32,33
 0 252 0 252 1.11022302463e-16 253 c 2,34,-1
 1.11022302463e-16 357 l 2,35,36
 1.11022302463e-16 358 1.11022302463e-16 358 1 358 c 2,25,-1
1 358 m 2,37,38
 1.11022302463e-16 358 1.11022302463e-16 358 1.11022302463e-16 357 c 2,39,-1
 1.11022302463e-16 253 l 2,40,41
 0 252 0 252 1 252 c 2,42,-1
 443 252 l 2,43,44
 444 252 444 252 444 253 c 2,45,-1
 444 357 l 2,46,47
 444 358 444 358 443 358 c 2,48,-1
 1 358 l 2,37,38
EndSplineSet
EndChar

StartChar: period
Encoding: 46 46 8
Width: 205
GlyphClass: 1
Flags: W
LayerCount: 2
Fore
SplineSet
106 0 m 1,0,-1
 106 0 l 1,1,-1
 1 0 l 1,2,-1
 1 104 l 1,3,-1
 106 104 l 1,4,-1
 106 0 l 1,0,-1
106 -1 m 2,5,-1
 1 -1 l 2,6,7
 0 -1 0 -1 1.11022302463e-16 0 c 2,8,-1
 1.11022302463e-16 104 l 2,9,10
 1.11022302463e-16 105 1.11022302463e-16 105 1 105 c 2,11,-1
 106 105 l 2,12,13
 107 105 107 105 107 104 c 2,14,-1
 107 0 l 2,15,16
 107 -1 107 -1 106 -1 c 2,5,-1
106 -1 m 2,17,18
 107 -1 107 -1 107 0 c 2,19,-1
 107 104 l 2,20,21
 107 105 107 105 106 105 c 2,22,-1
 1 105 l 2,23,24
 1.11022302463e-16 105 1.11022302463e-16 105 1.11022302463e-16 104 c 2,25,-1
 1.11022302463e-16 0 l 2,26,27
 0 -1 0 -1 1 -1 c 2,28,-1
 106 -1 l 2,17,18
EndSplineSet
EndChar

StartChar: zero
Encoding: 48 48 9
Width: 542
GlyphClass: 1
Flags: W
LayerCount: 2
Fore
SplineSet
105 253 m 1,0,-1
 105 253 l 1,1,-1
 0 253 l 1,2,-1
 0 357 l 1,3,-1
 105 357 l 1,4,-1
 105 253 l 1,0,-1
105 337 m 1,5,-1
 105 441 l 1,6,-1
 0 441 l 1,7,-1
 0 337 l 1,8,-1
 105 337 l 1,9,-1
 105 337 l 1,5,-1
105 421 m 1,10,-1
 105 421 l 1,11,-1
 0 421 l 1,12,-1
 0 526 l 1,13,-1
 105 526 l 1,14,-1
 105 421 l 1,10,-1
105 506 m 1,15,-1
 105 610 l 1,16,-1
 0 610 l 1,17,-1
 0 506 l 1,18,-1
 105 506 l 1,19,-1
 105 506 l 1,15,-1
189 590 m 1,20,-1
 189 590 l 1,21,-1
 85 590 l 1,22,-1
 85 694 l 1,23,-1
 189 694 l 1,24,-1
 189 590 l 1,20,-1
274 590 m 1,25,-1
 274 694 l 1,26,-1
 169 694 l 1,27,-1
 169 590 l 1,28,-1
 274 590 l 1,29,-1
 274 590 l 1,25,-1
358 590 m 1,30,-1
 358 590 l 1,31,-1
 253 590 l 1,32,-1
 253 694 l 1,33,-1
 358 694 l 1,34,-1
 358 590 l 1,30,-1
442 337 m 1,35,-1
 442 337 l 1,36,-1
 338 337 l 1,37,-1
 338 441 l 1,38,-1
 442 441 l 1,39,-1
 442 337 l 1,35,-1
442 253 m 1,40,-1
 442 357 l 1,41,-1
 338 357 l 1,42,-1
 338 253 l 1,43,-1
 442 253 l 1,44,-1
 442 253 l 1,40,-1
442 168 m 1,45,-1
 442 168 l 1,46,-1
 338 168 l 1,47,-1
 338 273 l 1,48,-1
 442 273 l 1,49,-1
 442 168 l 1,45,-1
442 84 m 1,50,-1
 442 188 l 1,51,-1
 338 188 l 1,52,-1
 338 84 l 1,53,-1
 442 84 l 1,54,-1
 442 84 l 1,50,-1
274 0 m 1,55,-1
 274 104 l 1,56,-1
 169 104 l 1,57,-1
 169 0 l 1,58,-1
 274 0 l 1,59,-1
 274 0 l 1,55,-1
358 0 m 1,60,-1
 358 0 l 1,61,-1
 253 0 l 1,62,-1
 253 104 l 1,63,-1
 358 104 l 1,64,-1
 358 0 l 1,60,-1
189 0 m 1,65,-1
 189 0 l 1,66,-1
 85 0 l 1,67,-1
 85 104 l 1,68,-1
 189 104 l 1,69,-1
 189 0 l 1,65,-1
442 421 m 1,70,-1
 442 526 l 1,71,-1
 338 526 l 1,72,-1
 338 421 l 1,73,-1
 442 421 l 1,74,-1
 442 421 l 1,70,-1
442 506 m 1,75,-1
 442 506 l 1,76,-1
 338 506 l 1,77,-1
 338 610 l 1,78,-1
 442 610 l 1,79,-1
 442 506 l 1,75,-1
358 421 m 1,80,-1
 358 421 l 1,81,-1
 253 421 l 1,82,-1
 253 526 l 1,83,-1
 358 526 l 1,84,-1
 358 421 l 1,80,-1
274 337 m 1,85,-1
 274 441 l 1,86,-1
 169 441 l 1,87,-1
 169 337 l 1,88,-1
 274 337 l 1,89,-1
 274 337 l 1,85,-1
189 253 m 1,90,-1
 189 253 l 1,91,-1
 85 253 l 1,92,-1
 85 357 l 1,93,-1
 189 357 l 1,94,-1
 189 253 l 1,90,-1
105 168 m 1,95,-1
 105 273 l 1,96,-1
 0 273 l 1,97,-1
 0 168 l 1,98,-1
 105 168 l 1,99,-1
 105 168 l 1,95,-1
105 84 m 1,100,-1
 105 84 l 1,101,-1
 0 84 l 1,102,-1
 0 188 l 1,103,-1
 105 188 l 1,104,-1
 105 84 l 1,100,-1
106 252 m 1,105,-1
 189 252 l 2,106,107
 190 252 190 252 190 253 c 2,108,-1
 190 336 l 1,109,-1
 274 336 l 2,110,111
 275 336 275 336 275 337 c 2,112,-1
 275 420 l 1,113,-1
 337 420 l 1,114,-1
 337 105 l 1,115,-1
 106 105 l 1,116,-1
 106 252 l 1,105,-1
-1 610 m 2,117,118
 -1 611 -1 611 0 611 c 2,119,-1
 84 611 l 1,120,-1
 84 694 l 2,121,122
 84 695 84 695 85 695 c 2,123,-1
 358 695 l 2,124,125
 359 695 359 695 359 694 c 2,126,-1
 359 611 l 1,127,-1
 442 611 l 2,128,129
 443 611 443 611 443 610 c 2,130,-1
 443 84 l 2,131,132
 443 83 443 83 442 83 c 2,133,-1
 359 83 l 1,134,-1
 359 0 l 2,135,136
 359 -1 359 -1 358 -1 c 2,137,-1
 85 -1 l 2,138,139
 84 -1 84 -1 84 0 c 2,140,-1
 84 83 l 1,141,-1
 0 83 l 2,142,143
 -1 83 -1 83 -1 84 c 2,144,-1
 -1 610 l 2,117,118
168 358 m 1,145,-1
 106 358 l 1,146,-1
 106 589 l 1,147,-1
 337 589 l 1,148,-1
 337 527 l 1,149,-1
 253 527 l 2,150,151
 252 527 252 527 252 526 c 2,152,-1
 252 442 l 1,153,-1
 169 442 l 2,154,155
 168 442 168 442 168 441 c 2,156,-1
 168 358 l 1,145,-1
106 252 m 1,157,-1
 106 105 l 1,158,-1
 337 105 l 1,159,-1
 337 420 l 1,160,-1
 275 420 l 1,161,-1
 275 337 l 2,162,163
 275 336 275 336 274 336 c 2,164,-1
 190 336 l 1,165,-1
 190 253 l 2,166,167
 190 252 190 252 189 252 c 2,168,-1
 106 252 l 1,157,-1
-1 610 m 2,169,-1
 -1 84 l 2,170,171
 -1 83 -1 83 0 83 c 2,172,-1
 84 83 l 1,173,-1
 84 0 l 2,174,175
 84 -1 84 -1 85 -1 c 2,176,-1
 358 -1 l 2,177,178
 359 -1 359 -1 359 0 c 2,179,-1
 359 83 l 1,180,-1
 442 83 l 2,181,182
 443 83 443 83 443 84 c 2,183,-1
 443 610 l 2,184,185
 443 611 443 611 442 611 c 2,186,-1
 359 611 l 1,187,-1
 359 694 l 2,188,189
 359 695 359 695 358 695 c 2,190,-1
 85 695 l 2,191,192
 84 695 84 695 84 694 c 2,193,-1
 84 611 l 1,194,-1
 0 611 l 2,195,196
 -1 611 -1 611 -1 610 c 2,169,-1
168 358 m 1,197,-1
 168 441 l 2,198,199
 168 442 168 442 169 442 c 2,200,-1
 252 442 l 1,201,-1
 252 526 l 2,202,203
 252 527 252 527 253 527 c 2,204,-1
 337 527 l 1,205,-1
 337 589 l 1,206,-1
 106 589 l 1,207,-1
 106 358 l 1,208,-1
 168 358 l 1,197,-1
EndSplineSet
EndChar

StartChar: one
Encoding: 49 49 10
Width: 542
GlyphClass: 1
Flags: W
LayerCount: 2
Fore
SplineSet
105 0 m 1,0,-1
 105 0 l 1,1,-1
 0 0 l 1,2,-1
 0 104 l 1,3,-1
 105 104 l 1,4,-1
 105 0 l 1,0,-1
189 0 m 1,5,-1
 189 104 l 1,6,-1
 85 104 l 1,7,-1
 85 0 l 1,8,-1
 189 0 l 1,9,-1
 189 0 l 1,5,-1
358 0 m 1,10,-1
 358 104 l 1,11,-1
 253 104 l 1,12,-1
 253 0 l 1,13,-1
 358 0 l 1,14,-1
 358 0 l 1,10,-1
442 0 m 1,15,-1
 442 0 l 1,16,-1
 338 0 l 1,17,-1
 338 104 l 1,18,-1
 442 104 l 1,19,-1
 442 0 l 1,15,-1
274 0 m 1,20,-1
 274 0 l 1,21,-1
 169 0 l 1,22,-1
 169 104 l 1,23,-1
 274 104 l 1,24,-1
 274 0 l 1,20,-1
274 84 m 1,25,-1
 274 84 l 1,26,-1
 169 84 l 1,27,-1
 169 188 l 1,28,-1
 274 188 l 1,29,-1
 274 84 l 1,25,-1
274 168 m 1,30,-1
 274 273 l 1,31,-1
 169 273 l 1,32,-1
 169 168 l 1,33,-1
 274 168 l 1,34,-1
 274 168 l 1,30,-1
274 253 m 1,35,-1
 274 253 l 1,36,-1
 169 253 l 1,37,-1
 169 357 l 1,38,-1
 274 357 l 1,39,-1
 274 253 l 1,35,-1
274 337 m 1,40,-1
 274 441 l 1,41,-1
 169 441 l 1,42,-1
 169 337 l 1,43,-1
 274 337 l 1,44,-1
 274 337 l 1,40,-1
274 421 m 1,45,-1
 274 421 l 1,46,-1
 169 421 l 1,47,-1
 169 526 l 1,48,-1
 274 526 l 1,49,-1
 274 421 l 1,45,-1
274 506 m 1,50,-1
 274 506 l 1,51,-1
 169 506 l 1,52,-1
 169 610 l 1,53,-1
 274 610 l 1,54,-1
 274 506 l 1,50,-1
274 590 m 1,55,-1
 274 590 l 1,56,-1
 169 590 l 1,57,-1
 169 694 l 1,58,-1
 274 694 l 1,59,-1
 274 590 l 1,55,-1
189 506 m 1,60,-1
 189 610 l 1,61,-1
 85 610 l 1,62,-1
 85 506 l 1,63,-1
 189 506 l 1,64,-1
 189 506 l 1,60,-1
105 421 m 1,65,-1
 105 421 l 1,66,-1
 0 421 l 1,67,-1
 0 526 l 1,68,-1
 105 526 l 1,69,-1
 105 421 l 1,65,-1
105 420 m 2,70,-1
 0 420 l 2,71,72
 -1 420 -1 420 -1 421 c 2,73,-1
 -1 526 l 2,74,75
 -1 527 -1 527 0 527 c 2,76,-1
 84 527 l 1,77,-1
 84 610 l 2,78,79
 84 611 84 611 85 611 c 2,80,-1
 168 611 l 1,81,-1
 168 694 l 2,82,83
 168 695 168 695 169 695 c 2,84,-1
 274 695 l 2,85,86
 275 695 275 695 275 694 c 2,87,-1
 275 105 l 1,88,-1
 442 105 l 2,89,90
 443 105 443 105 443 104 c 2,91,-1
 443 0 l 2,92,93
 443 -1 443 -1 442 -1 c 2,94,-1
 0 -1 l 2,95,96
 -1 -1 -1 -1 -1 0 c 2,97,-1
 -1 104 l 2,98,99
 -1 105 -1 105 0 105 c 2,100,-1
 168 105 l 1,101,-1
 168 505 l 1,102,-1
 106 505 l 1,103,-1
 106 421 l 2,104,105
 106 420 106 420 105 420 c 2,70,-1
105 420 m 2,106,107
 106 420 106 420 106 421 c 2,108,-1
 106 505 l 1,109,-1
 168 505 l 1,110,-1
 168 105 l 1,111,-1
 0 105 l 2,112,113
 -1 105 -1 105 -1 104 c 2,114,-1
 -1 0 l 2,115,116
 -1 -1 -1 -1 0 -1 c 2,117,-1
 442 -1 l 2,118,119
 443 -1 443 -1 443 0 c 2,120,-1
 443 104 l 2,121,122
 443 105 443 105 442 105 c 2,123,-1
 275 105 l 1,124,-1
 275 694 l 2,125,126
 275 695 275 695 274 695 c 2,127,-1
 169 695 l 2,128,129
 168 695 168 695 168 694 c 2,130,-1
 168 611 l 1,131,-1
 85 611 l 2,132,133
 84 611 84 611 84 610 c 2,134,-1
 84 527 l 1,135,-1
 0 527 l 2,136,137
 -1 527 -1 527 -1 526 c 2,138,-1
 -1 421 l 2,139,140
 -1 420 -1 420 0 420 c 2,141,-1
 105 420 l 2,106,107
EndSplineSet
EndChar

StartChar: two
Encoding: 50 50 11
Width: 542
GlyphClass: 1
Flags: W
LayerCount: 2
Fore
SplineSet
105 506 m 1,0,-1
 105 506 l 1,1,-1
 0 506 l 1,2,-1
 0 610 l 1,3,-1
 105 610 l 1,4,-1
 105 506 l 1,0,-1
189 590 m 1,5,-1
 189 694 l 1,6,-1
 85 694 l 1,7,-1
 85 590 l 1,8,-1
 189 590 l 1,9,-1
 189 590 l 1,5,-1
274 590 m 1,10,-1
 274 590 l 1,11,-1
 169 590 l 1,12,-1
 169 694 l 1,13,-1
 274 694 l 1,14,-1
 274 590 l 1,10,-1
358 590 m 1,15,-1
 358 694 l 1,16,-1
 253 694 l 1,17,-1
 253 590 l 1,18,-1
 358 590 l 1,19,-1
 358 590 l 1,15,-1
442 506 m 1,20,-1
 442 506 l 1,21,-1
 338 506 l 1,22,-1
 338 610 l 1,23,-1
 442 610 l 1,24,-1
 442 506 l 1,20,-1
442 421 m 1,25,-1
 442 526 l 1,26,-1
 338 526 l 1,27,-1
 338 421 l 1,28,-1
 442 421 l 1,29,-1
 442 421 l 1,25,-1
358 337 m 1,30,-1
 358 337 l 1,31,-1
 253 337 l 1,32,-1
 253 441 l 1,33,-1
 358 441 l 1,34,-1
 358 337 l 1,30,-1
274 253 m 1,35,-1
 274 357 l 1,36,-1
 169 357 l 1,37,-1
 169 253 l 1,38,-1
 274 253 l 1,39,-1
 274 253 l 1,35,-1
189 168 m 1,40,-1
 189 168 l 1,41,-1
 85 168 l 1,42,-1
 85 273 l 1,43,-1
 189 273 l 1,44,-1
 189 168 l 1,40,-1
442 0 m 1,45,-1
 442 0 l 1,46,-1
 338 0 l 1,47,-1
 338 104 l 1,48,-1
 442 104 l 1,49,-1
 442 0 l 1,45,-1
358 0 m 1,50,-1
 358 104 l 1,51,-1
 253 104 l 1,52,-1
 253 0 l 1,53,-1
 358 0 l 1,54,-1
 358 0 l 1,50,-1
274 0 m 1,55,-1
 274 0 l 1,56,-1
 169 0 l 1,57,-1
 169 104 l 1,58,-1
 274 104 l 1,59,-1
 274 0 l 1,55,-1
189 0 m 1,60,-1
 189 104 l 1,61,-1
 85 104 l 1,62,-1
 85 0 l 1,63,-1
 189 0 l 1,64,-1
 189 0 l 1,60,-1
105 0 m 1,65,-1
 105 0 l 1,66,-1
 0 0 l 1,67,-1
 0 104 l 1,68,-1
 105 104 l 1,69,-1
 105 0 l 1,65,-1
105 84 m 1,70,-1
 105 188 l 1,71,-1
 0 188 l 1,72,-1
 0 84 l 1,73,-1
 105 84 l 1,74,-1
 105 84 l 1,70,-1
105 505 m 2,75,-1
 0 505 l 2,76,77
 -1 505 -1 505 -1 506 c 2,78,-1
 -1 610 l 2,79,80
 -1 611 -1 611 0 611 c 2,81,-1
 84 611 l 1,82,-1
 84 694 l 2,83,84
 84 695 84 695 85 695 c 2,85,-1
 358 695 l 2,86,87
 359 695 359 695 359 694 c 2,88,-1
 359 611 l 1,89,-1
 442 611 l 2,90,91
 443 611 443 611 443 610 c 2,92,-1
 443 421 l 2,93,94
 443 420 443 420 442 420 c 2,95,-1
 359 420 l 1,96,-1
 359 337 l 2,97,98
 359 336 359 336 358 336 c 2,99,-1
 275 336 l 1,100,-1
 275 253 l 2,101,102
 275 252 275 252 274 252 c 2,103,-1
 190 252 l 1,104,-1
 190 168 l 2,105,106
 190 167 190 167 189 167 c 2,107,-1
 106 167 l 1,108,-1
 106 105 l 1,109,-1
 442 105 l 2,110,111
 443 105 443 105 443 104 c 2,112,-1
 443 0 l 2,113,114
 443 -1 443 -1 442 -1 c 2,115,-1
 0 -1 l 2,116,117
 -1 -1 -1 -1 -1 0 c 2,118,-1
 -1 188 l 2,119,120
 -1 189 -1 189 0 189 c 2,121,-1
 84 189 l 1,122,-1
 84 273 l 2,123,124
 84 274 84 274 85 274 c 2,125,-1
 168 274 l 1,126,-1
 168 357 l 2,127,128
 168 358 168 358 169 358 c 2,129,-1
 252 358 l 1,130,-1
 252 441 l 2,131,132
 252 442 252 442 253 442 c 2,133,-1
 337 442 l 1,134,-1
 337 589 l 1,135,-1
 106 589 l 1,136,-1
 106 506 l 2,137,138
 106 505 106 505 105 505 c 2,75,-1
105 505 m 2,139,140
 106 505 106 505 106 506 c 2,141,-1
 106 589 l 1,142,-1
 337 589 l 1,143,-1
 337 442 l 1,144,-1
 253 442 l 2,145,146
 252 442 252 442 252 441 c 2,147,-1
 252 358 l 1,148,-1
 169 358 l 2,149,150
 168 358 168 358 168 357 c 2,151,-1
 168 274 l 1,152,-1
 85 274 l 2,153,154
 84 274 84 274 84 273 c 2,155,-1
 84 189 l 1,156,-1
 0 189 l 2,157,158
 -1 189 -1 189 -1 188 c 2,159,-1
 -1 0 l 2,160,161
 -1 -1 -1 -1 0 -1 c 2,162,-1
 442 -1 l 2,163,164
 443 -1 443 -1 443 0 c 2,165,-1
 443 104 l 2,166,167
 443 105 443 105 442 105 c 2,168,-1
 106 105 l 1,169,-1
 106 167 l 1,170,-1
 189 167 l 2,171,172
 190 167 190 167 190 168 c 2,173,-1
 190 252 l 1,174,-1
 274 252 l 2,175,176
 275 252 275 252 275 253 c 2,177,-1
 275 336 l 1,178,-1
 358 336 l 2,179,180
 359 336 359 336 359 337 c 2,181,-1
 359 420 l 1,182,-1
 442 420 l 2,183,184
 443 420 443 420 443 421 c 2,185,-1
 443 610 l 2,186,187
 443 611 443 611 442 611 c 2,188,-1
 359 611 l 1,189,-1
 359 694 l 2,190,191
 359 695 359 695 358 695 c 2,192,-1
 85 695 l 2,193,194
 84 695 84 695 84 694 c 2,195,-1
 84 611 l 1,196,-1
 0 611 l 2,197,198
 -1 611 -1 611 -1 610 c 2,199,-1
 -1 506 l 2,200,201
 -1 505 -1 505 0 505 c 2,202,-1
 105 505 l 2,139,140
EndSplineSet
EndChar

StartChar: three
Encoding: 51 51 12
Width: 542
GlyphClass: 1
Flags: W
LayerCount: 2
Fore
SplineSet
358 590 m 1,0,-1
 358 694 l 1,1,-1
 253 694 l 1,2,-1
 253 590 l 1,3,-1
 358 590 l 1,4,-1
 358 590 l 1,0,-1
274 590 m 1,5,-1
 274 590 l 1,6,-1
 169 590 l 1,7,-1
 169 694 l 1,8,-1
 274 694 l 1,9,-1
 274 590 l 1,5,-1
189 590 m 1,10,-1
 189 694 l 1,11,-1
 85 694 l 1,12,-1
 85 590 l 1,13,-1
 189 590 l 1,14,-1
 189 590 l 1,10,-1
442 506 m 1,15,-1
 442 610 l 1,16,-1
 338 610 l 1,17,-1
 338 506 l 1,18,-1
 442 506 l 1,19,-1
 442 506 l 1,15,-1
442 421 m 1,20,-1
 442 421 l 1,21,-1
 338 421 l 1,22,-1
 338 526 l 1,23,-1
 442 526 l 1,24,-1
 442 421 l 1,20,-1
274 337 m 1,25,-1
 274 337 l 1,26,-1
 169 337 l 1,27,-1
 169 441 l 1,28,-1
 274 441 l 1,29,-1
 274 337 l 1,25,-1
358 337 m 1,30,-1
 358 441 l 1,31,-1
 253 441 l 1,32,-1
 253 337 l 1,33,-1
 358 337 l 1,34,-1
 358 337 l 1,30,-1
442 168 m 1,35,-1
 442 168 l 1,36,-1
 338 168 l 1,37,-1
 338 273 l 1,38,-1
 442 273 l 1,39,-1
 442 168 l 1,35,-1
442 253 m 1,40,-1
 442 357 l 1,41,-1
 338 357 l 1,42,-1
 338 253 l 1,43,-1
 442 253 l 1,44,-1
 442 253 l 1,40,-1
105 506 m 1,45,-1
 105 506 l 1,46,-1
 0 506 l 1,47,-1
 0 610 l 1,48,-1
 105 610 l 1,49,-1
 105 506 l 1,45,-1
442 84 m 1,50,-1
 442 188 l 1,51,-1
 338 188 l 1,52,-1
 338 84 l 1,53,-1
 442 84 l 1,54,-1
 442 84 l 1,50,-1
105 84 m 1,55,-1
 105 84 l 1,56,-1
 0 84 l 1,57,-1
 0 188 l 1,58,-1
 105 188 l 1,59,-1
 105 84 l 1,55,-1
189 0 m 1,60,-1
 189 0 l 1,61,-1
 85 0 l 1,62,-1
 85 104 l 1,63,-1
 189 104 l 1,64,-1
 189 0 l 1,60,-1
274 0 m 1,65,-1
 274 104 l 1,66,-1
 169 104 l 1,67,-1
 169 0 l 1,68,-1
 274 0 l 1,69,-1
 274 0 l 1,65,-1
358 0 m 1,70,-1
 358 0 l 1,71,-1
 253 0 l 1,72,-1
 253 104 l 1,73,-1
 358 104 l 1,74,-1
 358 0 l 1,70,-1
105 505 m 2,75,-1
 0 505 l 2,76,77
 -1 505 -1 505 -1 506 c 2,78,-1
 -1 610 l 2,79,80
 -1 611 -1 611 0 611 c 2,81,-1
 84 611 l 1,82,-1
 84 694 l 2,83,84
 84 695 84 695 85 695 c 2,85,-1
 358 695 l 2,86,87
 359 695 359 695 359 694 c 2,88,-1
 359 611 l 1,89,-1
 442 611 l 2,90,91
 443 611 443 611 443 610 c 2,92,-1
 443 421 l 2,93,94
 443 420 443 420 442 420 c 2,95,-1
 359 420 l 1,96,-1
 359 358 l 1,97,-1
 442 358 l 2,98,99
 443 358 443 358 443 357 c 2,100,-1
 443 84 l 2,101,102
 443 83 443 83 442 83 c 2,103,-1
 359 83 l 1,104,-1
 359 0 l 2,105,106
 359 -1 359 -1 358 -1 c 2,107,-1
 85 -1 l 2,108,109
 84 -1 84 -1 84 0 c 2,110,-1
 84 83 l 1,111,-1
 0 83 l 2,112,113
 -1 83 -1 83 -1 84 c 2,114,-1
 -1 188 l 2,115,116
 -1 189 -1 189 0 189 c 2,117,-1
 105 189 l 2,118,119
 106 189 106 189 106 188 c 2,120,-1
 106 105 l 1,121,-1
 337 105 l 1,122,-1
 337 336 l 1,123,-1
 253 336 l 1,124,-1
 169 336 l 2,125,126
 168 336 168 336 168 337 c 2,127,-1
 168 441 l 2,128,129
 168 442 168 442 169 442 c 2,130,-1
 337 442 l 1,131,-1
 337 589 l 1,132,-1
 106 589 l 1,133,-1
 106 506 l 2,134,135
 106 505 106 505 105 505 c 2,75,-1
105 505 m 2,136,137
 106 505 106 505 106 506 c 2,138,-1
 106 589 l 1,139,-1
 337 589 l 1,140,-1
 337 442 l 1,141,-1
 169 442 l 2,142,143
 168 442 168 442 168 441 c 2,144,-1
 168 337 l 2,145,146
 168 336 168 336 169 336 c 2,147,-1
 253 336 l 1,148,-1
 337 336 l 1,149,-1
 337 105 l 1,150,-1
 106 105 l 1,151,-1
 106 188 l 2,152,153
 106 189 106 189 105 189 c 2,154,-1
 0 189 l 2,155,156
 -1 189 -1 189 -1 188 c 2,157,-1
 -1 84 l 2,158,159
 -1 83 -1 83 0 83 c 2,160,-1
 84 83 l 1,161,-1
 84 0 l 2,162,163
 84 -1 84 -1 85 -1 c 2,164,-1
 358 -1 l 2,165,166
 359 -1 359 -1 359 0 c 2,167,-1
 359 83 l 1,168,-1
 442 83 l 2,169,170
 443 83 443 83 443 84 c 2,171,-1
 443 357 l 2,172,173
 443 358 443 358 442 358 c 2,174,-1
 359 358 l 1,175,-1
 359 420 l 1,176,-1
 442 420 l 2,177,178
 443 420 443 420 443 421 c 2,179,-1
 443 610 l 2,180,181
 443 611 443 611 442 611 c 2,182,-1
 359 611 l 1,183,-1
 359 694 l 2,184,185
 359 695 359 695 358 695 c 2,186,-1
 85 695 l 2,187,188
 84 695 84 695 84 694 c 2,189,-1
 84 611 l 1,190,-1
 0 611 l 2,191,192
 -1 611 -1 611 -1 610 c 2,193,-1
 -1 506 l 2,194,195
 -1 505 -1 505 0 505 c 2,196,-1
 105 505 l 2,136,137
EndSplineSet
EndChar

StartChar: four
Encoding: 52 52 13
Width: 542
GlyphClass: 1
Flags: W
LayerCount: 2
Fore
SplineSet
358 337 m 1,0,-1
 358 337 l 1,1,-1
 253 337 l 1,2,-1
 253 441 l 1,3,-1
 358 441 l 1,4,-1
 358 337 l 1,0,-1
358 421 m 1,5,-1
 358 526 l 1,6,-1
 253 526 l 1,7,-1
 253 421 l 1,8,-1
 358 421 l 1,9,-1
 358 421 l 1,5,-1
358 506 m 1,10,-1
 358 506 l 1,11,-1
 253 506 l 1,12,-1
 253 610 l 1,13,-1
 358 610 l 1,14,-1
 358 506 l 1,10,-1
358 590 m 1,15,-1
 358 590 l 1,16,-1
 253 590 l 1,17,-1
 253 694 l 1,18,-1
 358 694 l 1,19,-1
 358 590 l 1,15,-1
274 506 m 1,20,-1
 274 610 l 1,21,-1
 169 610 l 1,22,-1
 169 506 l 1,23,-1
 274 506 l 1,24,-1
 274 506 l 1,20,-1
189 421 m 1,25,-1
 189 421 l 1,26,-1
 85 421 l 1,27,-1
 85 526 l 1,28,-1
 189 526 l 1,29,-1
 189 421 l 1,25,-1
442 253 m 1,30,-1
 442 253 l 1,31,-1
 338 253 l 1,32,-1
 338 357 l 1,33,-1
 442 357 l 1,34,-1
 442 253 l 1,30,-1
274 253 m 1,35,-1
 274 253 l 1,36,-1
 169 253 l 1,37,-1
 169 357 l 1,38,-1
 274 357 l 1,39,-1
 274 253 l 1,35,-1
189 253 m 1,40,-1
 189 357 l 1,41,-1
 85 357 l 1,42,-1
 85 253 l 1,43,-1
 189 253 l 1,44,-1
 189 253 l 1,40,-1
358 253 m 1,45,-1
 358 357 l 1,46,-1
 253 357 l 1,47,-1
 253 253 l 1,48,-1
 358 253 l 1,49,-1
 358 253 l 1,45,-1
105 337 m 1,50,-1
 105 441 l 1,51,-1
 0 441 l 1,52,-1
 0 337 l 1,53,-1
 105 337 l 1,54,-1
 105 337 l 1,50,-1
105 253 m 1,55,-1
 105 253 l 1,56,-1
 0 253 l 1,57,-1
 0 357 l 1,58,-1
 105 357 l 1,59,-1
 105 253 l 1,55,-1
358 84 m 1,60,-1
 358 188 l 1,61,-1
 253 188 l 1,62,-1
 253 84 l 1,63,-1
 358 84 l 1,64,-1
 358 84 l 1,60,-1
358 168 m 1,65,-1
 358 168 l 1,66,-1
 253 168 l 1,67,-1
 253 273 l 1,68,-1
 358 273 l 1,69,-1
 358 168 l 1,65,-1
358 0 m 1,70,-1
 358 0 l 1,71,-1
 253 0 l 1,72,-1
 253 104 l 1,73,-1
 358 104 l 1,74,-1
 358 0 l 1,70,-1
358 -1 m 2,75,-1
 253 -1 l 2,76,77
 252 -1 252 -1 252 0 c 2,78,-1
 252 252 l 1,79,-1
 0 252 l 2,80,81
 -1 252 -1 252 -1 253 c 2,82,-1
 -1 441 l 2,83,84
 -1 442 -1 442 0 442 c 2,85,-1
 84 442 l 1,86,-1
 84 526 l 2,87,88
 84 527 84 527 85 527 c 2,89,-1
 168 527 l 1,90,-1
 168 610 l 2,91,92
 168 611 168 611 169 611 c 2,93,-1
 252 611 l 1,94,-1
 252 694 l 2,95,96
 252 695 252 695 253 695 c 2,97,-1
 358 695 l 2,98,99
 359 695 359 695 359 694 c 2,100,-1
 359 358 l 1,101,-1
 442 358 l 2,102,103
 443 358 443 358 443 357 c 2,104,-1
 443 253 l 2,105,106
 443 252 443 252 442 252 c 2,107,-1
 359 252 l 1,108,-1
 359 0 l 2,109,110
 359 -1 359 -1 358 -1 c 2,75,-1
106 358 m 1,111,-1
 106 420 l 1,112,-1
 189 420 l 2,113,114
 190 420 190 420 190 421 c 2,115,-1
 190 505 l 1,116,-1
 252 505 l 1,117,-1
 252 358 l 1,118,-1
 106 358 l 1,111,-1
358 -1 m 2,119,120
 359 -1 359 -1 359 0 c 2,121,-1
 359 252 l 1,122,-1
 442 252 l 2,123,124
 443 252 443 252 443 253 c 2,125,-1
 443 357 l 2,126,127
 443 358 443 358 442 358 c 2,128,-1
 359 358 l 1,129,-1
 359 694 l 2,130,131
 359 695 359 695 358 695 c 2,132,-1
 253 695 l 2,133,134
 252 695 252 695 252 694 c 2,135,-1
 252 611 l 1,136,-1
 169 611 l 2,137,138
 168 611 168 611 168 610 c 2,139,-1
 168 527 l 1,140,-1
 85 527 l 2,141,142
 84 527 84 527 84 526 c 2,143,-1
 84 442 l 1,144,-1
 0 442 l 2,145,146
 -1 442 -1 442 -1 441 c 2,147,-1
 -1 253 l 2,148,149
 -1 252 -1 252 0 252 c 2,150,-1
 252 252 l 1,151,-1
 252 0 l 2,152,153
 252 -1 252 -1 253 -1 c 2,154,-1
 358 -1 l 2,119,120
106 358 m 1,155,-1
 252 358 l 1,156,-1
 252 505 l 1,157,-1
 190 505 l 1,158,-1
 190 421 l 2,159,160
 190 420 190 420 189 420 c 2,161,-1
 106 420 l 1,162,-1
 106 358 l 1,155,-1
EndSplineSet
EndChar

StartChar: five
Encoding: 53 53 14
Width: 542
GlyphClass: 1
Flags: W
LayerCount: 2
Fore
SplineSet
105 0 m 1,0,-1
 105 0 l 1,1,-1
 0 0 l 1,2,-1
 0 104 l 1,3,-1
 105 104 l 1,4,-1
 105 0 l 1,0,-1
442 590 m 1,5,-1
 442 694 l 1,6,-1
 338 694 l 1,7,-1
 338 590 l 1,8,-1
 442 590 l 1,9,-1
 442 590 l 1,5,-1
358 590 m 1,10,-1
 358 590 l 1,11,-1
 253 590 l 1,12,-1
 253 694 l 1,13,-1
 358 694 l 1,14,-1
 358 590 l 1,10,-1
274 590 m 1,15,-1
 274 694 l 1,16,-1
 169 694 l 1,17,-1
 169 590 l 1,18,-1
 274 590 l 1,19,-1
 274 590 l 1,15,-1
189 590 m 1,20,-1
 189 590 l 1,21,-1
 85 590 l 1,22,-1
 85 694 l 1,23,-1
 189 694 l 1,24,-1
 189 590 l 1,20,-1
105 506 m 1,25,-1
 105 506 l 1,26,-1
 0 506 l 1,27,-1
 0 610 l 1,28,-1
 105 610 l 1,29,-1
 105 506 l 1,25,-1
105 590 m 1,30,-1
 105 694 l 1,31,-1
 0 694 l 1,32,-1
 0 590 l 1,33,-1
 105 590 l 1,34,-1
 105 590 l 1,30,-1
105 421 m 1,35,-1
 105 526 l 1,36,-1
 0 526 l 1,37,-1
 0 421 l 1,38,-1
 105 421 l 1,39,-1
 105 421 l 1,35,-1
105 337 m 1,40,-1
 105 337 l 1,41,-1
 0 337 l 1,42,-1
 0 441 l 1,43,-1
 105 441 l 1,44,-1
 105 337 l 1,40,-1
189 337 m 1,45,-1
 189 441 l 1,46,-1
 85 441 l 1,47,-1
 85 337 l 1,48,-1
 189 337 l 1,49,-1
 189 337 l 1,45,-1
274 337 m 1,50,-1
 274 337 l 1,51,-1
 169 337 l 1,52,-1
 169 441 l 1,53,-1
 274 441 l 1,54,-1
 274 337 l 1,50,-1
358 337 m 1,55,-1
 358 441 l 1,56,-1
 253 441 l 1,57,-1
 253 337 l 1,58,-1
 358 337 l 1,59,-1
 358 337 l 1,55,-1
442 168 m 1,60,-1
 442 273 l 1,61,-1
 338 273 l 1,62,-1
 338 168 l 1,63,-1
 442 168 l 1,64,-1
 442 168 l 1,60,-1
442 253 m 1,65,-1
 442 253 l 1,66,-1
 338 253 l 1,67,-1
 338 357 l 1,68,-1
 442 357 l 1,69,-1
 442 253 l 1,65,-1
442 84 m 1,70,-1
 442 84 l 1,71,-1
 338 84 l 1,72,-1
 338 188 l 1,73,-1
 442 188 l 1,74,-1
 442 84 l 1,70,-1
189 0 m 1,75,-1
 189 104 l 1,76,-1
 85 104 l 1,77,-1
 85 0 l 1,78,-1
 189 0 l 1,79,-1
 189 0 l 1,75,-1
274 0 m 1,80,-1
 274 0 l 1,81,-1
 169 0 l 1,82,-1
 169 104 l 1,83,-1
 274 104 l 1,84,-1
 274 0 l 1,80,-1
358 0 m 1,85,-1
 358 104 l 1,86,-1
 253 104 l 1,87,-1
 253 0 l 1,88,-1
 358 0 l 1,89,-1
 358 0 l 1,85,-1
0 105 m 2,90,-1
 337 105 l 1,91,-1
 337 336 l 1,92,-1
 0 336 l 2,93,94
 -1 336 -1 336 -1 337 c 2,95,-1
 -1 694 l 2,96,97
 -1 695 -1 695 0 695 c 2,98,-1
 442 695 l 2,99,100
 443 695 443 695 443 694 c 2,101,-1
 443 590 l 2,102,103
 443 589 443 589 442 589 c 2,104,-1
 106 589 l 1,105,-1
 106 442 l 1,106,-1
 358 442 l 2,107,108
 359 442 359 442 359 441 c 2,109,-1
 359 358 l 1,110,-1
 442 358 l 2,111,112
 443 358 443 358 443 357 c 2,113,-1
 443 84 l 2,114,115
 443 83 443 83 442 83 c 2,116,-1
 359 83 l 1,117,-1
 359 0 l 2,118,119
 359 -1 359 -1 358 -1 c 2,120,-1
 0 -1 l 2,121,122
 -1 -1 -1 -1 -1 0 c 2,123,-1
 -1 104 l 2,124,125
 -1 105 -1 105 0 105 c 2,90,-1
0 105 m 2,126,127
 -1 105 -1 105 -1 104 c 2,128,-1
 -1 0 l 2,129,130
 -1 -1 -1 -1 0 -1 c 2,131,-1
 358 -1 l 2,132,133
 359 -1 359 -1 359 0 c 2,134,-1
 359 83 l 1,135,-1
 442 83 l 2,136,137
 443 83 443 83 443 84 c 2,138,-1
 443 357 l 2,139,140
 443 358 443 358 442 358 c 2,141,-1
 359 358 l 1,142,-1
 359 441 l 2,143,144
 359 442 359 442 358 442 c 2,145,-1
 106 442 l 1,146,-1
 106 589 l 1,147,-1
 442 589 l 2,148,149
 443 589 443 589 443 590 c 2,150,-1
 443 694 l 2,151,152
 443 695 443 695 442 695 c 2,153,-1
 0 695 l 2,154,155
 -1 695 -1 695 -1 694 c 2,156,-1
 -1 337 l 2,157,158
 -1 336 -1 336 0 336 c 2,159,-1
 337 336 l 1,160,-1
 337 105 l 1,161,-1
 0 105 l 2,126,127
EndSplineSet
EndChar

StartChar: six
Encoding: 54 54 15
Width: 542
GlyphClass: 1
Flags: W
LayerCount: 2
Fore
SplineSet
358 590 m 1,0,-1
 358 694 l 1,1,-1
 253 694 l 1,2,-1
 253 590 l 1,3,-1
 358 590 l 1,4,-1
 358 590 l 1,0,-1
274 590 m 1,5,-1
 274 590 l 1,6,-1
 169 590 l 1,7,-1
 169 694 l 1,8,-1
 274 694 l 1,9,-1
 274 590 l 1,5,-1
442 253 m 1,10,-1
 442 357 l 1,11,-1
 338 357 l 1,12,-1
 338 253 l 1,13,-1
 442 253 l 1,14,-1
 442 253 l 1,10,-1
442 168 m 1,15,-1
 442 168 l 1,16,-1
 338 168 l 1,17,-1
 338 273 l 1,18,-1
 442 273 l 1,19,-1
 442 168 l 1,15,-1
358 337 m 1,20,-1
 358 337 l 1,21,-1
 253 337 l 1,22,-1
 253 441 l 1,23,-1
 358 441 l 1,24,-1
 358 337 l 1,20,-1
274 337 m 1,25,-1
 274 441 l 1,26,-1
 169 441 l 1,27,-1
 169 337 l 1,28,-1
 274 337 l 1,29,-1
 274 337 l 1,25,-1
189 337 m 1,30,-1
 189 337 l 1,31,-1
 85 337 l 1,32,-1
 85 441 l 1,33,-1
 189 441 l 1,34,-1
 189 337 l 1,30,-1
189 506 m 1,35,-1
 189 610 l 1,36,-1
 85 610 l 1,37,-1
 85 506 l 1,38,-1
 189 506 l 1,39,-1
 189 506 l 1,35,-1
105 421 m 1,40,-1
 105 421 l 1,41,-1
 0 421 l 1,42,-1
 0 526 l 1,43,-1
 105 526 l 1,44,-1
 105 421 l 1,40,-1
105 84 m 1,45,-1
 105 84 l 1,46,-1
 0 84 l 1,47,-1
 0 188 l 1,48,-1
 105 188 l 1,49,-1
 105 84 l 1,45,-1
105 168 m 1,50,-1
 105 273 l 1,51,-1
 0 273 l 1,52,-1
 0 168 l 1,53,-1
 105 168 l 1,54,-1
 105 168 l 1,50,-1
105 253 m 1,55,-1
 105 253 l 1,56,-1
 0 253 l 1,57,-1
 0 357 l 1,58,-1
 105 357 l 1,59,-1
 105 253 l 1,55,-1
105 337 m 1,60,-1
 105 441 l 1,61,-1
 0 441 l 1,62,-1
 0 337 l 1,63,-1
 105 337 l 1,64,-1
 105 337 l 1,60,-1
442 84 m 1,65,-1
 442 188 l 1,66,-1
 338 188 l 1,67,-1
 338 84 l 1,68,-1
 442 84 l 1,69,-1
 442 84 l 1,65,-1
358 0 m 1,70,-1
 358 0 l 1,71,-1
 253 0 l 1,72,-1
 253 104 l 1,73,-1
 358 104 l 1,74,-1
 358 0 l 1,70,-1
274 0 m 1,75,-1
 274 104 l 1,76,-1
 169 104 l 1,77,-1
 169 0 l 1,78,-1
 274 0 l 1,79,-1
 274 0 l 1,75,-1
189 0 m 1,80,-1
 189 0 l 1,81,-1
 85 0 l 1,82,-1
 85 104 l 1,83,-1
 189 104 l 1,84,-1
 189 0 l 1,80,-1
106 105 m 1,85,-1
 106 336 l 1,86,-1
 337 336 l 1,87,-1
 337 105 l 1,88,-1
 106 105 l 1,85,-1
358 -1 m 2,89,-1
 85 -1 l 2,90,91
 84 -1 84 -1 84 0 c 2,92,-1
 84 83 l 1,93,-1
 0 83 l 2,94,95
 -1 83 -1 83 -1 84 c 2,96,-1
 -1 526 l 2,97,98
 -1 527 -1 527 0 527 c 2,99,-1
 84 527 l 1,100,-1
 84 610 l 2,101,102
 84 611 84 611 85 611 c 2,103,-1
 168 611 l 1,104,-1
 168 694 l 2,105,106
 168 695 168 695 169 695 c 2,107,-1
 358 695 l 2,108,109
 359 695 359 695 359 694 c 2,110,-1
 359 590 l 2,111,112
 359 589 359 589 358 589 c 2,113,-1
 190 589 l 1,114,-1
 190 506 l 2,115,116
 190 505 190 505 189 505 c 2,117,-1
 106 505 l 1,118,-1
 106 442 l 1,119,-1
 358 442 l 2,120,121
 359 442 359 442 359 441 c 2,122,-1
 359 358 l 1,123,-1
 442 358 l 2,124,125
 443 358 443 358 443 357 c 2,126,-1
 443 84 l 2,127,128
 443 83 443 83 442 83 c 2,129,-1
 359 83 l 1,130,-1
 359 0 l 2,131,132
 359 -1 359 -1 358 -1 c 2,89,-1
106 105 m 1,133,-1
 337 105 l 1,134,-1
 337 336 l 1,135,-1
 106 336 l 1,136,-1
 106 105 l 1,133,-1
358 -1 m 2,137,138
 359 -1 359 -1 359 0 c 2,139,-1
 359 83 l 1,140,-1
 442 83 l 2,141,142
 443 83 443 83 443 84 c 2,143,-1
 443 357 l 2,144,145
 443 358 443 358 442 358 c 2,146,-1
 359 358 l 1,147,-1
 359 441 l 2,148,149
 359 442 359 442 358 442 c 2,150,-1
 106 442 l 1,151,-1
 106 505 l 1,152,-1
 189 505 l 2,153,154
 190 505 190 505 190 506 c 2,155,-1
 190 589 l 1,156,-1
 358 589 l 2,157,158
 359 589 359 589 359 590 c 2,159,-1
 359 694 l 2,160,161
 359 695 359 695 358 695 c 2,162,-1
 169 695 l 2,163,164
 168 695 168 695 168 694 c 2,165,-1
 168 611 l 1,166,-1
 85 611 l 2,167,168
 84 611 84 611 84 610 c 2,169,-1
 84 527 l 1,170,-1
 0 527 l 2,171,172
 -1 527 -1 527 -1 526 c 2,173,-1
 -1 84 l 2,174,175
 -1 83 -1 83 0 83 c 2,176,-1
 84 83 l 1,177,-1
 84 0 l 2,178,179
 84 -1 84 -1 85 -1 c 2,180,-1
 358 -1 l 2,137,138
EndSplineSet
EndChar

StartChar: seven
Encoding: 55 55 16
Width: 542
GlyphClass: 1
Flags: W
LayerCount: 2
Fore
SplineSet
358 590 m 1,0,-1
 358 694 l 1,1,-1
 253 694 l 1,2,-1
 253 590 l 1,3,-1
 358 590 l 1,4,-1
 358 590 l 1,0,-1
442 590 m 1,5,-1
 442 590 l 1,6,-1
 338 590 l 1,7,-1
 338 694 l 1,8,-1
 442 694 l 1,9,-1
 442 590 l 1,5,-1
274 590 m 1,10,-1
 274 590 l 1,11,-1
 169 590 l 1,12,-1
 169 694 l 1,13,-1
 274 694 l 1,14,-1
 274 590 l 1,10,-1
189 590 m 1,15,-1
 189 694 l 1,16,-1
 85 694 l 1,17,-1
 85 590 l 1,18,-1
 189 590 l 1,19,-1
 189 590 l 1,15,-1
442 506 m 1,20,-1
 442 506 l 1,21,-1
 338 506 l 1,22,-1
 338 610 l 1,23,-1
 442 610 l 1,24,-1
 442 506 l 1,20,-1
442 421 m 1,25,-1
 442 526 l 1,26,-1
 338 526 l 1,27,-1
 338 421 l 1,28,-1
 442 421 l 1,29,-1
 442 421 l 1,25,-1
105 590 m 1,30,-1
 105 590 l 1,31,-1
 0 590 l 1,32,-1
 0 694 l 1,33,-1
 105 694 l 1,34,-1
 105 590 l 1,30,-1
358 337 m 1,35,-1
 358 337 l 1,36,-1
 253 337 l 1,37,-1
 253 441 l 1,38,-1
 358 441 l 1,39,-1
 358 337 l 1,35,-1
358 253 m 1,40,-1
 358 357 l 1,41,-1
 253 357 l 1,42,-1
 253 253 l 1,43,-1
 358 253 l 1,44,-1
 358 253 l 1,40,-1
274 168 m 1,45,-1
 274 168 l 1,46,-1
 169 168 l 1,47,-1
 169 273 l 1,48,-1
 274 273 l 1,49,-1
 274 168 l 1,45,-1
274 84 m 1,50,-1
 274 188 l 1,51,-1
 169 188 l 1,52,-1
 169 84 l 1,53,-1
 274 84 l 1,54,-1
 274 84 l 1,50,-1
274 0 m 1,55,-1
 274 0 l 1,56,-1
 169 0 l 1,57,-1
 169 104 l 1,58,-1
 274 104 l 1,59,-1
 274 0 l 1,55,-1
274 -1 m 2,60,-1
 169 -1 l 2,61,62
 168 -1 168 -1 168 0 c 2,63,-1
 168 273 l 2,64,65
 168 274 168 274 169 274 c 2,66,-1
 252 274 l 1,67,-1
 252 441 l 2,68,69
 252 442 252 442 253 442 c 2,70,-1
 337 442 l 1,71,-1
 337 589 l 1,72,-1
 0 589 l 2,73,74
 -1 589 -1 589 -1 590 c 2,75,-1
 -1 694 l 2,76,77
 -1 695 -1 695 0 695 c 2,78,-1
 442 695 l 2,79,80
 443 695 443 695 443 694 c 2,81,-1
 443 421 l 2,82,83
 443 420 443 420 442 420 c 2,84,-1
 359 420 l 1,85,-1
 359 253 l 2,86,87
 359 252 359 252 358 252 c 2,88,-1
 275 252 l 1,89,-1
 275 0 l 2,90,91
 275 -1 275 -1 274 -1 c 2,60,-1
274 -1 m 2,92,93
 275 -1 275 -1 275 0 c 2,94,-1
 275 252 l 1,95,-1
 358 252 l 2,96,97
 359 252 359 252 359 253 c 2,98,-1
 359 420 l 1,99,-1
 442 420 l 2,100,101
 443 420 443 420 443 421 c 2,102,-1
 443 694 l 2,103,104
 443 695 443 695 442 695 c 2,105,-1
 0 695 l 2,106,107
 -1 695 -1 695 -1 694 c 2,108,-1
 -1 590 l 2,109,110
 -1 589 -1 589 0 589 c 2,111,-1
 337 589 l 1,112,-1
 337 442 l 1,113,-1
 253 442 l 2,114,115
 252 442 252 442 252 441 c 2,116,-1
 252 274 l 1,117,-1
 169 274 l 2,118,119
 168 274 168 274 168 273 c 2,120,-1
 168 0 l 2,121,122
 168 -1 168 -1 169 -1 c 2,123,-1
 274 -1 l 2,92,93
EndSplineSet
EndChar

StartChar: eight
Encoding: 56 56 17
Width: 542
GlyphClass: 1
Flags: W
LayerCount: 2
Fore
SplineSet
358 590 m 1,0,-1
 358 590 l 1,1,-1
 253 590 l 1,2,-1
 253 694 l 1,3,-1
 358 694 l 1,4,-1
 358 590 l 1,0,-1
274 590 m 1,5,-1
 274 694 l 1,6,-1
 169 694 l 1,7,-1
 169 590 l 1,8,-1
 274 590 l 1,9,-1
 274 590 l 1,5,-1
442 421 m 1,10,-1
 442 421 l 1,11,-1
 338 421 l 1,12,-1
 338 526 l 1,13,-1
 442 526 l 1,14,-1
 442 421 l 1,10,-1
442 506 m 1,15,-1
 442 610 l 1,16,-1
 338 610 l 1,17,-1
 338 506 l 1,18,-1
 442 506 l 1,19,-1
 442 506 l 1,15,-1
189 590 m 1,20,-1
 189 590 l 1,21,-1
 85 590 l 1,22,-1
 85 694 l 1,23,-1
 189 694 l 1,24,-1
 189 590 l 1,20,-1
274 337 m 1,25,-1
 274 337 l 1,26,-1
 169 337 l 1,27,-1
 169 441 l 1,28,-1
 274 441 l 1,29,-1
 274 337 l 1,25,-1
358 337 m 1,30,-1
 358 441 l 1,31,-1
 253 441 l 1,32,-1
 253 337 l 1,33,-1
 358 337 l 1,34,-1
 358 337 l 1,30,-1
189 337 m 1,35,-1
 189 441 l 1,36,-1
 85 441 l 1,37,-1
 85 337 l 1,38,-1
 189 337 l 1,39,-1
 189 337 l 1,35,-1
442 253 m 1,40,-1
 442 357 l 1,41,-1
 338 357 l 1,42,-1
 338 253 l 1,43,-1
 442 253 l 1,44,-1
 442 253 l 1,40,-1
442 168 m 1,45,-1
 442 168 l 1,46,-1
 338 168 l 1,47,-1
 338 273 l 1,48,-1
 442 273 l 1,49,-1
 442 168 l 1,45,-1
105 506 m 1,50,-1
 105 610 l 1,51,-1
 0 610 l 1,52,-1
 0 506 l 1,53,-1
 105 506 l 1,54,-1
 105 506 l 1,50,-1
105 421 m 1,55,-1
 105 421 l 1,56,-1
 0 421 l 1,57,-1
 0 526 l 1,58,-1
 105 526 l 1,59,-1
 105 421 l 1,55,-1
105 253 m 1,60,-1
 105 253 l 1,61,-1
 0 253 l 1,62,-1
 0 357 l 1,63,-1
 105 357 l 1,64,-1
 105 253 l 1,60,-1
105 168 m 1,65,-1
 105 273 l 1,66,-1
 0 273 l 1,67,-1
 0 168 l 1,68,-1
 105 168 l 1,69,-1
 105 168 l 1,65,-1
105 84 m 1,70,-1
 105 84 l 1,71,-1
 0 84 l 1,72,-1
 0 188 l 1,73,-1
 105 188 l 1,74,-1
 105 84 l 1,70,-1
442 84 m 1,75,-1
 442 188 l 1,76,-1
 338 188 l 1,77,-1
 338 84 l 1,78,-1
 442 84 l 1,79,-1
 442 84 l 1,75,-1
358 0 m 1,80,-1
 358 0 l 1,81,-1
 253 0 l 1,82,-1
 253 104 l 1,83,-1
 358 104 l 1,84,-1
 358 0 l 1,80,-1
274 0 m 1,85,-1
 274 104 l 1,86,-1
 169 104 l 1,87,-1
 169 0 l 1,88,-1
 274 0 l 1,89,-1
 274 0 l 1,85,-1
189 0 m 1,90,-1
 189 0 l 1,91,-1
 85 0 l 1,92,-1
 85 104 l 1,93,-1
 189 104 l 1,94,-1
 189 0 l 1,90,-1
106 105 m 1,95,-1
 106 336 l 1,96,-1
 337 336 l 1,97,-1
 337 105 l 1,98,-1
 106 105 l 1,95,-1
358 -1 m 2,99,-1
 85 -1 l 2,100,101
 84 -1 84 -1 84 0 c 2,102,-1
 84 83 l 1,103,-1
 0 83 l 2,104,105
 -1 83 -1 83 -1 84 c 2,106,-1
 -1 357 l 2,107,108
 -1 358 -1 358 0 358 c 2,109,-1
 84 358 l 1,110,-1
 84 420 l 1,111,-1
 0 420 l 2,112,113
 -1 420 -1 420 -1 421 c 2,114,-1
 -1 610 l 2,115,116
 -1 611 -1 611 0 611 c 2,117,-1
 84 611 l 1,118,-1
 84 694 l 2,119,120
 84 695 84 695 85 695 c 2,121,-1
 358 695 l 2,122,123
 359 695 359 695 359 694 c 2,124,-1
 359 611 l 1,125,-1
 442 611 l 2,126,127
 443 611 443 611 443 610 c 2,128,-1
 443 421 l 2,129,130
 443 420 443 420 442 420 c 2,131,-1
 359 420 l 1,132,-1
 359 358 l 1,133,-1
 442 358 l 2,134,135
 443 358 443 358 443 357 c 2,136,-1
 443 84 l 2,137,138
 443 83 443 83 442 83 c 2,139,-1
 359 83 l 1,140,-1
 359 0 l 2,141,142
 359 -1 359 -1 358 -1 c 2,99,-1
106 589 m 1,143,-1
 337 589 l 1,144,-1
 337 442 l 1,145,-1
 106 442 l 1,146,-1
 106 589 l 1,143,-1
106 105 m 1,147,-1
 337 105 l 1,148,-1
 337 336 l 1,149,-1
 106 336 l 1,150,-1
 106 105 l 1,147,-1
358 -1 m 2,151,152
 359 -1 359 -1 359 0 c 2,153,-1
 359 83 l 1,154,-1
 442 83 l 2,155,156
 443 83 443 83 443 84 c 2,157,-1
 443 357 l 2,158,159
 443 358 443 358 442 358 c 2,160,-1
 359 358 l 1,161,-1
 359 420 l 1,162,-1
 442 420 l 2,163,164
 443 420 443 420 443 421 c 2,165,-1
 443 610 l 2,166,167
 443 611 443 611 442 611 c 2,168,-1
 359 611 l 1,169,-1
 359 694 l 2,170,171
 359 695 359 695 358 695 c 2,172,-1
 85 695 l 2,173,174
 84 695 84 695 84 694 c 2,175,-1
 84 611 l 1,176,-1
 0 611 l 2,177,178
 -1 611 -1 611 -1 610 c 2,179,-1
 -1 421 l 2,180,181
 -1 420 -1 420 0 420 c 2,182,-1
 84 420 l 1,183,-1
 84 358 l 1,184,-1
 0 358 l 2,185,186
 -1 358 -1 358 -1 357 c 2,187,-1
 -1 84 l 2,188,189
 -1 83 -1 83 0 83 c 2,190,-1
 84 83 l 1,191,-1
 84 0 l 2,192,193
 84 -1 84 -1 85 -1 c 2,194,-1
 358 -1 l 2,151,152
106 589 m 1,195,-1
 106 442 l 1,196,-1
 337 442 l 1,197,-1
 337 589 l 1,198,-1
 106 589 l 1,195,-1
EndSplineSet
EndChar

StartChar: nine
Encoding: 57 57 18
Width: 542
GlyphClass: 1
Flags: W
LayerCount: 2
Fore
SplineSet
274 590 m 1,0,-1
 274 590 l 1,1,-1
 169 590 l 1,2,-1
 169 694 l 1,3,-1
 274 694 l 1,4,-1
 274 590 l 1,0,-1
442 421 m 1,5,-1
 442 421 l 1,6,-1
 338 421 l 1,7,-1
 338 526 l 1,8,-1
 442 526 l 1,9,-1
 442 421 l 1,5,-1
358 590 m 1,10,-1
 358 694 l 1,11,-1
 253 694 l 1,12,-1
 253 590 l 1,13,-1
 358 590 l 1,14,-1
 358 590 l 1,10,-1
442 337 m 1,15,-1
 442 441 l 1,16,-1
 338 441 l 1,17,-1
 338 337 l 1,18,-1
 442 337 l 1,19,-1
 442 337 l 1,15,-1
442 506 m 1,20,-1
 442 610 l 1,21,-1
 338 610 l 1,22,-1
 338 506 l 1,23,-1
 442 506 l 1,24,-1
 442 506 l 1,20,-1
189 590 m 1,25,-1
 189 694 l 1,26,-1
 85 694 l 1,27,-1
 85 590 l 1,28,-1
 189 590 l 1,29,-1
 189 590 l 1,25,-1
105 506 m 1,30,-1
 105 506 l 1,31,-1
 0 506 l 1,32,-1
 0 610 l 1,33,-1
 105 610 l 1,34,-1
 105 506 l 1,30,-1
105 421 m 1,35,-1
 105 526 l 1,36,-1
 0 526 l 1,37,-1
 0 421 l 1,38,-1
 105 421 l 1,39,-1
 105 421 l 1,35,-1
105 337 m 1,40,-1
 105 337 l 1,41,-1
 0 337 l 1,42,-1
 0 441 l 1,43,-1
 105 441 l 1,44,-1
 105 337 l 1,40,-1
442 253 m 1,45,-1
 442 253 l 1,46,-1
 338 253 l 1,47,-1
 338 357 l 1,48,-1
 442 357 l 1,49,-1
 442 253 l 1,45,-1
274 253 m 1,50,-1
 274 357 l 1,51,-1
 169 357 l 1,52,-1
 169 253 l 1,53,-1
 274 253 l 1,54,-1
 274 253 l 1,50,-1
358 253 m 1,55,-1
 358 253 l 1,56,-1
 253 253 l 1,57,-1
 253 357 l 1,58,-1
 358 357 l 1,59,-1
 358 253 l 1,55,-1
189 253 m 1,60,-1
 189 253 l 1,61,-1
 85 253 l 1,62,-1
 85 357 l 1,63,-1
 189 357 l 1,64,-1
 189 253 l 1,60,-1
442 168 m 1,65,-1
 442 273 l 1,66,-1
 338 273 l 1,67,-1
 338 168 l 1,68,-1
 442 168 l 1,69,-1
 442 168 l 1,65,-1
358 84 m 1,70,-1
 358 84 l 1,71,-1
 253 84 l 1,72,-1
 253 188 l 1,73,-1
 358 188 l 1,74,-1
 358 84 l 1,70,-1
274 0 m 1,75,-1
 274 104 l 1,76,-1
 169 104 l 1,77,-1
 169 0 l 1,78,-1
 274 0 l 1,79,-1
 274 0 l 1,75,-1
189 0 m 1,80,-1
 189 0 l 1,81,-1
 85 0 l 1,82,-1
 85 104 l 1,83,-1
 189 104 l 1,84,-1
 189 0 l 1,80,-1
252 105 m 1,85,-1
 252 188 l 2,86,87
 252 189 252 189 253 189 c 2,88,-1
 337 189 l 1,89,-1
 337 252 l 1,90,-1
 85 252 l 2,91,92
 84 252 84 252 84 253 c 2,93,-1
 84 336 l 1,94,-1
 0 336 l 2,95,96
 -1 336 -1 336 -1 337 c 2,97,-1
 -1 610 l 2,98,99
 -1 611 -1 611 0 611 c 2,100,-1
 84 611 l 1,101,-1
 84 694 l 2,102,103
 84 695 84 695 85 695 c 2,104,-1
 358 695 l 2,105,106
 359 695 359 695 359 694 c 2,107,-1
 359 611 l 1,108,-1
 442 611 l 2,109,110
 443 611 443 611 443 610 c 2,111,-1
 443 168 l 2,112,113
 443 167 443 167 442 167 c 2,114,-1
 359 167 l 1,115,-1
 359 84 l 2,116,117
 359 83 359 83 358 83 c 2,118,-1
 275 83 l 1,119,-1
 275 0 l 2,120,121
 275 -1 275 -1 274 -1 c 2,122,-1
 85 -1 l 2,123,124
 84 -1 84 -1 84 0 c 2,125,-1
 84 104 l 2,126,127
 84 105 84 105 85 105 c 2,128,-1
 252 105 l 1,85,-1
106 358 m 1,129,-1
 106 589 l 1,130,-1
 337 589 l 1,131,-1
 337 358 l 1,132,-1
 106 358 l 1,129,-1
252 105 m 1,133,-1
 85 105 l 2,134,135
 84 105 84 105 84 104 c 2,136,-1
 84 0 l 2,137,138
 84 -1 84 -1 85 -1 c 2,139,-1
 274 -1 l 2,140,141
 275 -1 275 -1 275 0 c 2,142,-1
 275 83 l 1,143,-1
 358 83 l 2,144,145
 359 83 359 83 359 84 c 2,146,-1
 359 167 l 1,147,-1
 442 167 l 2,148,149
 443 167 443 167 443 168 c 2,150,-1
 443 610 l 2,151,152
 443 611 443 611 442 611 c 2,153,-1
 359 611 l 1,154,-1
 359 694 l 2,155,156
 359 695 359 695 358 695 c 2,157,-1
 85 695 l 2,158,159
 84 695 84 695 84 694 c 2,160,-1
 84 611 l 1,161,-1
 0 611 l 2,162,163
 -1 611 -1 611 -1 610 c 2,164,-1
 -1 337 l 2,165,166
 -1 336 -1 336 0 336 c 2,167,-1
 84 336 l 1,168,-1
 84 253 l 2,169,170
 84 252 84 252 85 252 c 2,171,-1
 337 252 l 1,172,-1
 337 189 l 1,173,-1
 253 189 l 2,174,175
 252 189 252 189 252 188 c 2,176,-1
 252 105 l 1,133,-1
106 358 m 1,177,-1
 337 358 l 1,178,-1
 337 589 l 1,179,-1
 106 589 l 1,180,-1
 106 358 l 1,177,-1
EndSplineSet
EndChar

StartChar: colon
Encoding: 58 58 19
Width: 205
GlyphClass: 1
Flags: W
LayerCount: 2
Fore
SplineSet
106 0 m 1,0,-1
 106 0 l 1,1,-1
 1 0 l 1,2,-1
 1 104 l 1,3,-1
 106 104 l 1,4,-1
 106 0 l 1,0,-1
106 421 m 1,5,-1
 106 421 l 1,6,-1
 1 421 l 1,7,-1
 1 526 l 1,8,-1
 106 526 l 1,9,-1
 106 421 l 1,5,-1
106 420 m 2,10,-1
 1 420 l 2,11,12
 0 420 0 420 1.11022302463e-16 421 c 2,13,-1
 1.11022302463e-16 526 l 2,14,15
 1.11022302463e-16 527 1.11022302463e-16 527 1 527 c 2,16,-1
 106 527 l 2,17,18
 107 527 107 527 107 526 c 2,19,-1
 107 421 l 2,20,21
 107 420 107 420 106 420 c 2,10,-1
106 -1 m 2,22,-1
 1 -1 l 2,23,24
 0 -1 0 -1 1.11022302463e-16 0 c 2,25,-1
 1.11022302463e-16 104 l 2,26,27
 1.11022302463e-16 105 1.11022302463e-16 105 1 105 c 2,28,-1
 106 105 l 2,29,30
 107 105 107 105 107 104 c 2,31,-1
 107 0 l 2,32,33
 107 -1 107 -1 106 -1 c 2,22,-1
106 420 m 2,34,35
 107 420 107 420 107 421 c 2,36,-1
 107 526 l 2,37,38
 107 527 107 527 106 527 c 2,39,-1
 1 527 l 2,40,41
 1.11022302463e-16 527 1.11022302463e-16 527 1.11022302463e-16 526 c 2,42,-1
 1.11022302463e-16 421 l 2,43,44
 0 420 0 420 1 420 c 2,45,-1
 106 420 l 2,34,35
106 -1 m 2,46,47
 107 -1 107 -1 107 0 c 2,48,-1
 107 104 l 2,49,50
 107 105 107 105 106 105 c 2,51,-1
 1 105 l 2,52,53
 1.11022302463e-16 105 1.11022302463e-16 105 1.11022302463e-16 104 c 2,54,-1
 1.11022302463e-16 0 l 2,55,56
 0 -1 0 -1 1 -1 c 2,57,-1
 106 -1 l 2,46,47
EndSplineSet
EndChar

StartChar: less
Encoding: 60 60 20
Width: 459
GlyphClass: 1
Flags: W
LayerCount: 2
Fore
SplineSet
443 506 m 1,0,-1
 443 610 l 1,1,-1
 338 610 l 1,2,-1
 338 506 l 1,3,-1
 443 506 l 1,4,-1
 443 506 l 1,0,-1
358 421 m 1,5,-1
 358 421 l 1,6,-1
 253 421 l 1,7,-1
 253 526 l 1,8,-1
 358 526 l 1,9,-1
 358 421 l 1,5,-1
274 337 m 1,10,-1
 274 441 l 1,11,-1
 169 441 l 1,12,-1
 169 337 l 1,13,-1
 274 337 l 1,14,-1
 274 337 l 1,10,-1
189 252 m 1,15,-1
 189 252 l 1,16,-1
 84 252 l 1,17,-1
 84 357 l 1,18,-1
 189 357 l 1,19,-1
 189 252 l 1,15,-1
274 168 m 1,20,-1
 274 168 l 1,21,-1
 169 168 l 1,22,-1
 169 272 l 1,23,-1
 274 272 l 1,24,-1
 274 168 l 1,20,-1
358 83 m 1,25,-1
 358 83 l 1,26,-1
 253 83 l 1,27,-1
 253 188 l 1,28,-1
 358 188 l 1,29,-1
 358 83 l 1,25,-1
443 0 m 1,30,-1
 443 0 l 1,31,-1
 338 0 l 1,32,-1
 338 103 l 1,33,-1
 443 103 l 1,34,-1
 443 0 l 1,30,-1
443 -1 m 2,35,-1
 338 -1 l 2,36,37
 337 -1 337 -1 337 0 c 2,38,-1
 337 82 l 1,39,-1
 253 82 l 2,40,41
 252 82 252 82 252 83 c 2,42,-1
 252 167 l 1,43,-1
 169 167 l 2,44,45
 168 167 168 167 168 168 c 2,46,-1
 168 251 l 1,47,-1
 84 251 l 2,48,49
 83 251 83 251 83 252 c 2,50,-1
 83 357 l 2,51,52
 83 358 83 358 84 358 c 2,53,-1
 168 358 l 1,54,-1
 168 441 l 2,55,56
 168 442 168 442 169 442 c 2,57,-1
 252 442 l 1,58,-1
 252 526 l 2,59,60
 252 527 252 527 253 527 c 2,61,-1
 337 527 l 1,62,-1
 337 610 l 2,63,64
 337 611 337 611 338 611 c 2,65,-1
 443 611 l 2,66,67
 444 611 444 611 444 610 c 2,68,-1
 444 506 l 2,69,70
 444 505 444 505 443 505 c 2,71,-1
 359 505 l 1,72,-1
 359 421 l 2,73,74
 359 420 359 420 358 420 c 2,75,-1
 275 420 l 1,76,-1
 275 337 l 2,77,78
 275 336 275 336 274 336 c 2,79,-1
 190 336 l 1,80,-1
 190 273 l 1,81,-1
 274 273 l 2,82,83
 275 273 275 273 275 272 c 2,84,-1
 275 189 l 1,85,-1
 358 189 l 2,86,87
 359 189 359 189 359 188 c 2,88,-1
 359 104 l 1,89,-1
 443 104 l 2,90,91
 444 104 444 104 444 103 c 2,92,-1
 444 0 l 2,93,94
 444 -1 444 -1 443 -1 c 2,35,-1
443 -1 m 2,95,96
 444 -1 444 -1 444 0 c 2,97,-1
 444 103 l 2,98,99
 444 104 444 104 443 104 c 2,100,-1
 359 104 l 1,101,-1
 359 188 l 2,102,103
 359 189 359 189 358 189 c 2,104,-1
 275 189 l 1,105,-1
 275 272 l 2,106,107
 275 273 275 273 274 273 c 2,108,-1
 190 273 l 1,109,-1
 190 336 l 1,110,-1
 274 336 l 2,111,112
 275 336 275 336 275 337 c 2,113,-1
 275 420 l 1,114,-1
 358 420 l 2,115,116
 359 420 359 420 359 421 c 2,117,-1
 359 505 l 1,118,-1
 443 505 l 2,119,120
 444 505 444 505 444 506 c 2,121,-1
 444 610 l 2,122,123
 444 611 444 611 443 611 c 2,124,-1
 338 611 l 2,125,126
 337 611 337 611 337 610 c 2,127,-1
 337 527 l 1,128,-1
 253 527 l 2,129,130
 252 527 252 527 252 526 c 2,131,-1
 252 442 l 1,132,-1
 169 442 l 2,133,134
 168 442 168 442 168 441 c 2,135,-1
 168 358 l 1,136,-1
 84 358 l 2,137,138
 83 358 83 358 83 357 c 2,139,-1
 83 252 l 2,140,141
 83 251 83 251 84 251 c 2,142,-1
 168 251 l 1,143,-1
 168 168 l 2,144,145
 168 167 168 167 169 167 c 2,146,-1
 252 167 l 1,147,-1
 252 83 l 2,148,149
 252 82 252 82 253 82 c 2,150,-1
 337 82 l 1,151,-1
 337 0 l 2,152,153
 337 -1 337 -1 338 -1 c 2,154,-1
 443 -1 l 2,95,96
EndSplineSet
EndChar

StartChar: greater
Encoding: 62 62 21
Width: 459
GlyphClass: 1
Flags: W
LayerCount: 2
Fore
SplineSet
274 421 m 1,0,-1
 274 421 l 1,1,-1
 169 421 l 1,2,-1
 169 526 l 1,3,-1
 274 526 l 1,4,-1
 274 421 l 1,0,-1
189 506 m 1,5,-1
 189 506 l 1,6,-1
 84 506 l 1,7,-1
 84 610 l 1,8,-1
 189 610 l 1,9,-1
 189 506 l 1,5,-1
358 337 m 1,10,-1
 358 337 l 1,11,-1
 253 337 l 1,12,-1
 253 441 l 1,13,-1
 358 441 l 1,14,-1
 358 337 l 1,10,-1
443 252 m 1,15,-1
 443 357 l 1,16,-1
 338 357 l 1,17,-1
 338 252 l 1,18,-1
 443 252 l 1,19,-1
 443 252 l 1,15,-1
358 168 m 1,20,-1
 358 168 l 1,21,-1
 253 168 l 1,22,-1
 253 272 l 1,23,-1
 358 272 l 1,24,-1
 358 168 l 1,20,-1
274 83 m 1,25,-1
 274 188 l 1,26,-1
 169 188 l 1,27,-1
 169 83 l 1,28,-1
 274 83 l 1,29,-1
 274 83 l 1,25,-1
189 0 m 1,30,-1
 189 0 l 1,31,-1
 84 0 l 1,32,-1
 84 103 l 1,33,-1
 189 103 l 1,34,-1
 189 0 l 1,30,-1
189 -1 m 2,35,-1
 84 -1 l 2,36,37
 83 -1 83 -1 83 0 c 2,38,-1
 83 103 l 2,39,40
 83 104 83 104 84 104 c 2,41,-1
 168 104 l 1,42,-1
 168 188 l 2,43,44
 168 189 168 189 169 189 c 2,45,-1
 252 189 l 1,46,-1
 252 272 l 2,47,48
 252 273 252 273 253 273 c 2,49,-1
 337 273 l 1,50,-1
 337 336 l 1,51,-1
 253 336 l 2,52,53
 252 336 252 336 252 337 c 2,54,-1
 252 420 l 1,55,-1
 169 420 l 2,56,57
 168 420 168 420 168 421 c 2,58,-1
 168 505 l 1,59,-1
 84 505 l 2,60,61
 83 505 83 505 83 506 c 2,62,-1
 83 610 l 2,63,64
 83 611 83 611 84 611 c 2,65,-1
 189 611 l 2,66,67
 190 611 190 611 190 610 c 2,68,-1
 190 527 l 1,69,-1
 274 527 l 2,70,71
 275 527 275 527 275 526 c 2,72,-1
 275 442 l 1,73,-1
 358 442 l 2,74,75
 359 442 359 442 359 441 c 2,76,-1
 359 358 l 1,77,-1
 443 358 l 2,78,79
 444 358 444 358 444 357 c 2,80,-1
 444 252 l 2,81,82
 444 251 444 251 443 251 c 2,83,-1
 359 251 l 1,84,-1
 359 168 l 2,85,86
 359 167 359 167 358 167 c 2,87,-1
 275 167 l 1,88,-1
 275 83 l 2,89,90
 275 82 275 82 274 82 c 2,91,-1
 190 82 l 1,92,-1
 190 0 l 2,93,94
 190 -1 190 -1 189 -1 c 2,35,-1
189 -1 m 2,95,96
 190 -1 190 -1 190 0 c 2,97,-1
 190 82 l 1,98,-1
 274 82 l 2,99,100
 275 82 275 82 275 83 c 2,101,-1
 275 167 l 1,102,-1
 358 167 l 2,103,104
 359 167 359 167 359 168 c 2,105,-1
 359 251 l 1,106,-1
 443 251 l 2,107,108
 444 251 444 251 444 252 c 2,109,-1
 444 357 l 2,110,111
 444 358 444 358 443 358 c 2,112,-1
 359 358 l 1,113,-1
 359 441 l 2,114,115
 359 442 359 442 358 442 c 2,116,-1
 275 442 l 1,117,-1
 275 526 l 2,118,119
 275 527 275 527 274 527 c 2,120,-1
 190 527 l 1,121,-1
 190 610 l 2,122,123
 190 611 190 611 189 611 c 2,124,-1
 84 611 l 2,125,126
 83 611 83 611 83 610 c 2,127,-1
 83 506 l 2,128,129
 83 505 83 505 84 505 c 2,130,-1
 168 505 l 1,131,-1
 168 421 l 2,132,133
 168 420 168 420 169 420 c 2,134,-1
 252 420 l 1,135,-1
 252 337 l 2,136,137
 252 336 252 336 253 336 c 2,138,-1
 337 336 l 1,139,-1
 337 273 l 1,140,-1
 253 273 l 2,141,142
 252 273 252 273 252 272 c 2,143,-1
 252 189 l 1,144,-1
 169 189 l 2,145,146
 168 189 168 189 168 188 c 2,147,-1
 168 104 l 1,148,-1
 84 104 l 2,149,150
 83 104 83 104 83 103 c 2,151,-1
 83 0 l 2,152,153
 83 -1 83 -1 84 -1 c 2,154,-1
 189 -1 l 2,95,96
EndSplineSet
EndChar

StartChar: question
Encoding: 63 63 22
Width: 542
GlyphClass: 1
Flags: W
LayerCount: 2
Fore
SplineSet
274 590 m 1,0,-1
 274 590 l 1,1,-1
 169 590 l 1,2,-1
 169 694 l 1,3,-1
 274 694 l 1,4,-1
 274 590 l 1,0,-1
358 590 m 1,5,-1
 358 694 l 1,6,-1
 253 694 l 1,7,-1
 253 590 l 1,8,-1
 358 590 l 1,9,-1
 358 590 l 1,5,-1
189 590 m 1,10,-1
 189 694 l 1,11,-1
 85 694 l 1,12,-1
 85 590 l 1,13,-1
 189 590 l 1,14,-1
 189 590 l 1,10,-1
442 506 m 1,15,-1
 442 506 l 1,16,-1
 338 506 l 1,17,-1
 338 610 l 1,18,-1
 442 610 l 1,19,-1
 442 506 l 1,15,-1
442 421 m 1,20,-1
 442 526 l 1,21,-1
 338 526 l 1,22,-1
 338 421 l 1,23,-1
 442 421 l 1,24,-1
 442 421 l 1,20,-1
105 506 m 1,25,-1
 105 506 l 1,26,-1
 0 506 l 1,27,-1
 0 610 l 1,28,-1
 105 610 l 1,29,-1
 105 506 l 1,25,-1
358 337 m 1,30,-1
 358 337 l 1,31,-1
 253 337 l 1,32,-1
 253 441 l 1,33,-1
 358 441 l 1,34,-1
 358 337 l 1,30,-1
274 253 m 1,35,-1
 274 357 l 1,36,-1
 169 357 l 1,37,-1
 169 253 l 1,38,-1
 274 253 l 1,39,-1
 274 253 l 1,35,-1
274 168 m 1,40,-1
 274 168 l 1,41,-1
 169 168 l 1,42,-1
 169 273 l 1,43,-1
 274 273 l 1,44,-1
 274 168 l 1,40,-1
274 0 m 1,45,-1
 274 0 l 1,46,-1
 169 0 l 1,47,-1
 169 104 l 1,48,-1
 274 104 l 1,49,-1
 274 0 l 1,45,-1
274 -1 m 2,50,-1
 169 -1 l 2,51,52
 168 -1 168 -1 168 0 c 2,53,-1
 168 104 l 2,54,55
 168 105 168 105 169 105 c 2,56,-1
 274 105 l 2,57,58
 275 105 275 105 275 104 c 2,59,-1
 275 0 l 2,60,61
 275 -1 275 -1 274 -1 c 2,50,-1
274 167 m 2,62,-1
 169 167 l 2,63,64
 168 167 168 167 168 168 c 2,65,-1
 168 357 l 2,66,67
 168 358 168 358 169 358 c 2,68,-1
 252 358 l 1,69,-1
 252 441 l 2,70,71
 252 442 252 442 253 442 c 2,72,-1
 337 442 l 1,73,-1
 337 589 l 1,74,-1
 106 589 l 1,75,-1
 106 506 l 2,76,77
 106 505 106 505 105 505 c 2,78,-1
 0 505 l 2,79,80
 -1 505 -1 505 -1 506 c 2,81,-1
 -1 610 l 2,82,83
 -1 611 -1 611 0 611 c 2,84,-1
 84 611 l 1,85,-1
 84 694 l 2,86,87
 84 695 84 695 85 695 c 2,88,-1
 358 695 l 2,89,90
 359 695 359 695 359 694 c 2,91,-1
 359 611 l 1,92,-1
 442 611 l 2,93,94
 443 611 443 611 443 610 c 2,95,-1
 443 421 l 2,96,97
 443 420 443 420 442 420 c 2,98,-1
 359 420 l 1,99,-1
 359 337 l 2,100,101
 359 336 359 336 358 336 c 2,102,-1
 275 336 l 1,103,-1
 275 168 l 2,104,105
 275 167 275 167 274 167 c 2,62,-1
274 -1 m 2,106,107
 275 -1 275 -1 275 0 c 2,108,-1
 275 104 l 2,109,110
 275 105 275 105 274 105 c 2,111,-1
 169 105 l 2,112,113
 168 105 168 105 168 104 c 2,114,-1
 168 0 l 2,115,116
 168 -1 168 -1 169 -1 c 2,117,-1
 274 -1 l 2,106,107
274 167 m 2,118,119
 275 167 275 167 275 168 c 2,120,-1
 275 336 l 1,121,-1
 358 336 l 2,122,123
 359 336 359 336 359 337 c 2,124,-1
 359 420 l 1,125,-1
 442 420 l 2,126,127
 443 420 443 420 443 421 c 2,128,-1
 443 610 l 2,129,130
 443 611 443 611 442 611 c 2,131,-1
 359 611 l 1,132,-1
 359 694 l 2,133,134
 359 695 359 695 358 695 c 2,135,-1
 85 695 l 2,136,137
 84 695 84 695 84 694 c 2,138,-1
 84 611 l 1,139,-1
 0 611 l 2,140,141
 -1 611 -1 611 -1 610 c 2,142,-1
 -1 506 l 2,143,144
 -1 505 -1 505 0 505 c 2,145,-1
 105 505 l 2,146,147
 106 505 106 505 106 506 c 2,148,-1
 106 589 l 1,149,-1
 337 589 l 1,150,-1
 337 442 l 1,151,-1
 253 442 l 2,152,153
 252 442 252 442 252 441 c 2,154,-1
 252 358 l 1,155,-1
 169 358 l 2,156,157
 168 358 168 358 168 357 c 2,158,-1
 168 168 l 2,159,160
 168 167 168 167 169 167 c 2,161,-1
 274 167 l 2,118,119
EndSplineSet
EndChar

StartChar: A
Encoding: 65 65 23
Width: 542
GlyphClass: 1
Flags: W
LayerCount: 2
Fore
SplineSet
190 590 m 1,0,-1
 190 694 l 1,1,-1
 85 694 l 1,2,-1
 85 590 l 1,3,-1
 190 590 l 1,4,-1
 190 590 l 1,0,-1
274 590 m 1,5,-1
 274 590 l 1,6,-1
 169 590 l 1,7,-1
 169 694 l 1,8,-1
 274 694 l 1,9,-1
 274 590 l 1,5,-1
359 590 m 1,10,-1
 359 694 l 1,11,-1
 254 694 l 1,12,-1
 254 590 l 1,13,-1
 359 590 l 1,14,-1
 359 590 l 1,10,-1
359 253 m 1,15,-1
 359 253 l 1,16,-1
 254 253 l 1,17,-1
 254 357 l 1,18,-1
 359 357 l 1,19,-1
 359 253 l 1,15,-1
274 253 m 1,20,-1
 274 357 l 1,21,-1
 169 357 l 1,22,-1
 169 253 l 1,23,-1
 274 253 l 1,24,-1
 274 253 l 1,20,-1
85 337 m 1,25,-1
 338 337 l 1,26,-1
 85 337 l 1,27,-1
 85 337 l 1,25,-1
190 253 m 1,28,-1
 190 253 l 1,29,-1
 85 253 l 1,30,-1
 85 357 l 1,31,-1
 190 357 l 1,32,-1
 190 253 l 1,28,-1
443 506 m 1,33,-1
 443 506 l 1,34,-1
 338 506 l 1,35,-1
 338 610 l 1,36,-1
 443 610 l 1,37,-1
 443 506 l 1,33,-1
443 421 m 1,38,-1
 443 526 l 1,39,-1
 338 526 l 1,40,-1
 338 421 l 1,41,-1
 443 421 l 1,42,-1
 443 421 l 1,38,-1
443 337 m 1,43,-1
 443 337 l 1,44,-1
 338 337 l 1,45,-1
 338 441 l 1,46,-1
 443 441 l 1,47,-1
 443 337 l 1,43,-1
443 253 m 1,48,-1
 443 357 l 1,49,-1
 338 357 l 1,50,-1
 338 253 l 1,51,-1
 443 253 l 1,52,-1
 443 253 l 1,48,-1
443 168 m 1,53,-1
 443 168 l 1,54,-1
 338 168 l 1,55,-1
 338 273 l 1,56,-1
 443 273 l 1,57,-1
 443 168 l 1,53,-1
443 84 m 1,58,-1
 443 188 l 1,59,-1
 338 188 l 1,60,-1
 338 84 l 1,61,-1
 443 84 l 1,62,-1
 443 84 l 1,58,-1
443 0 m 1,63,-1
 443 0 l 1,64,-1
 338 0 l 1,65,-1
 338 104 l 1,66,-1
 443 104 l 1,67,-1
 443 0 l 1,63,-1
106 506 m 1,68,-1
 106 506 l 1,69,-1
 1 506 l 1,70,-1
 1 610 l 1,71,-1
 106 610 l 1,72,-1
 106 506 l 1,68,-1
106 421 m 1,73,-1
 106 526 l 1,74,-1
 1 526 l 1,75,-1
 1 421 l 1,76,-1
 106 421 l 1,77,-1
 106 421 l 1,73,-1
106 337 m 1,78,-1
 106 337 l 1,79,-1
 1 337 l 1,80,-1
 1 441 l 1,81,-1
 106 441 l 1,82,-1
 106 337 l 1,78,-1
106 253 m 1,83,-1
 106 357 l 1,84,-1
 1 357 l 1,85,-1
 1 253 l 1,86,-1
 106 253 l 1,87,-1
 106 253 l 1,83,-1
106 168 m 1,88,-1
 106 168 l 1,89,-1
 1 168 l 1,90,-1
 1 273 l 1,91,-1
 106 273 l 1,92,-1
 106 168 l 1,88,-1
106 84 m 1,93,-1
 106 188 l 1,94,-1
 1 188 l 1,95,-1
 1 84 l 1,96,-1
 106 84 l 1,97,-1
 106 84 l 1,93,-1
106 0 m 1,98,-1
 106 0 l 1,99,-1
 1 0 l 1,100,-1
 1 104 l 1,101,-1
 106 104 l 1,102,-1
 106 0 l 1,98,-1
106 -1 m 2,103,-1
 1 -1 l 2,104,105
 0 -1 0 -1 1.11022302463e-16 0 c 2,106,-1
 1.11022302463e-16 610 l 2,107,108
 1.11022302463e-16 611 1.11022302463e-16 611 1 611 c 2,109,-1
 84 611 l 1,110,-1
 84 694 l 2,111,112
 84 695 84 695 85 695 c 2,113,-1
 359 695 l 2,114,115
 360 695 360 695 360 694 c 2,116,-1
 360 611 l 1,117,-1
 443 611 l 2,118,119
 444 611 444 611 444 610 c 2,120,-1
 444 0 l 2,121,122
 444 -1 444 -1 443 -1 c 2,123,-1
 338 -1 l 2,124,125
 337 -1 337 -1 337 0 c 2,126,-1
 337 252 l 1,127,-1
 107 252 l 1,128,-1
 107 0 l 2,129,130
 107 -1 107 -1 106 -1 c 2,103,-1
107 589 m 1,131,-1
 337 589 l 1,132,-1
 337 358 l 1,133,-1
 107 358 l 1,134,-1
 107 589 l 1,131,-1
106 -1 m 2,135,136
 107 -1 107 -1 107 0 c 2,137,-1
 107 252 l 1,138,-1
 337 252 l 1,139,-1
 337 0 l 2,140,141
 337 -1 337 -1 338 -1 c 2,142,-1
 443 -1 l 2,143,144
 444 -1 444 -1 444 0 c 2,145,-1
 444 610 l 2,146,147
 444 611 444 611 443 611 c 2,148,-1
 360 611 l 1,149,-1
 360 694 l 2,150,151
 360 695 360 695 359 695 c 2,152,-1
 85 695 l 2,153,154
 84 695 84 695 84 694 c 2,155,-1
 84 611 l 1,156,-1
 1 611 l 2,157,158
 1.11022302463e-16 611 1.11022302463e-16 611 1.11022302463e-16 610 c 2,159,-1
 1.11022302463e-16 0 l 2,160,161
 0 -1 0 -1 1 -1 c 2,162,-1
 106 -1 l 2,135,136
107 589 m 1,163,-1
 107 358 l 1,164,-1
 337 358 l 1,165,-1
 337 589 l 1,166,-1
 107 589 l 1,163,-1
EndSplineSet
EndChar

StartChar: B
Encoding: 66 66 24
Width: 542
GlyphClass: 1
Flags: W
LayerCount: 2
Fore
SplineSet
359 590 m 1,0,-1
 359 590 l 1,1,-1
 254 590 l 1,2,-1
 254 694 l 1,3,-1
 359 694 l 1,4,-1
 359 590 l 1,0,-1
106 506 m 1,5,-1
 106 506 l 1,6,-1
 1 506 l 1,7,-1
 1 610 l 1,8,-1
 106 610 l 1,9,-1
 106 506 l 1,5,-1
106 421 m 1,10,-1
 106 526 l 1,11,-1
 1 526 l 1,12,-1
 1 421 l 1,13,-1
 106 421 l 1,14,-1
 106 421 l 1,10,-1
190 590 m 1,15,-1
 190 590 l 1,16,-1
 85 590 l 1,17,-1
 85 694 l 1,18,-1
 190 694 l 1,19,-1
 190 590 l 1,15,-1
443 421 m 1,20,-1
 443 526 l 1,21,-1
 338 526 l 1,22,-1
 338 421 l 1,23,-1
 443 421 l 1,24,-1
 443 421 l 1,20,-1
359 337 m 1,25,-1
 359 337 l 1,26,-1
 254 337 l 1,27,-1
 254 441 l 1,28,-1
 359 441 l 1,29,-1
 359 337 l 1,25,-1
274 337 m 1,30,-1
 274 441 l 1,31,-1
 169 441 l 1,32,-1
 169 337 l 1,33,-1
 274 337 l 1,34,-1
 274 337 l 1,30,-1
443 168 m 1,35,-1
 443 273 l 1,36,-1
 338 273 l 1,37,-1
 338 168 l 1,38,-1
 443 168 l 1,39,-1
 443 168 l 1,35,-1
190 337 m 1,40,-1
 190 337 l 1,41,-1
 85 337 l 1,42,-1
 85 441 l 1,43,-1
 190 441 l 1,44,-1
 190 337 l 1,40,-1
106 253 m 1,45,-1
 106 357 l 1,46,-1
 1 357 l 1,47,-1
 1 253 l 1,48,-1
 106 253 l 1,49,-1
 106 253 l 1,45,-1
106 84 m 1,50,-1
 106 188 l 1,51,-1
 1 188 l 1,52,-1
 1 84 l 1,53,-1
 106 84 l 1,54,-1
 106 84 l 1,50,-1
359 0 m 1,55,-1
 359 104 l 1,56,-1
 254 104 l 1,57,-1
 254 0 l 1,58,-1
 359 0 l 1,59,-1
 359 0 l 1,55,-1
190 0 m 1,60,-1
 190 104 l 1,61,-1
 85 104 l 1,62,-1
 85 0 l 1,63,-1
 190 0 l 1,64,-1
 190 0 l 1,60,-1
274 0 m 1,65,-1
 274 0 l 1,66,-1
 169 0 l 1,67,-1
 169 104 l 1,68,-1
 274 104 l 1,69,-1
 274 0 l 1,65,-1
443 84 m 1,70,-1
 443 84 l 1,71,-1
 338 84 l 1,72,-1
 338 188 l 1,73,-1
 443 188 l 1,74,-1
 443 84 l 1,70,-1
443 253 m 1,75,-1
 443 253 l 1,76,-1
 338 253 l 1,77,-1
 338 357 l 1,78,-1
 443 357 l 1,79,-1
 443 253 l 1,75,-1
443 506 m 1,80,-1
 443 506 l 1,81,-1
 338 506 l 1,82,-1
 338 610 l 1,83,-1
 443 610 l 1,84,-1
 443 506 l 1,80,-1
274 590 m 1,85,-1
 274 694 l 1,86,-1
 169 694 l 1,87,-1
 169 590 l 1,88,-1
 274 590 l 1,89,-1
 274 590 l 1,85,-1
106 590 m 1,90,-1
 106 694 l 1,91,-1
 1 694 l 1,92,-1
 1 590 l 1,93,-1
 106 590 l 1,94,-1
 106 590 l 1,90,-1
106 168 m 1,95,-1
 106 168 l 1,96,-1
 1 168 l 1,97,-1
 1 273 l 1,98,-1
 106 273 l 1,99,-1
 106 168 l 1,95,-1
106 337 m 1,100,-1
 106 337 l 1,101,-1
 1 337 l 1,102,-1
 1 441 l 1,103,-1
 106 441 l 1,104,-1
 106 337 l 1,100,-1
106 0 m 1,105,-1
 106 0 l 1,106,-1
 1 0 l 1,107,-1
 1 104 l 1,108,-1
 106 104 l 1,109,-1
 106 0 l 1,105,-1
107 105 m 1,110,-1
 107 336 l 1,111,-1
 337 336 l 1,112,-1
 337 105 l 1,113,-1
 107 105 l 1,110,-1
359 -1 m 2,114,-1
 1 -1 l 2,115,116
 0 -1 0 -1 1.11022302463e-16 0 c 2,117,-1
 1.11022302463e-16 694 l 2,118,119
 1.11022302463e-16 695 1.11022302463e-16 695 1 695 c 2,120,-1
 359 695 l 2,121,122
 360 695 360 695 360 694 c 2,123,-1
 360 611 l 1,124,-1
 443 611 l 2,125,126
 444 611 444 611 444 610 c 2,127,-1
 444 421 l 2,128,129
 444 420 444 420 443 420 c 2,130,-1
 360 420 l 1,131,-1
 360 358 l 1,132,-1
 443 358 l 2,133,134
 444 358 444 358 444 357 c 2,135,-1
 444 84 l 2,136,137
 444 83 444 83 443 83 c 2,138,-1
 360 83 l 1,139,-1
 360 0 l 2,140,141
 360 -1 360 -1 359 -1 c 2,114,-1
107 442 m 1,142,-1
 107 589 l 1,143,-1
 337 589 l 1,144,-1
 337 442 l 1,145,-1
 107 442 l 1,142,-1
107 105 m 1,146,-1
 337 105 l 1,147,-1
 337 336 l 1,148,-1
 107 336 l 1,149,-1
 107 105 l 1,146,-1
359 -1 m 2,150,151
 360 -1 360 -1 360 0 c 2,152,-1
 360 83 l 1,153,-1
 443 83 l 2,154,155
 444 83 444 83 444 84 c 2,156,-1
 444 357 l 2,157,158
 444 358 444 358 443 358 c 2,159,-1
 360 358 l 1,160,-1
 360 420 l 1,161,-1
 443 420 l 2,162,163
 444 420 444 420 444 421 c 2,164,-1
 444 610 l 2,165,166
 444 611 444 611 443 611 c 2,167,-1
 360 611 l 1,168,-1
 360 694 l 2,169,170
 360 695 360 695 359 695 c 2,171,-1
 1 695 l 2,172,173
 1.11022302463e-16 695 1.11022302463e-16 695 1.11022302463e-16 694 c 2,174,-1
 1.11022302463e-16 0 l 2,175,176
 0 -1 0 -1 1 -1 c 2,177,-1
 359 -1 l 2,150,151
107 442 m 1,178,-1
 337 442 l 1,179,-1
 337 589 l 1,180,-1
 107 589 l 1,181,-1
 107 442 l 1,178,-1
EndSplineSet
EndChar

StartChar: C
Encoding: 67 67 25
Width: 542
GlyphClass: 1
Flags: W
LayerCount: 2
Fore
SplineSet
358 590 m 1,0,-1
 358 590 l 1,1,-1
 253 590 l 1,2,-1
 253 694 l 1,3,-1
 358 694 l 1,4,-1
 358 590 l 1,0,-1
274 590 m 1,5,-1
 274 694 l 1,6,-1
 169 694 l 1,7,-1
 169 590 l 1,8,-1
 274 590 l 1,9,-1
 274 590 l 1,5,-1
442 506 m 1,10,-1
 442 506 l 1,11,-1
 338 506 l 1,12,-1
 338 610 l 1,13,-1
 442 610 l 1,14,-1
 442 506 l 1,10,-1
189 590 m 1,15,-1
 189 590 l 1,16,-1
 85 590 l 1,17,-1
 85 694 l 1,18,-1
 189 694 l 1,19,-1
 189 590 l 1,15,-1
105 337 m 1,20,-1
 105 441 l 1,21,-1
 0 441 l 1,22,-1
 0 337 l 1,23,-1
 105 337 l 1,24,-1
 105 337 l 1,20,-1
105 168 m 1,25,-1
 105 273 l 1,26,-1
 0 273 l 1,27,-1
 0 168 l 1,28,-1
 105 168 l 1,29,-1
 105 168 l 1,25,-1
105 506 m 1,30,-1
 105 610 l 1,31,-1
 0 610 l 1,32,-1
 0 506 l 1,33,-1
 105 506 l 1,34,-1
 105 506 l 1,30,-1
105 421 m 1,35,-1
 105 421 l 1,36,-1
 0 421 l 1,37,-1
 0 526 l 1,38,-1
 105 526 l 1,39,-1
 105 421 l 1,35,-1
105 253 m 1,40,-1
 105 253 l 1,41,-1
 0 253 l 1,42,-1
 0 357 l 1,43,-1
 105 357 l 1,44,-1
 105 253 l 1,40,-1
105 84 m 1,45,-1
 105 84 l 1,46,-1
 0 84 l 1,47,-1
 0 188 l 1,48,-1
 105 188 l 1,49,-1
 105 84 l 1,45,-1
442 84 m 1,50,-1
 442 188 l 1,51,-1
 338 188 l 1,52,-1
 338 84 l 1,53,-1
 442 84 l 1,54,-1
 442 84 l 1,50,-1
358 0 m 1,55,-1
 358 0 l 1,56,-1
 253 0 l 1,57,-1
 253 104 l 1,58,-1
 358 104 l 1,59,-1
 358 0 l 1,55,-1
189 0 m 1,60,-1
 189 0 l 1,61,-1
 85 0 l 1,62,-1
 85 104 l 1,63,-1
 189 104 l 1,64,-1
 189 0 l 1,60,-1
274 0 m 1,65,-1
 274 104 l 1,66,-1
 169 104 l 1,67,-1
 169 0 l 1,68,-1
 274 0 l 1,69,-1
 274 0 l 1,65,-1
442 505 m 2,70,-1
 338 505 l 2,71,72
 337 505 337 505 337 506 c 2,73,-1
 337 589 l 1,74,-1
 106 589 l 1,75,-1
 106 105 l 1,76,-1
 337 105 l 1,77,-1
 337 188 l 2,78,79
 337 189 337 189 338 189 c 2,80,-1
 442 189 l 2,81,82
 443 189 443 189 443 188 c 2,83,-1
 443 84 l 2,84,85
 443 83 443 83 442 83 c 2,86,-1
 359 83 l 1,87,-1
 359 0 l 2,88,89
 359 -1 359 -1 358 -1 c 2,90,-1
 85 -1 l 2,91,92
 84 -1 84 -1 84 0 c 2,93,-1
 84 83 l 1,94,-1
 0 83 l 2,95,96
 -1 83 -1 83 -1 84 c 2,97,-1
 -1 610 l 2,98,99
 -1 611 -1 611 0 611 c 2,100,-1
 84 611 l 1,101,-1
 84 694 l 2,102,103
 84 695 84 695 85 695 c 2,104,-1
 358 695 l 2,105,106
 359 695 359 695 359 694 c 2,107,-1
 359 611 l 1,108,-1
 442 611 l 2,109,110
 443 611 443 611 443 610 c 2,111,-1
 443 506 l 2,112,113
 443 505 443 505 442 505 c 2,70,-1
442 505 m 2,114,115
 443 505 443 505 443 506 c 2,116,-1
 443 610 l 2,117,118
 443 611 443 611 442 611 c 2,119,-1
 359 611 l 1,120,-1
 359 694 l 2,121,122
 359 695 359 695 358 695 c 2,123,-1
 85 695 l 2,124,125
 84 695 84 695 84 694 c 2,126,-1
 84 611 l 1,127,-1
 0 611 l 2,128,129
 -1 611 -1 611 -1 610 c 2,130,-1
 -1 84 l 2,131,132
 -1 83 -1 83 0 83 c 2,133,-1
 84 83 l 1,134,-1
 84 0 l 2,135,136
 84 -1 84 -1 85 -1 c 2,137,-1
 358 -1 l 2,138,139
 359 -1 359 -1 359 0 c 2,140,-1
 359 83 l 1,141,-1
 442 83 l 2,142,143
 443 83 443 83 443 84 c 2,144,-1
 443 188 l 2,145,146
 443 189 443 189 442 189 c 2,147,-1
 338 189 l 2,148,149
 337 189 337 189 337 188 c 2,150,-1
 337 105 l 1,151,-1
 106 105 l 1,152,-1
 106 589 l 1,153,-1
 337 589 l 1,154,-1
 337 506 l 2,155,156
 337 505 337 505 338 505 c 2,157,-1
 442 505 l 2,114,115
EndSplineSet
EndChar

StartChar: D
Encoding: 68 68 26
Width: 542
GlyphClass: 1
Flags: W
LayerCount: 2
Fore
SplineSet
105 337 m 1,0,-1
 105 337 l 1,1,-1
 0 337 l 1,2,-1
 0 441 l 1,3,-1
 105 441 l 1,4,-1
 105 337 l 1,0,-1
105 421 m 1,5,-1
 105 526 l 1,6,-1
 0 526 l 1,7,-1
 0 421 l 1,8,-1
 105 421 l 1,9,-1
 105 421 l 1,5,-1
105 506 m 1,10,-1
 105 506 l 1,11,-1
 0 506 l 1,12,-1
 0 610 l 1,13,-1
 105 610 l 1,14,-1
 105 506 l 1,10,-1
105 0 m 1,15,-1
 105 0 l 1,16,-1
 0 0 l 1,17,-1
 0 104 l 1,18,-1
 105 104 l 1,19,-1
 105 0 l 1,15,-1
358 590 m 1,20,-1
 358 590 l 1,21,-1
 253 590 l 1,22,-1
 253 694 l 1,23,-1
 358 694 l 1,24,-1
 358 590 l 1,20,-1
274 590 m 1,25,-1
 274 694 l 1,26,-1
 169 694 l 1,27,-1
 169 590 l 1,28,-1
 274 590 l 1,29,-1
 274 590 l 1,25,-1
189 590 m 1,30,-1
 189 590 l 1,31,-1
 85 590 l 1,32,-1
 85 694 l 1,33,-1
 189 694 l 1,34,-1
 189 590 l 1,30,-1
105 84 m 1,35,-1
 105 188 l 1,36,-1
 0 188 l 1,37,-1
 0 84 l 1,38,-1
 105 84 l 1,39,-1
 105 84 l 1,35,-1
105 168 m 1,40,-1
 105 168 l 1,41,-1
 0 168 l 1,42,-1
 0 273 l 1,43,-1
 105 273 l 1,44,-1
 105 168 l 1,40,-1
105 253 m 1,45,-1
 105 357 l 1,46,-1
 0 357 l 1,47,-1
 0 253 l 1,48,-1
 105 253 l 1,49,-1
 105 253 l 1,45,-1
85 337 m 1,50,-1
 0 337 l 1,51,-1
 85 337 l 1,52,-1
 85 337 l 1,50,-1
0 590 m 1,53,-1
 85 590 l 1,54,-1
 0 590 l 1,55,-1
 105 590 l 1,56,-1
 105 694 l 1,57,-1
 0 694 l 1,58,-1
 0 590 l 1,59,-1
 0 590 l 1,53,-1
442 506 m 1,60,-1
 442 610 l 1,61,-1
 338 610 l 1,62,-1
 338 506 l 1,63,-1
 442 506 l 1,64,-1
 442 506 l 1,60,-1
442 421 m 1,65,-1
 442 421 l 1,66,-1
 338 421 l 1,67,-1
 338 526 l 1,68,-1
 442 526 l 1,69,-1
 442 421 l 1,65,-1
442 337 m 1,70,-1
 442 441 l 1,71,-1
 338 441 l 1,72,-1
 338 337 l 1,73,-1
 442 337 l 1,74,-1
 442 337 l 1,70,-1
442 253 m 1,75,-1
 442 253 l 1,76,-1
 338 253 l 1,77,-1
 338 357 l 1,78,-1
 442 357 l 1,79,-1
 442 253 l 1,75,-1
442 168 m 1,80,-1
 442 273 l 1,81,-1
 338 273 l 1,82,-1
 338 168 l 1,83,-1
 442 168 l 1,84,-1
 442 168 l 1,80,-1
442 84 m 1,85,-1
 442 84 l 1,86,-1
 338 84 l 1,87,-1
 338 188 l 1,88,-1
 442 188 l 1,89,-1
 442 84 l 1,85,-1
358 0 m 1,90,-1
 358 104 l 1,91,-1
 253 104 l 1,92,-1
 253 0 l 1,93,-1
 358 0 l 1,94,-1
 358 0 l 1,90,-1
274 0 m 1,95,-1
 274 0 l 1,96,-1
 169 0 l 1,97,-1
 169 104 l 1,98,-1
 274 104 l 1,99,-1
 274 0 l 1,95,-1
189 0 m 1,100,-1
 189 104 l 1,101,-1
 85 104 l 1,102,-1
 85 0 l 1,103,-1
 189 0 l 1,104,-1
 189 0 l 1,100,-1
106 105 m 1,105,-1
 106 589 l 1,106,-1
 337 589 l 1,107,-1
 337 105 l 1,108,-1
 106 105 l 1,105,-1
358 -1 m 2,109,-1
 0 -1 l 2,110,111
 -1 -1 -1 -1 -1 0 c 2,112,-1
 -1 694 l 2,113,114
 -1 695 -1 695 0 695 c 2,115,-1
 358 695 l 2,116,117
 359 695 359 695 359 694 c 2,118,-1
 359 611 l 1,119,-1
 442 611 l 2,120,121
 443 611 443 611 443 610 c 2,122,-1
 443 84 l 2,123,124
 443 83 443 83 442 83 c 2,125,-1
 359 83 l 1,126,-1
 359 0 l 2,127,128
 359 -1 359 -1 358 -1 c 2,109,-1
106 105 m 1,129,-1
 337 105 l 1,130,-1
 337 589 l 1,131,-1
 106 589 l 1,132,-1
 106 105 l 1,129,-1
358 -1 m 2,133,134
 359 -1 359 -1 359 0 c 2,135,-1
 359 83 l 1,136,-1
 442 83 l 2,137,138
 443 83 443 83 443 84 c 2,139,-1
 443 610 l 2,140,141
 443 611 443 611 442 611 c 2,142,-1
 359 611 l 1,143,-1
 359 694 l 2,144,145
 359 695 359 695 358 695 c 2,146,-1
 0 695 l 2,147,148
 -1 695 -1 695 -1 694 c 2,149,-1
 -1 0 l 2,150,151
 -1 -1 -1 -1 0 -1 c 2,152,-1
 358 -1 l 2,133,134
EndSplineSet
EndChar

StartChar: E
Encoding: 69 69 27
Width: 542
GlyphClass: 1
Flags: W
LayerCount: 2
Fore
SplineSet
105 0 m 1,0,-1
 105 0 l 1,1,-1
 0 0 l 1,2,-1
 0 104 l 1,3,-1
 105 104 l 1,4,-1
 105 0 l 1,0,-1
189 0 m 1,5,-1
 189 104 l 1,6,-1
 85 104 l 1,7,-1
 85 0 l 1,8,-1
 189 0 l 1,9,-1
 189 0 l 1,5,-1
274 0 m 1,10,-1
 274 0 l 1,11,-1
 169 0 l 1,12,-1
 169 104 l 1,13,-1
 274 104 l 1,14,-1
 274 0 l 1,10,-1
358 0 m 1,15,-1
 358 104 l 1,16,-1
 253 104 l 1,17,-1
 253 0 l 1,18,-1
 358 0 l 1,19,-1
 358 0 l 1,15,-1
442 0 m 1,20,-1
 442 0 l 1,21,-1
 338 0 l 1,22,-1
 338 104 l 1,23,-1
 442 104 l 1,24,-1
 442 0 l 1,20,-1
105 84 m 1,25,-1
 105 188 l 1,26,-1
 0 188 l 1,27,-1
 0 84 l 1,28,-1
 105 84 l 1,29,-1
 105 84 l 1,25,-1
105 168 m 1,30,-1
 105 168 l 1,31,-1
 0 168 l 1,32,-1
 0 273 l 1,33,-1
 105 273 l 1,34,-1
 105 168 l 1,30,-1
105 253 m 1,35,-1
 105 357 l 1,36,-1
 0 357 l 1,37,-1
 0 253 l 1,38,-1
 105 253 l 1,39,-1
 105 253 l 1,35,-1
358 337 m 1,40,-1
 358 337 l 1,41,-1
 253 337 l 1,42,-1
 253 441 l 1,43,-1
 358 441 l 1,44,-1
 358 337 l 1,40,-1
274 337 m 1,45,-1
 274 441 l 1,46,-1
 169 441 l 1,47,-1
 169 337 l 1,48,-1
 274 337 l 1,49,-1
 274 337 l 1,45,-1
189 337 m 1,50,-1
 189 337 l 1,51,-1
 85 337 l 1,52,-1
 85 441 l 1,53,-1
 189 441 l 1,54,-1
 189 337 l 1,50,-1
105 337 m 1,55,-1
 105 337 l 1,56,-1
 0 337 l 1,57,-1
 0 441 l 1,58,-1
 105 441 l 1,59,-1
 105 337 l 1,55,-1
105 421 m 1,60,-1
 105 526 l 1,61,-1
 0 526 l 1,62,-1
 0 421 l 1,63,-1
 105 421 l 1,64,-1
 105 421 l 1,60,-1
105 506 m 1,65,-1
 105 506 l 1,66,-1
 0 506 l 1,67,-1
 0 610 l 1,68,-1
 105 610 l 1,69,-1
 105 506 l 1,65,-1
105 590 m 1,70,-1
 105 694 l 1,71,-1
 0 694 l 1,72,-1
 0 590 l 1,73,-1
 105 590 l 1,74,-1
 105 590 l 1,70,-1
189 590 m 1,75,-1
 189 590 l 1,76,-1
 85 590 l 1,77,-1
 85 694 l 1,78,-1
 189 694 l 1,79,-1
 189 590 l 1,75,-1
274 590 m 1,80,-1
 274 694 l 1,81,-1
 169 694 l 1,82,-1
 169 590 l 1,83,-1
 274 590 l 1,84,-1
 274 590 l 1,80,-1
358 590 m 1,85,-1
 358 590 l 1,86,-1
 253 590 l 1,87,-1
 253 694 l 1,88,-1
 358 694 l 1,89,-1
 358 590 l 1,85,-1
442 590 m 1,90,-1
 442 694 l 1,91,-1
 338 694 l 1,92,-1
 338 590 l 1,93,-1
 442 590 l 1,94,-1
 442 590 l 1,90,-1
0 695 m 2,95,-1
 442 695 l 2,96,97
 443 695 443 695 443 694 c 2,98,-1
 443 590 l 2,99,100
 443 589 443 589 442 589 c 2,101,-1
 106 589 l 1,102,-1
 106 442 l 1,103,-1
 358 442 l 2,104,105
 359 442 359 442 359 441 c 2,106,-1
 359 337 l 2,107,108
 359 336 359 336 358 336 c 2,109,-1
 106 336 l 1,110,-1
 106 105 l 1,111,-1
 442 105 l 2,112,113
 443 105 443 105 443 104 c 2,114,-1
 443 0 l 2,115,116
 443 -1 443 -1 442 -1 c 2,117,-1
 0 -1 l 2,118,119
 -1 -1 -1 -1 -1 0 c 2,120,-1
 -1 694 l 2,121,122
 -1 695 -1 695 0 695 c 2,95,-1
0 695 m 2,123,124
 -1 695 -1 695 -1 694 c 2,125,-1
 -1 0 l 2,126,127
 -1 -1 -1 -1 0 -1 c 2,128,-1
 442 -1 l 2,129,130
 443 -1 443 -1 443 0 c 2,131,-1
 443 104 l 2,132,133
 443 105 443 105 442 105 c 2,134,-1
 106 105 l 1,135,-1
 106 336 l 1,136,-1
 358 336 l 2,137,138
 359 336 359 336 359 337 c 2,139,-1
 359 441 l 2,140,141
 359 442 359 442 358 442 c 2,142,-1
 106 442 l 1,143,-1
 106 589 l 1,144,-1
 442 589 l 2,145,146
 443 589 443 589 443 590 c 2,147,-1
 443 694 l 2,148,149
 443 695 443 695 442 695 c 2,150,-1
 0 695 l 2,123,124
EndSplineSet
EndChar

StartChar: F
Encoding: 70 70 28
Width: 542
GlyphClass: 1
Flags: W
LayerCount: 2
Fore
SplineSet
105 0 m 1,0,-1
 105 0 l 1,1,-1
 0 0 l 1,2,-1
 0 104 l 1,3,-1
 105 104 l 1,4,-1
 105 0 l 1,0,-1
105 84 m 1,5,-1
 105 188 l 1,6,-1
 0 188 l 1,7,-1
 0 84 l 1,8,-1
 105 84 l 1,9,-1
 105 84 l 1,5,-1
105 168 m 1,10,-1
 105 168 l 1,11,-1
 0 168 l 1,12,-1
 0 273 l 1,13,-1
 105 273 l 1,14,-1
 105 168 l 1,10,-1
105 253 m 1,15,-1
 105 357 l 1,16,-1
 0 357 l 1,17,-1
 0 253 l 1,18,-1
 105 253 l 1,19,-1
 105 253 l 1,15,-1
105 337 m 1,20,-1
 105 337 l 1,21,-1
 0 337 l 1,22,-1
 0 441 l 1,23,-1
 105 441 l 1,24,-1
 105 337 l 1,20,-1
189 337 m 1,25,-1
 189 337 l 1,26,-1
 85 337 l 1,27,-1
 85 441 l 1,28,-1
 189 441 l 1,29,-1
 189 337 l 1,25,-1
274 337 m 1,30,-1
 274 441 l 1,31,-1
 169 441 l 1,32,-1
 169 337 l 1,33,-1
 274 337 l 1,34,-1
 274 337 l 1,30,-1
358 337 m 1,35,-1
 358 337 l 1,36,-1
 253 337 l 1,37,-1
 253 441 l 1,38,-1
 358 441 l 1,39,-1
 358 337 l 1,35,-1
105 421 m 1,40,-1
 105 526 l 1,41,-1
 0 526 l 1,42,-1
 0 421 l 1,43,-1
 105 421 l 1,44,-1
 105 421 l 1,40,-1
105 506 m 1,45,-1
 105 506 l 1,46,-1
 0 506 l 1,47,-1
 0 610 l 1,48,-1
 105 610 l 1,49,-1
 105 506 l 1,45,-1
189 590 m 1,50,-1
 189 590 l 1,51,-1
 85 590 l 1,52,-1
 85 694 l 1,53,-1
 189 694 l 1,54,-1
 189 590 l 1,50,-1
274 590 m 1,55,-1
 274 694 l 1,56,-1
 169 694 l 1,57,-1
 169 590 l 1,58,-1
 274 590 l 1,59,-1
 274 590 l 1,55,-1
442 590 m 1,60,-1
 442 694 l 1,61,-1
 338 694 l 1,62,-1
 338 590 l 1,63,-1
 442 590 l 1,64,-1
 442 590 l 1,60,-1
358 590 m 1,65,-1
 358 590 l 1,66,-1
 253 590 l 1,67,-1
 253 694 l 1,68,-1
 358 694 l 1,69,-1
 358 590 l 1,65,-1
105 590 m 1,70,-1
 105 694 l 1,71,-1
 0 694 l 1,72,-1
 0 590 l 1,73,-1
 105 590 l 1,74,-1
 105 590 l 1,70,-1
105 -1 m 2,75,-1
 0 -1 l 2,76,77
 -1 -1 -1 -1 -1 0 c 2,78,-1
 -1 694 l 2,79,80
 -1 695 -1 695 0 695 c 2,81,-1
 442 695 l 2,82,83
 443 695 443 695 443 694 c 2,84,-1
 443 590 l 2,85,86
 443 589 443 589 442 589 c 2,87,-1
 106 589 l 1,88,-1
 106 442 l 1,89,-1
 358 442 l 2,90,91
 359 442 359 442 359 441 c 2,92,-1
 359 337 l 2,93,94
 359 336 359 336 358 336 c 2,95,-1
 106 336 l 1,96,-1
 106 0 l 2,97,98
 106 -1 106 -1 105 -1 c 2,75,-1
105 -1 m 2,99,100
 106 -1 106 -1 106 0 c 2,101,-1
 106 336 l 1,102,-1
 358 336 l 2,103,104
 359 336 359 336 359 337 c 2,105,-1
 359 441 l 2,106,107
 359 442 359 442 358 442 c 2,108,-1
 106 442 l 1,109,-1
 106 589 l 1,110,-1
 442 589 l 2,111,112
 443 589 443 589 443 590 c 2,113,-1
 443 694 l 2,114,115
 443 695 443 695 442 695 c 2,116,-1
 0 695 l 2,117,118
 -1 695 -1 695 -1 694 c 2,119,-1
 -1 0 l 2,120,121
 -1 -1 -1 -1 0 -1 c 2,122,-1
 105 -1 l 2,99,100
EndSplineSet
EndChar

StartChar: G
Encoding: 71 71 29
Width: 542
GlyphClass: 1
Flags: W
LayerCount: 2
Fore
SplineSet
189 0 m 1,0,-1
 189 0 l 1,1,-1
 85 0 l 1,2,-1
 85 104 l 1,3,-1
 189 104 l 1,4,-1
 189 0 l 1,0,-1
274 0 m 1,5,-1
 274 104 l 1,6,-1
 169 104 l 1,7,-1
 169 0 l 1,8,-1
 274 0 l 1,9,-1
 274 0 l 1,5,-1
358 0 m 1,10,-1
 358 0 l 1,11,-1
 253 0 l 1,12,-1
 253 104 l 1,13,-1
 358 104 l 1,14,-1
 358 0 l 1,10,-1
105 84 m 1,15,-1
 105 84 l 1,16,-1
 0 84 l 1,17,-1
 0 188 l 1,18,-1
 105 188 l 1,19,-1
 105 84 l 1,15,-1
105 168 m 1,20,-1
 105 273 l 1,21,-1
 0 273 l 1,22,-1
 0 168 l 1,23,-1
 105 168 l 1,24,-1
 105 168 l 1,20,-1
105 253 m 1,25,-1
 105 253 l 1,26,-1
 0 253 l 1,27,-1
 0 357 l 1,28,-1
 105 357 l 1,29,-1
 105 253 l 1,25,-1
105 337 m 1,30,-1
 105 441 l 1,31,-1
 0 441 l 1,32,-1
 0 337 l 1,33,-1
 105 337 l 1,34,-1
 105 337 l 1,30,-1
105 421 m 1,35,-1
 105 421 l 1,36,-1
 0 421 l 1,37,-1
 0 526 l 1,38,-1
 105 526 l 1,39,-1
 105 421 l 1,35,-1
105 506 m 1,40,-1
 105 610 l 1,41,-1
 0 610 l 1,42,-1
 0 506 l 1,43,-1
 105 506 l 1,44,-1
 105 506 l 1,40,-1
189 590 m 1,45,-1
 189 590 l 1,46,-1
 85 590 l 1,47,-1
 85 694 l 1,48,-1
 189 694 l 1,49,-1
 189 590 l 1,45,-1
274 590 m 1,50,-1
 274 694 l 1,51,-1
 169 694 l 1,52,-1
 169 590 l 1,53,-1
 274 590 l 1,54,-1
 274 590 l 1,50,-1
358 590 m 1,55,-1
 358 590 l 1,56,-1
 253 590 l 1,57,-1
 253 694 l 1,58,-1
 358 694 l 1,59,-1
 358 590 l 1,55,-1
442 506 m 1,60,-1
 442 506 l 1,61,-1
 338 506 l 1,62,-1
 338 610 l 1,63,-1
 442 610 l 1,64,-1
 442 506 l 1,60,-1
442 84 m 1,65,-1
 442 188 l 1,66,-1
 338 188 l 1,67,-1
 338 84 l 1,68,-1
 442 84 l 1,69,-1
 442 84 l 1,65,-1
358 168 m 1,70,-1
 358 168 l 1,71,-1
 253 168 l 1,72,-1
 253 273 l 1,73,-1
 358 273 l 1,74,-1
 358 168 l 1,70,-1
442 168 m 1,75,-1
 442 168 l 1,76,-1
 338 168 l 1,77,-1
 338 273 l 1,78,-1
 442 273 l 1,79,-1
 442 168 l 1,75,-1
442 505 m 2,80,-1
 338 505 l 2,81,82
 337 505 337 505 337 506 c 2,83,-1
 337 589 l 1,84,-1
 106 589 l 1,85,-1
 106 105 l 1,86,-1
 337 105 l 1,87,-1
 337 167 l 1,88,-1
 253 167 l 2,89,90
 252 167 252 167 252 168 c 2,91,-1
 252 273 l 2,92,93
 252 274 252 274 253 274 c 2,94,-1
 442 274 l 2,95,96
 443 274 443 274 443 273 c 2,97,-1
 443 84 l 2,98,99
 443 83 443 83 442 83 c 2,100,-1
 359 83 l 1,101,-1
 359 0 l 2,102,103
 359 -1 359 -1 358 -1 c 2,104,-1
 85 -1 l 2,105,106
 84 -1 84 -1 84 0 c 2,107,-1
 84 83 l 1,108,-1
 0 83 l 2,109,110
 -1 83 -1 83 -1 84 c 2,111,-1
 -1 610 l 2,112,113
 -1 611 -1 611 0 611 c 2,114,-1
 84 611 l 1,115,-1
 84 694 l 2,116,117
 84 695 84 695 85 695 c 2,118,-1
 358 695 l 2,119,120
 359 695 359 695 359 694 c 2,121,-1
 359 611 l 1,122,-1
 442 611 l 2,123,124
 443 611 443 611 443 610 c 2,125,-1
 443 506 l 2,126,127
 443 505 443 505 442 505 c 2,80,-1
442 505 m 2,128,129
 443 505 443 505 443 506 c 2,130,-1
 443 610 l 2,131,132
 443 611 443 611 442 611 c 2,133,-1
 359 611 l 1,134,-1
 359 694 l 2,135,136
 359 695 359 695 358 695 c 2,137,-1
 85 695 l 2,138,139
 84 695 84 695 84 694 c 2,140,-1
 84 611 l 1,141,-1
 0 611 l 2,142,143
 -1 611 -1 611 -1 610 c 2,144,-1
 -1 84 l 2,145,146
 -1 83 -1 83 0 83 c 2,147,-1
 84 83 l 1,148,-1
 84 0 l 2,149,150
 84 -1 84 -1 85 -1 c 2,151,-1
 358 -1 l 2,152,153
 359 -1 359 -1 359 0 c 2,154,-1
 359 83 l 1,155,-1
 442 83 l 2,156,157
 443 83 443 83 443 84 c 2,158,-1
 443 273 l 2,159,160
 443 274 443 274 442 274 c 2,161,-1
 253 274 l 2,162,163
 252 274 252 274 252 273 c 2,164,-1
 252 168 l 2,165,166
 252 167 252 167 253 167 c 2,167,-1
 337 167 l 1,168,-1
 337 105 l 1,169,-1
 106 105 l 1,170,-1
 106 589 l 1,171,-1
 337 589 l 1,172,-1
 337 506 l 2,173,174
 337 505 337 505 338 505 c 2,175,-1
 442 505 l 2,128,129
EndSplineSet
EndChar

StartChar: H
Encoding: 72 72 30
Width: 542
GlyphClass: 1
Flags: W
LayerCount: 2
Fore
SplineSet
105 0 m 1,0,-1
 105 0 l 1,1,-1
 0 0 l 1,2,-1
 0 104 l 1,3,-1
 105 104 l 1,4,-1
 105 0 l 1,0,-1
105 84 m 1,5,-1
 105 188 l 1,6,-1
 0 188 l 1,7,-1
 0 84 l 1,8,-1
 105 84 l 1,9,-1
 105 84 l 1,5,-1
105 168 m 1,10,-1
 105 168 l 1,11,-1
 0 168 l 1,12,-1
 0 273 l 1,13,-1
 105 273 l 1,14,-1
 105 168 l 1,10,-1
105 253 m 1,15,-1
 105 357 l 1,16,-1
 0 357 l 1,17,-1
 0 253 l 1,18,-1
 105 253 l 1,19,-1
 105 253 l 1,15,-1
105 337 m 1,20,-1
 105 337 l 1,21,-1
 0 337 l 1,22,-1
 0 441 l 1,23,-1
 105 441 l 1,24,-1
 105 337 l 1,20,-1
105 421 m 1,25,-1
 105 526 l 1,26,-1
 0 526 l 1,27,-1
 0 421 l 1,28,-1
 105 421 l 1,29,-1
 105 421 l 1,25,-1
105 506 m 1,30,-1
 105 506 l 1,31,-1
 0 506 l 1,32,-1
 0 610 l 1,33,-1
 105 610 l 1,34,-1
 105 506 l 1,30,-1
105 590 m 1,35,-1
 105 694 l 1,36,-1
 0 694 l 1,37,-1
 0 590 l 1,38,-1
 105 590 l 1,39,-1
 105 590 l 1,35,-1
189 337 m 1,40,-1
 189 337 l 1,41,-1
 85 337 l 1,42,-1
 85 441 l 1,43,-1
 189 441 l 1,44,-1
 189 337 l 1,40,-1
274 337 m 1,45,-1
 274 441 l 1,46,-1
 169 441 l 1,47,-1
 169 337 l 1,48,-1
 274 337 l 1,49,-1
 274 337 l 1,45,-1
358 337 m 1,50,-1
 358 337 l 1,51,-1
 253 337 l 1,52,-1
 253 441 l 1,53,-1
 358 441 l 1,54,-1
 358 337 l 1,50,-1
442 84 m 1,55,-1
 442 188 l 1,56,-1
 338 188 l 1,57,-1
 338 84 l 1,58,-1
 442 84 l 1,59,-1
 442 84 l 1,55,-1
442 168 m 1,60,-1
 442 168 l 1,61,-1
 338 168 l 1,62,-1
 338 273 l 1,63,-1
 442 273 l 1,64,-1
 442 168 l 1,60,-1
442 253 m 1,65,-1
 442 357 l 1,66,-1
 338 357 l 1,67,-1
 338 253 l 1,68,-1
 442 253 l 1,69,-1
 442 253 l 1,65,-1
442 421 m 1,70,-1
 442 526 l 1,71,-1
 338 526 l 1,72,-1
 338 421 l 1,73,-1
 442 421 l 1,74,-1
 442 421 l 1,70,-1
442 506 m 1,75,-1
 442 506 l 1,76,-1
 338 506 l 1,77,-1
 338 610 l 1,78,-1
 442 610 l 1,79,-1
 442 506 l 1,75,-1
442 590 m 1,80,-1
 442 694 l 1,81,-1
 338 694 l 1,82,-1
 338 590 l 1,83,-1
 442 590 l 1,84,-1
 442 590 l 1,80,-1
442 337 m 1,85,-1
 442 337 l 1,86,-1
 338 337 l 1,87,-1
 338 441 l 1,88,-1
 442 441 l 1,89,-1
 442 337 l 1,85,-1
442 0 m 1,90,-1
 442 0 l 1,91,-1
 338 0 l 1,92,-1
 338 104 l 1,93,-1
 442 104 l 1,94,-1
 442 0 l 1,90,-1
442 -1 m 2,95,-1
 338 -1 l 2,96,97
 337 -1 337 -1 337 0 c 2,98,-1
 337 336 l 1,99,-1
 106 336 l 1,100,-1
 106 0 l 2,101,102
 106 -1 106 -1 105 -1 c 2,103,-1
 0 -1 l 2,104,105
 -1 -1 -1 -1 -1 0 c 2,106,-1
 -1 694 l 2,107,108
 -1 695 -1 695 0 695 c 2,109,-1
 105 695 l 2,110,111
 106 695 106 695 106 694 c 2,112,-1
 106 442 l 1,113,-1
 337 442 l 1,114,-1
 337 694 l 2,115,116
 337 695 337 695 338 695 c 2,117,-1
 442 695 l 2,118,119
 443 695 443 695 443 694 c 2,120,-1
 443 0 l 2,121,122
 443 -1 443 -1 442 -1 c 2,95,-1
442 -1 m 2,123,124
 443 -1 443 -1 443 0 c 2,125,-1
 443 694 l 2,126,127
 443 695 443 695 442 695 c 2,128,-1
 338 695 l 2,129,130
 337 695 337 695 337 694 c 2,131,-1
 337 442 l 1,132,-1
 106 442 l 1,133,-1
 106 694 l 2,134,135
 106 695 106 695 105 695 c 2,136,-1
 0 695 l 2,137,138
 -1 695 -1 695 -1 694 c 2,139,-1
 -1 0 l 2,140,141
 -1 -1 -1 -1 0 -1 c 2,142,-1
 105 -1 l 2,143,144
 106 -1 106 -1 106 0 c 2,145,-1
 106 336 l 1,146,-1
 337 336 l 1,147,-1
 337 0 l 2,148,149
 337 -1 337 -1 338 -1 c 2,150,-1
 442 -1 l 2,123,124
EndSplineSet
EndChar

StartChar: I
Encoding: 73 73 31
Width: 374
GlyphClass: 1
Flags: W
LayerCount: 2
Fore
SplineSet
274 84 m 1,0,-1
 274 84 l 1,1,-1
 169 84 l 1,2,-1
 169 188 l 1,3,-1
 274 188 l 1,4,-1
 274 84 l 1,0,-1
274 168 m 1,5,-1
 274 273 l 1,6,-1
 169 273 l 1,7,-1
 169 168 l 1,8,-1
 274 168 l 1,9,-1
 274 168 l 1,5,-1
274 253 m 1,10,-1
 274 253 l 1,11,-1
 169 253 l 1,12,-1
 169 357 l 1,13,-1
 274 357 l 1,14,-1
 274 253 l 1,10,-1
274 337 m 1,15,-1
 274 441 l 1,16,-1
 169 441 l 1,17,-1
 169 337 l 1,18,-1
 274 337 l 1,19,-1
 274 337 l 1,15,-1
274 421 m 1,20,-1
 274 421 l 1,21,-1
 169 421 l 1,22,-1
 169 526 l 1,23,-1
 274 526 l 1,24,-1
 274 421 l 1,20,-1
274 506 m 1,25,-1
 274 610 l 1,26,-1
 169 610 l 1,27,-1
 169 506 l 1,28,-1
 274 506 l 1,29,-1
 274 506 l 1,25,-1
358 590 m 1,30,-1
 358 590 l 1,31,-1
 253 590 l 1,32,-1
 253 694 l 1,33,-1
 358 694 l 1,34,-1
 358 590 l 1,30,-1
274 590 m 1,35,-1
 274 590 l 1,36,-1
 169 590 l 1,37,-1
 169 694 l 1,38,-1
 274 694 l 1,39,-1
 274 590 l 1,35,-1
189 590 m 1,40,-1
 189 590 l 1,41,-1
 85 590 l 1,42,-1
 85 694 l 1,43,-1
 189 694 l 1,44,-1
 189 590 l 1,40,-1
358 0 m 1,45,-1
 358 0 l 1,46,-1
 253 0 l 1,47,-1
 253 104 l 1,48,-1
 358 104 l 1,49,-1
 358 0 l 1,45,-1
189 0 m 1,50,-1
 189 0 l 1,51,-1
 85 0 l 1,52,-1
 85 104 l 1,53,-1
 189 104 l 1,54,-1
 189 0 l 1,50,-1
274 0 m 1,55,-1
 274 104 l 1,56,-1
 169 104 l 1,57,-1
 169 0 l 1,58,-1
 274 0 l 1,59,-1
 274 0 l 1,55,-1
358 -1 m 2,60,-1
 85 -1 l 2,61,62
 84 -1 84 -1 84 0 c 2,63,-1
 84 104 l 2,64,65
 84 105 84 105 85 105 c 2,66,-1
 168 105 l 1,67,-1
 168 589 l 1,68,-1
 85 589 l 2,69,70
 84 589 84 589 84 590 c 2,71,-1
 84 694 l 2,72,73
 84 695 84 695 85 695 c 2,74,-1
 358 695 l 2,75,76
 359 695 359 695 359 694 c 2,77,-1
 359 590 l 2,78,79
 359 589 359 589 358 589 c 2,80,-1
 275 589 l 1,81,-1
 275 105 l 1,82,-1
 358 105 l 2,83,84
 359 105 359 105 359 104 c 2,85,-1
 359 0 l 2,86,87
 359 -1 359 -1 358 -1 c 2,60,-1
358 -1 m 2,88,89
 359 -1 359 -1 359 0 c 2,90,-1
 359 104 l 2,91,92
 359 105 359 105 358 105 c 2,93,-1
 275 105 l 1,94,-1
 275 589 l 1,95,-1
 358 589 l 2,96,97
 359 589 359 589 359 590 c 2,98,-1
 359 694 l 2,99,100
 359 695 359 695 358 695 c 2,101,-1
 85 695 l 2,102,103
 84 695 84 695 84 694 c 2,104,-1
 84 590 l 2,105,106
 84 589 84 589 85 589 c 2,107,-1
 168 589 l 1,108,-1
 168 105 l 1,109,-1
 85 105 l 2,110,111
 84 105 84 105 84 104 c 2,112,-1
 84 0 l 2,113,114
 84 -1 84 -1 85 -1 c 2,115,-1
 358 -1 l 2,88,89
EndSplineSet
EndChar

StartChar: L
Encoding: 76 76 32
Width: 542
GlyphClass: 1
Flags: W
LayerCount: 2
Fore
SplineSet
105 84 m 1,0,-1
 105 188 l 1,1,-1
 0 188 l 1,2,-1
 0 84 l 1,3,-1
 105 84 l 1,4,-1
 105 84 l 1,0,-1
105 168 m 1,5,-1
 105 168 l 1,6,-1
 0 168 l 1,7,-1
 0 273 l 1,8,-1
 105 273 l 1,9,-1
 105 168 l 1,5,-1
105 253 m 1,10,-1
 105 357 l 1,11,-1
 0 357 l 1,12,-1
 0 253 l 1,13,-1
 105 253 l 1,14,-1
 105 253 l 1,10,-1
105 506 m 1,15,-1
 105 506 l 1,16,-1
 0 506 l 1,17,-1
 0 610 l 1,18,-1
 105 610 l 1,19,-1
 105 506 l 1,15,-1
105 590 m 1,20,-1
 105 694 l 1,21,-1
 0 694 l 1,22,-1
 0 590 l 1,23,-1
 105 590 l 1,24,-1
 105 590 l 1,20,-1
105 421 m 1,25,-1
 105 526 l 1,26,-1
 0 526 l 1,27,-1
 0 421 l 1,28,-1
 105 421 l 1,29,-1
 105 421 l 1,25,-1
105 337 m 1,30,-1
 105 337 l 1,31,-1
 0 337 l 1,32,-1
 0 441 l 1,33,-1
 105 441 l 1,34,-1
 105 337 l 1,30,-1
442 0 m 1,35,-1
 442 0 l 1,36,-1
 338 0 l 1,37,-1
 338 104 l 1,38,-1
 442 104 l 1,39,-1
 442 0 l 1,35,-1
358 0 m 1,40,-1
 358 104 l 1,41,-1
 253 104 l 1,42,-1
 253 0 l 1,43,-1
 358 0 l 1,44,-1
 358 0 l 1,40,-1
274 0 m 1,45,-1
 274 0 l 1,46,-1
 169 0 l 1,47,-1
 169 104 l 1,48,-1
 274 104 l 1,49,-1
 274 0 l 1,45,-1
189 0 m 1,50,-1
 189 104 l 1,51,-1
 85 104 l 1,52,-1
 85 0 l 1,53,-1
 189 0 l 1,54,-1
 189 0 l 1,50,-1
105 0 m 1,55,-1
 105 0 l 1,56,-1
 0 0 l 1,57,-1
 0 104 l 1,58,-1
 105 104 l 1,59,-1
 105 0 l 1,55,-1
442 -1 m 2,60,-1
 0 -1 l 2,61,62
 -1 -1 -1 -1 -1 0 c 2,63,-1
 -1 694 l 2,64,65
 -1 695 -1 695 0 695 c 2,66,-1
 105 695 l 2,67,68
 106 695 106 695 106 694 c 2,69,-1
 106 105 l 1,70,-1
 442 105 l 2,71,72
 443 105 443 105 443 104 c 2,73,-1
 443 0 l 2,74,75
 443 -1 443 -1 442 -1 c 2,60,-1
442 -1 m 2,76,77
 443 -1 443 -1 443 0 c 2,78,-1
 443 104 l 2,79,80
 443 105 443 105 442 105 c 2,81,-1
 106 105 l 1,82,-1
 106 694 l 2,83,84
 106 695 106 695 105 695 c 2,85,-1
 0 695 l 2,86,87
 -1 695 -1 695 -1 694 c 2,88,-1
 -1 0 l 2,89,90
 -1 -1 -1 -1 0 -1 c 2,91,-1
 442 -1 l 2,76,77
EndSplineSet
EndChar

StartChar: M
Encoding: 77 77 33
Width: 542
GlyphClass: 1
Flags: W
LayerCount: 2
Fore
SplineSet
442 253 m 1,0,-1
 442 357 l 1,1,-1
 338 357 l 1,2,-1
 338 253 l 1,3,-1
 442 253 l 1,4,-1
 442 253 l 1,0,-1
442 168 m 1,5,-1
 442 168 l 1,6,-1
 338 168 l 1,7,-1
 338 273 l 1,8,-1
 442 273 l 1,9,-1
 442 168 l 1,5,-1
442 337 m 1,10,-1
 442 337 l 1,11,-1
 338 337 l 1,12,-1
 338 441 l 1,13,-1
 442 441 l 1,14,-1
 442 337 l 1,10,-1
442 421 m 1,15,-1
 442 526 l 1,16,-1
 338 526 l 1,17,-1
 338 421 l 1,18,-1
 442 421 l 1,19,-1
 442 421 l 1,15,-1
442 590 m 1,20,-1
 442 590 l 1,21,-1
 338 590 l 1,22,-1
 338 694 l 1,23,-1
 442 694 l 1,24,-1
 442 590 l 1,20,-1
442 84 m 1,25,-1
 442 188 l 1,26,-1
 338 188 l 1,27,-1
 338 84 l 1,28,-1
 442 84 l 1,29,-1
 442 84 l 1,25,-1
442 0 m 1,30,-1
 442 0 l 1,31,-1
 338 0 l 1,32,-1
 338 104 l 1,33,-1
 442 104 l 1,34,-1
 442 0 l 1,30,-1
105 84 m 1,35,-1
 105 188 l 1,36,-1
 0 188 l 1,37,-1
 0 84 l 1,38,-1
 105 84 l 1,39,-1
 105 84 l 1,35,-1
105 168 m 1,40,-1
 105 168 l 1,41,-1
 0 168 l 1,42,-1
 0 273 l 1,43,-1
 105 273 l 1,44,-1
 105 168 l 1,40,-1
105 253 m 1,45,-1
 105 357 l 1,46,-1
 0 357 l 1,47,-1
 0 253 l 1,48,-1
 105 253 l 1,49,-1
 105 253 l 1,45,-1
105 0 m 1,50,-1
 105 0 l 1,51,-1
 0 0 l 1,52,-1
 0 104 l 1,53,-1
 105 104 l 1,54,-1
 105 0 l 1,50,-1
105 337 m 1,55,-1
 105 337 l 1,56,-1
 0 337 l 1,57,-1
 0 441 l 1,58,-1
 105 441 l 1,59,-1
 105 337 l 1,55,-1
105 421 m 1,60,-1
 105 526 l 1,61,-1
 0 526 l 1,62,-1
 0 421 l 1,63,-1
 105 421 l 1,64,-1
 105 421 l 1,60,-1
105 590 m 1,65,-1
 105 694 l 1,66,-1
 0 694 l 1,67,-1
 0 590 l 1,68,-1
 105 590 l 1,69,-1
 105 590 l 1,65,-1
105 506 m 1,70,-1
 105 506 l 1,71,-1
 0 506 l 1,72,-1
 0 610 l 1,73,-1
 105 610 l 1,74,-1
 105 506 l 1,70,-1
189 506 m 1,75,-1
 189 506 l 1,76,-1
 85 506 l 1,77,-1
 85 610 l 1,78,-1
 189 610 l 1,79,-1
 189 506 l 1,75,-1
442 506 m 1,80,-1
 442 506 l 1,81,-1
 338 506 l 1,82,-1
 338 610 l 1,83,-1
 442 610 l 1,84,-1
 442 506 l 1,80,-1
358 506 m 1,85,-1
 358 610 l 1,86,-1
 253 610 l 1,87,-1
 253 506 l 1,88,-1
 358 506 l 1,89,-1
 358 506 l 1,85,-1
274 421 m 1,90,-1
 274 421 l 1,91,-1
 169 421 l 1,92,-1
 169 526 l 1,93,-1
 274 526 l 1,94,-1
 274 421 l 1,90,-1
274 420 m 2,95,-1
 169 420 l 2,96,97
 168 420 168 420 168 421 c 2,98,-1
 168 505 l 1,99,-1
 106 505 l 1,100,-1
 106 0 l 2,101,102
 106 -1 106 -1 105 -1 c 2,103,-1
 0 -1 l 2,104,105
 -1 -1 -1 -1 -1 0 c 2,106,-1
 -1 694 l 2,107,108
 -1 695 -1 695 0 695 c 2,109,-1
 105 695 l 2,110,111
 106 695 106 695 106 694 c 2,112,-1
 106 611 l 1,113,-1
 189 611 l 2,114,115
 190 611 190 611 190 610 c 2,116,-1
 190 527 l 1,117,-1
 252 527 l 1,118,-1
 252 610 l 2,119,120
 252 611 252 611 253 611 c 2,121,-1
 337 611 l 1,122,-1
 337 694 l 2,123,124
 337 695 337 695 338 695 c 2,125,-1
 442 695 l 2,126,127
 443 695 443 695 443 694 c 2,128,-1
 443 0 l 2,129,130
 443 -1 443 -1 442 -1 c 2,131,-1
 338 -1 l 2,132,133
 337 -1 337 -1 337 0 c 2,134,-1
 337 505 l 1,135,-1
 275 505 l 1,136,-1
 275 421 l 2,137,138
 275 420 275 420 274 420 c 2,95,-1
274 420 m 2,139,140
 275 420 275 420 275 421 c 2,141,-1
 275 505 l 1,142,-1
 337 505 l 1,143,-1
 337 0 l 2,144,145
 337 -1 337 -1 338 -1 c 2,146,-1
 442 -1 l 2,147,148
 443 -1 443 -1 443 0 c 2,149,-1
 443 694 l 2,150,151
 443 695 443 695 442 695 c 2,152,-1
 338 695 l 2,153,154
 337 695 337 695 337 694 c 2,155,-1
 337 611 l 1,156,-1
 253 611 l 2,157,158
 252 611 252 611 252 610 c 2,159,-1
 252 527 l 1,160,-1
 190 527 l 1,161,-1
 190 610 l 2,162,163
 190 611 190 611 189 611 c 2,164,-1
 106 611 l 1,165,-1
 106 694 l 2,166,167
 106 695 106 695 105 695 c 2,168,-1
 0 695 l 2,169,170
 -1 695 -1 695 -1 694 c 2,171,-1
 -1 0 l 2,172,173
 -1 -1 -1 -1 0 -1 c 2,174,-1
 105 -1 l 2,175,176
 106 -1 106 -1 106 0 c 2,177,-1
 106 505 l 1,178,-1
 168 505 l 1,179,-1
 168 421 l 2,180,181
 168 420 168 420 169 420 c 2,182,-1
 274 420 l 2,139,140
EndSplineSet
EndChar

StartChar: N
Encoding: 78 78 34
Width: 542
GlyphClass: 1
Flags: W
LayerCount: 2
Fore
SplineSet
105 0 m 1,0,-1
 105 0 l 1,1,-1
 0 0 l 1,2,-1
 0 104 l 1,3,-1
 105 104 l 1,4,-1
 105 0 l 1,0,-1
105 84 m 1,5,-1
 105 188 l 1,6,-1
 0 188 l 1,7,-1
 0 84 l 1,8,-1
 105 84 l 1,9,-1
 105 84 l 1,5,-1
105 168 m 1,10,-1
 105 168 l 1,11,-1
 0 168 l 1,12,-1
 0 273 l 1,13,-1
 105 273 l 1,14,-1
 105 168 l 1,10,-1
105 253 m 1,15,-1
 105 357 l 1,16,-1
 0 357 l 1,17,-1
 0 253 l 1,18,-1
 105 253 l 1,19,-1
 105 253 l 1,15,-1
442 84 m 1,20,-1
 442 188 l 1,21,-1
 338 188 l 1,22,-1
 338 84 l 1,23,-1
 442 84 l 1,24,-1
 442 84 l 1,20,-1
442 168 m 1,25,-1
 442 168 l 1,26,-1
 338 168 l 1,27,-1
 338 273 l 1,28,-1
 442 273 l 1,29,-1
 442 168 l 1,25,-1
442 253 m 1,30,-1
 442 357 l 1,31,-1
 338 357 l 1,32,-1
 338 253 l 1,33,-1
 442 253 l 1,34,-1
 442 253 l 1,30,-1
442 337 m 1,35,-1
 442 337 l 1,36,-1
 338 337 l 1,37,-1
 338 441 l 1,38,-1
 442 441 l 1,39,-1
 442 337 l 1,35,-1
442 421 m 1,40,-1
 442 526 l 1,41,-1
 338 526 l 1,42,-1
 338 421 l 1,43,-1
 442 421 l 1,44,-1
 442 421 l 1,40,-1
442 590 m 1,45,-1
 442 694 l 1,46,-1
 338 694 l 1,47,-1
 338 590 l 1,48,-1
 442 590 l 1,49,-1
 442 590 l 1,45,-1
105 337 m 1,50,-1
 105 337 l 1,51,-1
 0 337 l 1,52,-1
 0 441 l 1,53,-1
 105 441 l 1,54,-1
 105 337 l 1,50,-1
105 421 m 1,55,-1
 105 526 l 1,56,-1
 0 526 l 1,57,-1
 0 421 l 1,58,-1
 105 421 l 1,59,-1
 105 421 l 1,55,-1
105 590 m 1,60,-1
 105 694 l 1,61,-1
 0 694 l 1,62,-1
 0 590 l 1,63,-1
 105 590 l 1,64,-1
 105 590 l 1,60,-1
105 506 m 1,65,-1
 105 506 l 1,66,-1
 0 506 l 1,67,-1
 0 610 l 1,68,-1
 105 610 l 1,69,-1
 105 506 l 1,65,-1
189 421 m 1,70,-1
 189 421 l 1,71,-1
 85 421 l 1,72,-1
 85 526 l 1,73,-1
 189 526 l 1,74,-1
 189 421 l 1,70,-1
274 337 m 1,75,-1
 274 337 l 1,76,-1
 169 337 l 1,77,-1
 169 441 l 1,78,-1
 274 441 l 1,79,-1
 274 337 l 1,75,-1
358 253 m 1,80,-1
 358 253 l 1,81,-1
 253 253 l 1,82,-1
 253 357 l 1,83,-1
 358 357 l 1,84,-1
 358 253 l 1,80,-1
442 506 m 1,85,-1
 442 506 l 1,86,-1
 338 506 l 1,87,-1
 338 610 l 1,88,-1
 442 610 l 1,89,-1
 442 506 l 1,85,-1
442 0 m 1,90,-1
 442 0 l 1,91,-1
 338 0 l 1,92,-1
 338 104 l 1,93,-1
 442 104 l 1,94,-1
 442 0 l 1,90,-1
442 -1 m 2,95,-1
 338 -1 l 2,96,97
 337 -1 337 -1 337 0 c 2,98,-1
 337 252 l 1,99,-1
 253 252 l 2,100,101
 252 252 252 252 252 253 c 2,102,-1
 252 336 l 1,103,-1
 169 336 l 2,104,105
 168 336 168 336 168 337 c 2,106,-1
 168 420 l 1,107,-1
 106 420 l 1,108,-1
 106 0 l 2,109,110
 106 -1 106 -1 105 -1 c 2,111,-1
 0 -1 l 2,112,113
 -1 -1 -1 -1 -1 0 c 2,114,-1
 -1 694 l 2,115,116
 -1 695 -1 695 0 695 c 2,117,-1
 105 695 l 2,118,119
 106 695 106 695 106 694 c 2,120,-1
 106 527 l 1,121,-1
 189 527 l 2,122,123
 190 527 190 527 190 526 c 2,124,-1
 190 442 l 1,125,-1
 274 442 l 2,126,127
 275 442 275 442 275 441 c 2,128,-1
 275 358 l 1,129,-1
 337 358 l 1,130,-1
 337 694 l 2,131,132
 337 695 337 695 338 695 c 2,133,-1
 442 695 l 2,134,135
 443 695 443 695 443 694 c 2,136,-1
 443 0 l 2,137,138
 443 -1 443 -1 442 -1 c 2,95,-1
442 -1 m 2,139,140
 443 -1 443 -1 443 0 c 2,141,-1
 443 694 l 2,142,143
 443 695 443 695 442 695 c 2,144,-1
 338 695 l 2,145,146
 337 695 337 695 337 694 c 2,147,-1
 337 358 l 1,148,-1
 275 358 l 1,149,-1
 275 441 l 2,150,151
 275 442 275 442 274 442 c 2,152,-1
 190 442 l 1,153,-1
 190 526 l 2,154,155
 190 527 190 527 189 527 c 2,156,-1
 106 527 l 1,157,-1
 106 694 l 2,158,159
 106 695 106 695 105 695 c 2,160,-1
 0 695 l 2,161,162
 -1 695 -1 695 -1 694 c 2,163,-1
 -1 0 l 2,164,165
 -1 -1 -1 -1 0 -1 c 2,166,-1
 105 -1 l 2,167,168
 106 -1 106 -1 106 0 c 2,169,-1
 106 420 l 1,170,-1
 168 420 l 1,171,-1
 168 337 l 2,172,173
 168 336 168 336 169 336 c 2,174,-1
 252 336 l 1,175,-1
 252 253 l 2,176,177
 252 252 252 252 253 252 c 2,178,-1
 337 252 l 1,179,-1
 337 0 l 2,180,181
 337 -1 337 -1 338 -1 c 2,182,-1
 442 -1 l 2,139,140
EndSplineSet
EndChar

StartChar: O
Encoding: 79 79 35
Width: 542
GlyphClass: 1
Flags: W
LayerCount: 2
Fore
SplineSet
105 84 m 1,0,-1
 105 84 l 1,1,-1
 0 84 l 1,2,-1
 0 188 l 1,3,-1
 105 188 l 1,4,-1
 105 84 l 1,0,-1
105 168 m 1,5,-1
 105 273 l 1,6,-1
 0 273 l 1,7,-1
 0 168 l 1,8,-1
 105 168 l 1,9,-1
 105 168 l 1,5,-1
105 253 m 1,10,-1
 105 253 l 1,11,-1
 0 253 l 1,12,-1
 0 357 l 1,13,-1
 105 357 l 1,14,-1
 105 253 l 1,10,-1
105 337 m 1,15,-1
 105 441 l 1,16,-1
 0 441 l 1,17,-1
 0 337 l 1,18,-1
 105 337 l 1,19,-1
 105 337 l 1,15,-1
274 590 m 1,20,-1
 274 694 l 1,21,-1
 169 694 l 1,22,-1
 169 590 l 1,23,-1
 274 590 l 1,24,-1
 274 590 l 1,20,-1
358 590 m 1,25,-1
 358 590 l 1,26,-1
 253 590 l 1,27,-1
 253 694 l 1,28,-1
 358 694 l 1,29,-1
 358 590 l 1,25,-1
105 421 m 1,30,-1
 105 421 l 1,31,-1
 0 421 l 1,32,-1
 0 526 l 1,33,-1
 105 526 l 1,34,-1
 105 421 l 1,30,-1
189 590 m 1,35,-1
 189 590 l 1,36,-1
 85 590 l 1,37,-1
 85 694 l 1,38,-1
 189 694 l 1,39,-1
 189 590 l 1,35,-1
105 506 m 1,40,-1
 105 610 l 1,41,-1
 0 610 l 1,42,-1
 0 506 l 1,43,-1
 105 506 l 1,44,-1
 105 506 l 1,40,-1
442 84 m 1,45,-1
 442 188 l 1,46,-1
 338 188 l 1,47,-1
 338 84 l 1,48,-1
 442 84 l 1,49,-1
 442 84 l 1,45,-1
442 168 m 1,50,-1
 442 168 l 1,51,-1
 338 168 l 1,52,-1
 338 273 l 1,53,-1
 442 273 l 1,54,-1
 442 168 l 1,50,-1
442 253 m 1,55,-1
 442 357 l 1,56,-1
 338 357 l 1,57,-1
 338 253 l 1,58,-1
 442 253 l 1,59,-1
 442 253 l 1,55,-1
442 337 m 1,60,-1
 442 337 l 1,61,-1
 338 337 l 1,62,-1
 338 441 l 1,63,-1
 442 441 l 1,64,-1
 442 337 l 1,60,-1
442 421 m 1,65,-1
 442 526 l 1,66,-1
 338 526 l 1,67,-1
 338 421 l 1,68,-1
 442 421 l 1,69,-1
 442 421 l 1,65,-1
442 506 m 1,70,-1
 442 506 l 1,71,-1
 338 506 l 1,72,-1
 338 610 l 1,73,-1
 442 610 l 1,74,-1
 442 506 l 1,70,-1
358 0 m 1,75,-1
 358 0 l 1,76,-1
 253 0 l 1,77,-1
 253 104 l 1,78,-1
 358 104 l 1,79,-1
 358 0 l 1,75,-1
274 0 m 1,80,-1
 274 104 l 1,81,-1
 169 104 l 1,82,-1
 169 0 l 1,83,-1
 274 0 l 1,84,-1
 274 0 l 1,80,-1
189 0 m 1,85,-1
 189 0 l 1,86,-1
 85 0 l 1,87,-1
 85 104 l 1,88,-1
 189 104 l 1,89,-1
 189 0 l 1,85,-1
106 105 m 1,90,-1
 106 589 l 1,91,-1
 337 589 l 1,92,-1
 337 105 l 1,93,-1
 106 105 l 1,90,-1
358 -1 m 2,94,-1
 85 -1 l 2,95,96
 84 -1 84 -1 84 0 c 2,97,-1
 84 83 l 1,98,-1
 0 83 l 2,99,100
 -1 83 -1 83 -1 84 c 2,101,-1
 -1 610 l 2,102,103
 -1 611 -1 611 0 611 c 2,104,-1
 84 611 l 1,105,-1
 84 694 l 2,106,107
 84 695 84 695 85 695 c 2,108,-1
 358 695 l 2,109,110
 359 695 359 695 359 694 c 2,111,-1
 359 611 l 1,112,-1
 442 611 l 2,113,114
 443 611 443 611 443 610 c 2,115,-1
 443 84 l 2,116,117
 443 83 443 83 442 83 c 2,118,-1
 359 83 l 1,119,-1
 359 0 l 2,120,121
 359 -1 359 -1 358 -1 c 2,94,-1
106 105 m 1,122,-1
 337 105 l 1,123,-1
 337 589 l 1,124,-1
 106 589 l 1,125,-1
 106 105 l 1,122,-1
358 -1 m 2,126,127
 359 -1 359 -1 359 0 c 2,128,-1
 359 83 l 1,129,-1
 442 83 l 2,130,131
 443 83 443 83 443 84 c 2,132,-1
 443 610 l 2,133,134
 443 611 443 611 442 611 c 2,135,-1
 359 611 l 1,136,-1
 359 694 l 2,137,138
 359 695 359 695 358 695 c 2,139,-1
 85 695 l 2,140,141
 84 695 84 695 84 694 c 2,142,-1
 84 611 l 1,143,-1
 0 611 l 2,144,145
 -1 611 -1 611 -1 610 c 2,146,-1
 -1 84 l 2,147,148
 -1 83 -1 83 0 83 c 2,149,-1
 84 83 l 1,150,-1
 84 0 l 2,151,152
 84 -1 84 -1 85 -1 c 2,153,-1
 358 -1 l 2,126,127
EndSplineSet
EndChar

StartChar: P
Encoding: 80 80 36
Width: 542
GlyphClass: 1
Flags: W
LayerCount: 2
Fore
SplineSet
105 0 m 1,0,-1
 105 0 l 1,1,-1
 0 0 l 1,2,-1
 0 104 l 1,3,-1
 105 104 l 1,4,-1
 105 0 l 1,0,-1
105 84 m 1,5,-1
 105 188 l 1,6,-1
 0 188 l 1,7,-1
 0 84 l 1,8,-1
 105 84 l 1,9,-1
 105 84 l 1,5,-1
105 168 m 1,10,-1
 105 168 l 1,11,-1
 0 168 l 1,12,-1
 0 273 l 1,13,-1
 105 273 l 1,14,-1
 105 168 l 1,10,-1
105 253 m 1,15,-1
 105 357 l 1,16,-1
 0 357 l 1,17,-1
 0 253 l 1,18,-1
 105 253 l 1,19,-1
 105 253 l 1,15,-1
105 337 m 1,20,-1
 105 337 l 1,21,-1
 0 337 l 1,22,-1
 0 441 l 1,23,-1
 105 441 l 1,24,-1
 105 337 l 1,20,-1
105 421 m 1,25,-1
 105 526 l 1,26,-1
 0 526 l 1,27,-1
 0 421 l 1,28,-1
 105 421 l 1,29,-1
 105 421 l 1,25,-1
105 506 m 1,30,-1
 105 506 l 1,31,-1
 0 506 l 1,32,-1
 0 610 l 1,33,-1
 105 610 l 1,34,-1
 105 506 l 1,30,-1
189 253 m 1,35,-1
 189 253 l 1,36,-1
 85 253 l 1,37,-1
 85 357 l 1,38,-1
 189 357 l 1,39,-1
 189 253 l 1,35,-1
189 590 m 1,40,-1
 189 590 l 1,41,-1
 85 590 l 1,42,-1
 85 694 l 1,43,-1
 189 694 l 1,44,-1
 189 590 l 1,40,-1
274 590 m 1,45,-1
 274 694 l 1,46,-1
 169 694 l 1,47,-1
 169 590 l 1,48,-1
 274 590 l 1,49,-1
 274 590 l 1,45,-1
274 253 m 1,50,-1
 274 357 l 1,51,-1
 169 357 l 1,52,-1
 169 253 l 1,53,-1
 274 253 l 1,54,-1
 274 253 l 1,50,-1
358 253 m 1,55,-1
 358 253 l 1,56,-1
 253 253 l 1,57,-1
 253 357 l 1,58,-1
 358 357 l 1,59,-1
 358 253 l 1,55,-1
442 337 m 1,60,-1
 442 441 l 1,61,-1
 338 441 l 1,62,-1
 338 337 l 1,63,-1
 442 337 l 1,64,-1
 442 337 l 1,60,-1
442 421 m 1,65,-1
 442 421 l 1,66,-1
 338 421 l 1,67,-1
 338 526 l 1,68,-1
 442 526 l 1,69,-1
 442 421 l 1,65,-1
442 506 m 1,70,-1
 442 610 l 1,71,-1
 338 610 l 1,72,-1
 338 506 l 1,73,-1
 442 506 l 1,74,-1
 442 506 l 1,70,-1
358 590 m 1,75,-1
 358 590 l 1,76,-1
 253 590 l 1,77,-1
 253 694 l 1,78,-1
 358 694 l 1,79,-1
 358 590 l 1,75,-1
105 590 m 1,80,-1
 105 694 l 1,81,-1
 0 694 l 1,82,-1
 0 590 l 1,83,-1
 105 590 l 1,84,-1
 105 590 l 1,80,-1
105 -1 m 2,85,-1
 0 -1 l 2,86,87
 -1 -1 -1 -1 -1 0 c 2,88,-1
 -1 694 l 2,89,90
 -1 695 -1 695 0 695 c 2,91,-1
 358 695 l 2,92,93
 359 695 359 695 359 694 c 2,94,-1
 359 611 l 1,95,-1
 442 611 l 2,96,97
 443 611 443 611 443 610 c 2,98,-1
 443 337 l 2,99,100
 443 336 443 336 442 336 c 2,101,-1
 359 336 l 1,102,-1
 359 253 l 2,103,104
 359 252 359 252 358 252 c 2,105,-1
 106 252 l 1,106,-1
 106 0 l 2,107,108
 106 -1 106 -1 105 -1 c 2,85,-1
337 589 m 1,109,-1
 337 358 l 1,110,-1
 106 358 l 1,111,-1
 106 589 l 1,112,-1
 337 589 l 1,109,-1
105 -1 m 2,113,114
 106 -1 106 -1 106 0 c 2,115,-1
 106 252 l 1,116,-1
 358 252 l 2,117,118
 359 252 359 252 359 253 c 2,119,-1
 359 336 l 1,120,-1
 442 336 l 2,121,122
 443 336 443 336 443 337 c 2,123,-1
 443 610 l 2,124,125
 443 611 443 611 442 611 c 2,126,-1
 359 611 l 1,127,-1
 359 694 l 2,128,129
 359 695 359 695 358 695 c 2,130,-1
 0 695 l 2,131,132
 -1 695 -1 695 -1 694 c 2,133,-1
 -1 0 l 2,134,135
 -1 -1 -1 -1 0 -1 c 2,136,-1
 105 -1 l 2,113,114
337 589 m 1,137,-1
 106 589 l 1,138,-1
 106 358 l 1,139,-1
 337 358 l 1,140,-1
 337 589 l 1,137,-1
EndSplineSet
EndChar

StartChar: Q
Encoding: 81 81 37
Width: 542
GlyphClass: 1
Flags: W
LayerCount: 2
Fore
SplineSet
189 0 m 1,0,-1
 189 0 l 1,1,-1
 85 0 l 1,2,-1
 85 104 l 1,3,-1
 189 104 l 1,4,-1
 189 0 l 1,0,-1
105 84 m 1,5,-1
 105 84 l 1,6,-1
 0 84 l 1,7,-1
 0 188 l 1,8,-1
 105 188 l 1,9,-1
 105 84 l 1,5,-1
105 168 m 1,10,-1
 105 273 l 1,11,-1
 0 273 l 1,12,-1
 0 168 l 1,13,-1
 105 168 l 1,14,-1
 105 168 l 1,10,-1
105 253 m 1,15,-1
 105 253 l 1,16,-1
 0 253 l 1,17,-1
 0 357 l 1,18,-1
 105 357 l 1,19,-1
 105 253 l 1,15,-1
105 337 m 1,20,-1
 105 441 l 1,21,-1
 0 441 l 1,22,-1
 0 337 l 1,23,-1
 105 337 l 1,24,-1
 105 337 l 1,20,-1
105 421 m 1,25,-1
 105 421 l 1,26,-1
 0 421 l 1,27,-1
 0 526 l 1,28,-1
 105 526 l 1,29,-1
 105 421 l 1,25,-1
105 506 m 1,30,-1
 105 610 l 1,31,-1
 0 610 l 1,32,-1
 0 506 l 1,33,-1
 105 506 l 1,34,-1
 105 506 l 1,30,-1
189 590 m 1,35,-1
 189 590 l 1,36,-1
 85 590 l 1,37,-1
 85 694 l 1,38,-1
 189 694 l 1,39,-1
 189 590 l 1,35,-1
274 590 m 1,40,-1
 274 694 l 1,41,-1
 169 694 l 1,42,-1
 169 590 l 1,43,-1
 274 590 l 1,44,-1
 274 590 l 1,40,-1
358 590 m 1,45,-1
 358 590 l 1,46,-1
 253 590 l 1,47,-1
 253 694 l 1,48,-1
 358 694 l 1,49,-1
 358 590 l 1,45,-1
358 84 m 1,50,-1
 358 84 l 1,51,-1
 253 84 l 1,52,-1
 253 188 l 1,53,-1
 358 188 l 1,54,-1
 358 84 l 1,50,-1
442 168 m 1,55,-1
 442 273 l 1,56,-1
 338 273 l 1,57,-1
 338 168 l 1,58,-1
 442 168 l 1,59,-1
 442 168 l 1,55,-1
442 253 m 1,60,-1
 442 253 l 1,61,-1
 338 253 l 1,62,-1
 338 357 l 1,63,-1
 442 357 l 1,64,-1
 442 253 l 1,60,-1
442 337 m 1,65,-1
 442 441 l 1,66,-1
 338 441 l 1,67,-1
 338 337 l 1,68,-1
 442 337 l 1,69,-1
 442 337 l 1,65,-1
442 421 m 1,70,-1
 442 421 l 1,71,-1
 338 421 l 1,72,-1
 338 526 l 1,73,-1
 442 526 l 1,74,-1
 442 421 l 1,70,-1
442 506 m 1,75,-1
 442 610 l 1,76,-1
 338 610 l 1,77,-1
 338 506 l 1,78,-1
 442 506 l 1,79,-1
 442 506 l 1,75,-1
274 168 m 1,80,-1
 274 168 l 1,81,-1
 169 168 l 1,82,-1
 169 273 l 1,83,-1
 274 273 l 1,84,-1
 274 168 l 1,80,-1
274 0 m 1,85,-1
 274 104 l 1,86,-1
 169 104 l 1,87,-1
 169 0 l 1,88,-1
 274 0 l 1,89,-1
 274 0 l 1,85,-1
442 0 m 1,90,-1
 442 0 l 1,91,-1
 338 0 l 1,92,-1
 338 104 l 1,93,-1
 442 104 l 1,94,-1
 442 0 l 1,90,-1
442 -1 m 2,95,-1
 338 -1 l 2,96,97
 337 -1 337 -1 337 0 c 2,98,-1
 337 83 l 1,99,-1
 275 83 l 1,100,-1
 275 0 l 2,101,102
 275 -1 275 -1 274 -1 c 2,103,-1
 85 -1 l 2,104,105
 84 -1 84 -1 84 0 c 2,106,-1
 84 83 l 1,107,-1
 0 83 l 2,108,109
 -1 83 -1 83 -1 84 c 2,110,-1
 -1 610 l 2,111,112
 -1 611 -1 611 0 611 c 2,113,-1
 84 611 l 1,114,-1
 84 694 l 2,115,116
 84 695 84 695 85 695 c 2,117,-1
 358 695 l 2,118,119
 359 695 359 695 359 694 c 2,120,-1
 359 611 l 1,121,-1
 442 611 l 2,122,123
 443 611 443 611 443 610 c 2,124,-1
 443 168 l 2,125,126
 443 167 443 167 442 167 c 2,127,-1
 359 167 l 1,128,-1
 359 105 l 1,129,-1
 442 105 l 2,130,131
 443 105 443 105 443 104 c 2,132,-1
 443 0 l 2,133,134
 443 -1 443 -1 442 -1 c 2,95,-1
337 189 m 1,135,-1
 275 189 l 1,136,-1
 275 273 l 2,137,138
 275 274 275 274 274 274 c 2,139,-1
 169 274 l 2,140,141
 168 274 168 274 168 273 c 2,142,-1
 168 168 l 2,143,144
 168 167 168 167 169 167 c 2,145,-1
 252 167 l 1,146,-1
 252 105 l 1,147,-1
 106 105 l 1,148,-1
 106 589 l 1,149,-1
 337 589 l 1,150,-1
 337 189 l 1,135,-1
442 -1 m 2,151,152
 443 -1 443 -1 443 0 c 2,153,-1
 443 104 l 2,154,155
 443 105 443 105 442 105 c 2,156,-1
 359 105 l 1,157,-1
 359 167 l 1,158,-1
 442 167 l 2,159,160
 443 167 443 167 443 168 c 2,161,-1
 443 610 l 2,162,163
 443 611 443 611 442 611 c 2,164,-1
 359 611 l 1,165,-1
 359 694 l 2,166,167
 359 695 359 695 358 695 c 2,168,-1
 85 695 l 2,169,170
 84 695 84 695 84 694 c 2,171,-1
 84 611 l 1,172,-1
 0 611 l 2,173,174
 -1 611 -1 611 -1 610 c 2,175,-1
 -1 84 l 2,176,177
 -1 83 -1 83 0 83 c 2,178,-1
 84 83 l 1,179,-1
 84 0 l 2,180,181
 84 -1 84 -1 85 -1 c 2,182,-1
 274 -1 l 2,183,184
 275 -1 275 -1 275 0 c 2,185,-1
 275 83 l 1,186,-1
 337 83 l 1,187,-1
 337 0 l 2,188,189
 337 -1 337 -1 338 -1 c 2,190,-1
 442 -1 l 2,151,152
337 189 m 1,191,-1
 337 589 l 1,192,-1
 106 589 l 1,193,-1
 106 105 l 1,194,-1
 252 105 l 1,195,-1
 252 167 l 1,196,-1
 169 167 l 2,197,198
 168 167 168 167 168 168 c 2,199,-1
 168 273 l 2,200,201
 168 274 168 274 169 274 c 2,202,-1
 274 274 l 2,203,204
 275 274 275 274 275 273 c 2,205,-1
 275 189 l 1,206,-1
 337 189 l 1,191,-1
EndSplineSet
EndChar

StartChar: R
Encoding: 82 82 38
Width: 542
GlyphClass: 1
Flags: W
LayerCount: 2
Fore
SplineSet
105 0 m 1,0,-1
 105 0 l 1,1,-1
 0 0 l 1,2,-1
 0 104 l 1,3,-1
 105 104 l 1,4,-1
 105 0 l 1,0,-1
442 0 m 1,5,-1
 442 0 l 1,6,-1
 338 0 l 1,7,-1
 338 104 l 1,8,-1
 442 104 l 1,9,-1
 442 0 l 1,5,-1
358 84 m 1,10,-1
 358 84 l 1,11,-1
 253 84 l 1,12,-1
 253 188 l 1,13,-1
 358 188 l 1,14,-1
 358 84 l 1,10,-1
274 168 m 1,15,-1
 274 168 l 1,16,-1
 169 168 l 1,17,-1
 169 273 l 1,18,-1
 274 273 l 1,19,-1
 274 168 l 1,15,-1
274 253 m 1,20,-1
 274 357 l 1,21,-1
 169 357 l 1,22,-1
 169 253 l 1,23,-1
 274 253 l 1,24,-1
 274 253 l 1,20,-1
105 84 m 1,25,-1
 105 188 l 1,26,-1
 0 188 l 1,27,-1
 0 84 l 1,28,-1
 105 84 l 1,29,-1
 105 84 l 1,25,-1
105 168 m 1,30,-1
 105 168 l 1,31,-1
 0 168 l 1,32,-1
 0 273 l 1,33,-1
 105 273 l 1,34,-1
 105 168 l 1,30,-1
105 253 m 1,35,-1
 105 357 l 1,36,-1
 0 357 l 1,37,-1
 0 253 l 1,38,-1
 105 253 l 1,39,-1
 105 253 l 1,35,-1
105 337 m 1,40,-1
 105 337 l 1,41,-1
 0 337 l 1,42,-1
 0 441 l 1,43,-1
 105 441 l 1,44,-1
 105 337 l 1,40,-1
105 421 m 1,45,-1
 105 526 l 1,46,-1
 0 526 l 1,47,-1
 0 421 l 1,48,-1
 105 421 l 1,49,-1
 105 421 l 1,45,-1
105 506 m 1,50,-1
 105 506 l 1,51,-1
 0 506 l 1,52,-1
 0 610 l 1,53,-1
 105 610 l 1,54,-1
 105 506 l 1,50,-1
105 590 m 1,55,-1
 105 694 l 1,56,-1
 0 694 l 1,57,-1
 0 590 l 1,58,-1
 105 590 l 1,59,-1
 105 590 l 1,55,-1
189 253 m 1,60,-1
 189 253 l 1,61,-1
 85 253 l 1,62,-1
 85 357 l 1,63,-1
 189 357 l 1,64,-1
 189 253 l 1,60,-1
189 590 m 1,65,-1
 189 590 l 1,66,-1
 85 590 l 1,67,-1
 85 694 l 1,68,-1
 189 694 l 1,69,-1
 189 590 l 1,65,-1
274 590 m 1,70,-1
 274 694 l 1,71,-1
 169 694 l 1,72,-1
 169 590 l 1,73,-1
 274 590 l 1,74,-1
 274 590 l 1,70,-1
358 253 m 1,75,-1
 358 253 l 1,76,-1
 253 253 l 1,77,-1
 253 357 l 1,78,-1
 358 357 l 1,79,-1
 358 253 l 1,75,-1
442 337 m 1,80,-1
 442 441 l 1,81,-1
 338 441 l 1,82,-1
 338 337 l 1,83,-1
 442 337 l 1,84,-1
 442 337 l 1,80,-1
442 421 m 1,85,-1
 442 421 l 1,86,-1
 338 421 l 1,87,-1
 338 526 l 1,88,-1
 442 526 l 1,89,-1
 442 421 l 1,85,-1
442 506 m 1,90,-1
 442 610 l 1,91,-1
 338 610 l 1,92,-1
 338 506 l 1,93,-1
 442 506 l 1,94,-1
 442 506 l 1,90,-1
358 590 m 1,95,-1
 358 590 l 1,96,-1
 253 590 l 1,97,-1
 253 694 l 1,98,-1
 358 694 l 1,99,-1
 358 590 l 1,95,-1
442 -1 m 2,100,-1
 338 -1 l 2,101,102
 337 -1 337 -1 337 0 c 2,103,-1
 337 83 l 1,104,-1
 253 83 l 2,105,106
 252 83 252 83 252 84 c 2,107,-1
 252 167 l 1,108,-1
 169 167 l 2,109,110
 168 167 168 167 168 168 c 2,111,-1
 168 252 l 1,112,-1
 106 252 l 1,113,-1
 106 0 l 2,114,115
 106 -1 106 -1 105 -1 c 2,116,-1
 0 -1 l 2,117,118
 -1 -1 -1 -1 -1 0 c 2,119,-1
 -1 694 l 2,120,121
 -1 695 -1 695 0 695 c 2,122,-1
 358 695 l 2,123,124
 359 695 359 695 359 694 c 2,125,-1
 359 611 l 1,126,-1
 442 611 l 2,127,128
 443 611 443 611 443 610 c 2,129,-1
 443 337 l 2,130,131
 443 336 443 336 442 336 c 2,132,-1
 359 336 l 1,133,-1
 359 253 l 2,134,135
 359 252 359 252 358 252 c 2,136,-1
 275 252 l 1,137,-1
 275 189 l 1,138,-1
 358 189 l 2,139,140
 359 189 359 189 359 188 c 2,141,-1
 359 105 l 1,142,-1
 442 105 l 2,143,144
 443 105 443 105 443 104 c 2,145,-1
 443 0 l 2,146,147
 443 -1 443 -1 442 -1 c 2,100,-1
337 589 m 1,148,-1
 337 358 l 1,149,-1
 106 358 l 1,150,-1
 106 589 l 1,151,-1
 337 589 l 1,148,-1
442 -1 m 2,152,153
 443 -1 443 -1 443 0 c 2,154,-1
 443 104 l 2,155,156
 443 105 443 105 442 105 c 2,157,-1
 359 105 l 1,158,-1
 359 188 l 2,159,160
 359 189 359 189 358 189 c 2,161,-1
 275 189 l 1,162,-1
 275 252 l 1,163,-1
 358 252 l 2,164,165
 359 252 359 252 359 253 c 2,166,-1
 359 336 l 1,167,-1
 442 336 l 2,168,169
 443 336 443 336 443 337 c 2,170,-1
 443 610 l 2,171,172
 443 611 443 611 442 611 c 2,173,-1
 359 611 l 1,174,-1
 359 694 l 2,175,176
 359 695 359 695 358 695 c 2,177,-1
 0 695 l 2,178,179
 -1 695 -1 695 -1 694 c 2,180,-1
 -1 0 l 2,181,182
 -1 -1 -1 -1 0 -1 c 2,183,-1
 105 -1 l 2,184,185
 106 -1 106 -1 106 0 c 2,186,-1
 106 252 l 1,187,-1
 168 252 l 1,188,-1
 168 168 l 2,189,190
 168 167 168 167 169 167 c 2,191,-1
 252 167 l 1,192,-1
 252 84 l 2,193,194
 252 83 252 83 253 83 c 2,195,-1
 337 83 l 1,196,-1
 337 0 l 2,197,198
 337 -1 337 -1 338 -1 c 2,199,-1
 442 -1 l 2,152,153
337 589 m 1,200,-1
 106 589 l 1,201,-1
 106 358 l 1,202,-1
 337 358 l 1,203,-1
 337 589 l 1,200,-1
EndSplineSet
EndChar

StartChar: S
Encoding: 83 83 39
Width: 542
GlyphClass: 1
Flags: W
LayerCount: 2
Fore
SplineSet
189 0 m 1,0,-1
 189 0 l 1,1,-1
 85 0 l 1,2,-1
 85 104 l 1,3,-1
 189 104 l 1,4,-1
 189 0 l 1,0,-1
274 0 m 1,5,-1
 274 104 l 1,6,-1
 169 104 l 1,7,-1
 169 0 l 1,8,-1
 274 0 l 1,9,-1
 274 0 l 1,5,-1
358 0 m 1,10,-1
 358 0 l 1,11,-1
 253 0 l 1,12,-1
 253 104 l 1,13,-1
 358 104 l 1,14,-1
 358 0 l 1,10,-1
105 84 m 1,15,-1
 105 84 l 1,16,-1
 0 84 l 1,17,-1
 0 188 l 1,18,-1
 105 188 l 1,19,-1
 105 84 l 1,15,-1
105 421 m 1,20,-1
 105 421 l 1,21,-1
 0 421 l 1,22,-1
 0 526 l 1,23,-1
 105 526 l 1,24,-1
 105 421 l 1,20,-1
105 506 m 1,25,-1
 105 610 l 1,26,-1
 0 610 l 1,27,-1
 0 506 l 1,28,-1
 105 506 l 1,29,-1
 105 506 l 1,25,-1
189 337 m 1,30,-1
 189 337 l 1,31,-1
 85 337 l 1,32,-1
 85 441 l 1,33,-1
 189 441 l 1,34,-1
 189 337 l 1,30,-1
274 337 m 1,35,-1
 274 441 l 1,36,-1
 169 441 l 1,37,-1
 169 337 l 1,38,-1
 274 337 l 1,39,-1
 274 337 l 1,35,-1
442 84 m 1,40,-1
 442 188 l 1,41,-1
 338 188 l 1,42,-1
 338 84 l 1,43,-1
 442 84 l 1,44,-1
 442 84 l 1,40,-1
442 168 m 1,45,-1
 442 168 l 1,46,-1
 338 168 l 1,47,-1
 338 273 l 1,48,-1
 442 273 l 1,49,-1
 442 168 l 1,45,-1
442 253 m 1,50,-1
 442 357 l 1,51,-1
 338 357 l 1,52,-1
 338 253 l 1,53,-1
 442 253 l 1,54,-1
 442 253 l 1,50,-1
358 337 m 1,55,-1
 358 337 l 1,56,-1
 253 337 l 1,57,-1
 253 441 l 1,58,-1
 358 441 l 1,59,-1
 358 337 l 1,55,-1
189 590 m 1,60,-1
 189 590 l 1,61,-1
 85 590 l 1,62,-1
 85 694 l 1,63,-1
 189 694 l 1,64,-1
 189 590 l 1,60,-1
274 590 m 1,65,-1
 274 694 l 1,66,-1
 169 694 l 1,67,-1
 169 590 l 1,68,-1
 274 590 l 1,69,-1
 274 590 l 1,65,-1
358 590 m 1,70,-1
 358 590 l 1,71,-1
 253 590 l 1,72,-1
 253 694 l 1,73,-1
 358 694 l 1,74,-1
 358 590 l 1,70,-1
442 506 m 1,75,-1
 442 506 l 1,76,-1
 338 506 l 1,77,-1
 338 610 l 1,78,-1
 442 610 l 1,79,-1
 442 506 l 1,75,-1
442 505 m 2,80,-1
 338 505 l 2,81,82
 337 505 337 505 337 506 c 2,83,-1
 337 589 l 1,84,-1
 106 589 l 1,85,-1
 106 442 l 1,86,-1
 358 442 l 2,87,88
 359 442 359 442 359 441 c 2,89,-1
 359 358 l 1,90,-1
 442 358 l 2,91,92
 443 358 443 358 443 357 c 2,93,-1
 443 84 l 2,94,95
 443 83 443 83 442 83 c 2,96,-1
 359 83 l 1,97,-1
 359 0 l 2,98,99
 359 -1 359 -1 358 -1 c 2,100,-1
 85 -1 l 2,101,102
 84 -1 84 -1 84 0 c 2,103,-1
 84 83 l 1,104,-1
 0 83 l 2,105,106
 -1 83 -1 83 -1 84 c 2,107,-1
 -1 188 l 2,108,109
 -1 189 -1 189 0 189 c 2,110,-1
 105 189 l 2,111,112
 106 189 106 189 106 188 c 2,113,-1
 106 105 l 1,114,-1
 337 105 l 1,115,-1
 337 336 l 1,116,-1
 85 336 l 2,117,118
 84 336 84 336 84 337 c 2,119,-1
 84 420 l 1,120,-1
 0 420 l 2,121,122
 -1 420 -1 420 -1 421 c 2,123,-1
 -1 610 l 2,124,125
 -1 611 -1 611 0 611 c 2,126,-1
 84 611 l 1,127,-1
 84 694 l 2,128,129
 84 695 84 695 85 695 c 2,130,-1
 358 695 l 2,131,132
 359 695 359 695 359 694 c 2,133,-1
 359 611 l 1,134,-1
 442 611 l 2,135,136
 443 611 443 611 443 610 c 2,137,-1
 443 506 l 2,138,139
 443 505 443 505 442 505 c 2,80,-1
442 505 m 2,140,141
 443 505 443 505 443 506 c 2,142,-1
 443 610 l 2,143,144
 443 611 443 611 442 611 c 2,145,-1
 359 611 l 1,146,-1
 359 694 l 2,147,148
 359 695 359 695 358 695 c 2,149,-1
 85 695 l 2,150,151
 84 695 84 695 84 694 c 2,152,-1
 84 611 l 1,153,-1
 0 611 l 2,154,155
 -1 611 -1 611 -1 610 c 2,156,-1
 -1 421 l 2,157,158
 -1 420 -1 420 0 420 c 2,159,-1
 84 420 l 1,160,-1
 84 337 l 2,161,162
 84 336 84 336 85 336 c 2,163,-1
 337 336 l 1,164,-1
 337 105 l 1,165,-1
 106 105 l 1,166,-1
 106 188 l 2,167,168
 106 189 106 189 105 189 c 2,169,-1
 0 189 l 2,170,171
 -1 189 -1 189 -1 188 c 2,172,-1
 -1 84 l 2,173,174
 -1 83 -1 83 0 83 c 2,175,-1
 84 83 l 1,176,-1
 84 0 l 2,177,178
 84 -1 84 -1 85 -1 c 2,179,-1
 358 -1 l 2,180,181
 359 -1 359 -1 359 0 c 2,182,-1
 359 83 l 1,183,-1
 442 83 l 2,184,185
 443 83 443 83 443 84 c 2,186,-1
 443 357 l 2,187,188
 443 358 443 358 442 358 c 2,189,-1
 359 358 l 1,190,-1
 359 441 l 2,191,192
 359 442 359 442 358 442 c 2,193,-1
 106 442 l 1,194,-1
 106 589 l 1,195,-1
 337 589 l 1,196,-1
 337 506 l 2,197,198
 337 505 337 505 338 505 c 2,199,-1
 442 505 l 2,140,141
EndSplineSet
EndChar

StartChar: T
Encoding: 84 84 40
Width: 542
GlyphClass: 1
Flags: W
LayerCount: 2
Fore
SplineSet
189 590 m 1,0,-1
 189 694 l 1,1,-1
 85 694 l 1,2,-1
 85 590 l 1,3,-1
 189 590 l 1,4,-1
 189 590 l 1,0,-1
105 590 m 1,5,-1
 105 590 l 1,6,-1
 0 590 l 1,7,-1
 0 694 l 1,8,-1
 105 694 l 1,9,-1
 105 590 l 1,5,-1
274 84 m 1,10,-1
 274 188 l 1,11,-1
 169 188 l 1,12,-1
 169 84 l 1,13,-1
 274 84 l 1,14,-1
 274 84 l 1,10,-1
274 168 m 1,15,-1
 274 168 l 1,16,-1
 169 168 l 1,17,-1
 169 273 l 1,18,-1
 274 273 l 1,19,-1
 274 168 l 1,15,-1
274 253 m 1,20,-1
 274 357 l 1,21,-1
 169 357 l 1,22,-1
 169 253 l 1,23,-1
 274 253 l 1,24,-1
 274 253 l 1,20,-1
274 337 m 1,25,-1
 274 337 l 1,26,-1
 169 337 l 1,27,-1
 169 441 l 1,28,-1
 274 441 l 1,29,-1
 274 337 l 1,25,-1
274 421 m 1,30,-1
 274 526 l 1,31,-1
 169 526 l 1,32,-1
 169 421 l 1,33,-1
 274 421 l 1,34,-1
 274 421 l 1,30,-1
358 590 m 1,35,-1
 358 694 l 1,36,-1
 253 694 l 1,37,-1
 253 590 l 1,38,-1
 358 590 l 1,39,-1
 358 590 l 1,35,-1
274 506 m 1,40,-1
 274 506 l 1,41,-1
 169 506 l 1,42,-1
 169 610 l 1,43,-1
 274 610 l 1,44,-1
 274 506 l 1,40,-1
442 590 m 1,45,-1
 442 590 l 1,46,-1
 338 590 l 1,47,-1
 338 694 l 1,48,-1
 442 694 l 1,49,-1
 442 590 l 1,45,-1
274 590 m 1,50,-1
 274 590 l 1,51,-1
 169 590 l 1,52,-1
 169 694 l 1,53,-1
 274 694 l 1,54,-1
 274 590 l 1,50,-1
274 0 m 1,55,-1
 274 0 l 1,56,-1
 169 0 l 1,57,-1
 169 104 l 1,58,-1
 274 104 l 1,59,-1
 274 0 l 1,55,-1
274 -1 m 2,60,-1
 169 -1 l 2,61,62
 168 -1 168 -1 168 0 c 2,63,-1
 168 589 l 1,64,-1
 0 589 l 2,65,66
 -1 589 -1 589 -1 590 c 2,67,-1
 -1 694 l 2,68,69
 -1 695 -1 695 0 695 c 2,70,-1
 442 695 l 2,71,72
 443 695 443 695 443 694 c 2,73,-1
 443 590 l 2,74,75
 443 589 443 589 442 589 c 2,76,-1
 275 589 l 1,77,-1
 275 0 l 2,78,79
 275 -1 275 -1 274 -1 c 2,60,-1
274 -1 m 2,80,81
 275 -1 275 -1 275 0 c 2,82,-1
 275 589 l 1,83,-1
 442 589 l 2,84,85
 443 589 443 589 443 590 c 2,86,-1
 443 694 l 2,87,88
 443 695 443 695 442 695 c 2,89,-1
 0 695 l 2,90,91
 -1 695 -1 695 -1 694 c 2,92,-1
 -1 590 l 2,93,94
 -1 589 -1 589 0 589 c 2,95,-1
 168 589 l 1,96,-1
 168 0 l 2,97,98
 168 -1 168 -1 169 -1 c 2,99,-1
 274 -1 l 2,80,81
EndSplineSet
EndChar

StartChar: U
Encoding: 85 85 41
Width: 542
GlyphClass: 1
Flags: W
LayerCount: 2
Fore
SplineSet
189 0 m 1,0,-1
 189 0 l 1,1,-1
 85 0 l 1,2,-1
 85 104 l 1,3,-1
 189 104 l 1,4,-1
 189 0 l 1,0,-1
274 0 m 1,5,-1
 274 104 l 1,6,-1
 169 104 l 1,7,-1
 169 0 l 1,8,-1
 274 0 l 1,9,-1
 274 0 l 1,5,-1
358 0 m 1,10,-1
 358 0 l 1,11,-1
 253 0 l 1,12,-1
 253 104 l 1,13,-1
 358 104 l 1,14,-1
 358 0 l 1,10,-1
442 168 m 1,15,-1
 442 168 l 1,16,-1
 338 168 l 1,17,-1
 338 273 l 1,18,-1
 442 273 l 1,19,-1
 442 168 l 1,15,-1
442 253 m 1,20,-1
 442 357 l 1,21,-1
 338 357 l 1,22,-1
 338 253 l 1,23,-1
 442 253 l 1,24,-1
 442 253 l 1,20,-1
442 421 m 1,25,-1
 442 526 l 1,26,-1
 338 526 l 1,27,-1
 338 421 l 1,28,-1
 442 421 l 1,29,-1
 442 421 l 1,25,-1
442 506 m 1,30,-1
 442 506 l 1,31,-1
 338 506 l 1,32,-1
 338 610 l 1,33,-1
 442 610 l 1,34,-1
 442 506 l 1,30,-1
442 590 m 1,35,-1
 442 694 l 1,36,-1
 338 694 l 1,37,-1
 338 590 l 1,38,-1
 442 590 l 1,39,-1
 442 590 l 1,35,-1
442 337 m 1,40,-1
 442 337 l 1,41,-1
 338 337 l 1,42,-1
 338 441 l 1,43,-1
 442 441 l 1,44,-1
 442 337 l 1,40,-1
442 84 m 1,45,-1
 442 188 l 1,46,-1
 338 188 l 1,47,-1
 338 84 l 1,48,-1
 442 84 l 1,49,-1
 442 84 l 1,45,-1
105 84 m 1,50,-1
 105 84 l 1,51,-1
 0 84 l 1,52,-1
 0 188 l 1,53,-1
 105 188 l 1,54,-1
 105 84 l 1,50,-1
105 168 m 1,55,-1
 105 273 l 1,56,-1
 0 273 l 1,57,-1
 0 168 l 1,58,-1
 105 168 l 1,59,-1
 105 168 l 1,55,-1
105 253 m 1,60,-1
 105 253 l 1,61,-1
 0 253 l 1,62,-1
 0 357 l 1,63,-1
 105 357 l 1,64,-1
 105 253 l 1,60,-1
105 337 m 1,65,-1
 105 441 l 1,66,-1
 0 441 l 1,67,-1
 0 337 l 1,68,-1
 105 337 l 1,69,-1
 105 337 l 1,65,-1
105 421 m 1,70,-1
 105 421 l 1,71,-1
 0 421 l 1,72,-1
 0 526 l 1,73,-1
 105 526 l 1,74,-1
 105 421 l 1,70,-1
105 506 m 1,75,-1
 105 610 l 1,76,-1
 0 610 l 1,77,-1
 0 506 l 1,78,-1
 105 506 l 1,79,-1
 105 506 l 1,75,-1
105 590 m 1,80,-1
 105 590 l 1,81,-1
 0 590 l 1,82,-1
 0 694 l 1,83,-1
 105 694 l 1,84,-1
 105 590 l 1,80,-1
106 694 m 2,85,-1
 106 105 l 1,86,-1
 337 105 l 1,87,-1
 337 694 l 2,88,89
 337 695 337 695 338 695 c 2,90,-1
 442 695 l 2,91,92
 443 695 443 695 443 694 c 2,93,-1
 443 84 l 2,94,95
 443 83 443 83 442 83 c 2,96,-1
 359 83 l 1,97,-1
 359 0 l 2,98,99
 359 -1 359 -1 358 -1 c 2,100,-1
 85 -1 l 2,101,102
 84 -1 84 -1 84 0 c 2,103,-1
 84 83 l 1,104,-1
 0 83 l 2,105,106
 -1 83 -1 83 -1 84 c 2,107,-1
 -1 694 l 2,108,109
 -1 695 -1 695 0 695 c 2,110,-1
 105 695 l 2,111,112
 106 695 106 695 106 694 c 2,85,-1
106 694 m 2,113,114
 106 695 106 695 105 695 c 2,115,-1
 0 695 l 2,116,117
 -1 695 -1 695 -1 694 c 2,118,-1
 -1 84 l 2,119,120
 -1 83 -1 83 0 83 c 2,121,-1
 84 83 l 1,122,-1
 84 0 l 2,123,124
 84 -1 84 -1 85 -1 c 2,125,-1
 358 -1 l 2,126,127
 359 -1 359 -1 359 0 c 2,128,-1
 359 83 l 1,129,-1
 442 83 l 2,130,131
 443 83 443 83 443 84 c 2,132,-1
 443 694 l 2,133,134
 443 695 443 695 442 695 c 2,135,-1
 338 695 l 2,136,137
 337 695 337 695 337 694 c 2,138,-1
 337 105 l 1,139,-1
 106 105 l 1,140,-1
 106 694 l 2,113,114
EndSplineSet
EndChar

StartChar: V
Encoding: 86 86 42
Width: 542
GlyphClass: 1
Flags: W
LayerCount: 2
Fore
SplineSet
105 168 m 1,0,-1
 105 168 l 1,1,-1
 0 168 l 1,2,-1
 0 273 l 1,3,-1
 105 273 l 1,4,-1
 105 168 l 1,0,-1
105 253 m 1,5,-1
 105 357 l 1,6,-1
 0 357 l 1,7,-1
 0 253 l 1,8,-1
 105 253 l 1,9,-1
 105 253 l 1,5,-1
105 337 m 1,10,-1
 105 337 l 1,11,-1
 0 337 l 1,12,-1
 0 441 l 1,13,-1
 105 441 l 1,14,-1
 105 337 l 1,10,-1
105 421 m 1,15,-1
 105 526 l 1,16,-1
 0 526 l 1,17,-1
 0 421 l 1,18,-1
 105 421 l 1,19,-1
 105 421 l 1,15,-1
105 506 m 1,20,-1
 105 506 l 1,21,-1
 0 506 l 1,22,-1
 0 610 l 1,23,-1
 105 610 l 1,24,-1
 105 506 l 1,20,-1
105 590 m 1,25,-1
 105 694 l 1,26,-1
 0 694 l 1,27,-1
 0 590 l 1,28,-1
 105 590 l 1,29,-1
 105 590 l 1,25,-1
442 168 m 1,30,-1
 442 168 l 1,31,-1
 338 168 l 1,32,-1
 338 273 l 1,33,-1
 442 273 l 1,34,-1
 442 168 l 1,30,-1
442 253 m 1,35,-1
 442 357 l 1,36,-1
 338 357 l 1,37,-1
 338 253 l 1,38,-1
 442 253 l 1,39,-1
 442 253 l 1,35,-1
442 337 m 1,40,-1
 442 337 l 1,41,-1
 338 337 l 1,42,-1
 338 441 l 1,43,-1
 442 441 l 1,44,-1
 442 337 l 1,40,-1
442 421 m 1,45,-1
 442 526 l 1,46,-1
 338 526 l 1,47,-1
 338 421 l 1,48,-1
 442 421 l 1,49,-1
 442 421 l 1,45,-1
442 506 m 1,50,-1
 442 506 l 1,51,-1
 338 506 l 1,52,-1
 338 610 l 1,53,-1
 442 610 l 1,54,-1
 442 506 l 1,50,-1
442 590 m 1,55,-1
 442 694 l 1,56,-1
 338 694 l 1,57,-1
 338 590 l 1,58,-1
 442 590 l 1,59,-1
 442 590 l 1,55,-1
189 84 m 1,60,-1
 189 84 l 1,61,-1
 85 84 l 1,62,-1
 85 188 l 1,63,-1
 189 188 l 1,64,-1
 189 84 l 1,60,-1
358 84 m 1,65,-1
 358 188 l 1,66,-1
 253 188 l 1,67,-1
 253 84 l 1,68,-1
 358 84 l 1,69,-1
 358 84 l 1,65,-1
274 0 m 1,70,-1
 274 0 l 1,71,-1
 169 0 l 1,72,-1
 169 104 l 1,73,-1
 274 104 l 1,74,-1
 274 0 l 1,70,-1
274 -1 m 2,75,-1
 169 -1 l 2,76,77
 168 -1 168 -1 168 0 c 2,78,-1
 168 83 l 1,79,-1
 85 83 l 2,80,81
 84 83 84 83 84 84 c 2,82,-1
 84 167 l 1,83,-1
 0 167 l 2,84,85
 -1 167 -1 167 -1 168 c 2,86,-1
 -1 694 l 2,87,88
 -1 695 -1 695 0 695 c 2,89,-1
 105 695 l 2,90,91
 106 695 106 695 106 694 c 2,92,-1
 106 189 l 1,93,-1
 189 189 l 2,94,95
 190 189 190 189 190 188 c 2,96,-1
 190 105 l 1,97,-1
 252 105 l 1,98,-1
 252 188 l 2,99,100
 252 189 252 189 253 189 c 2,101,-1
 337 189 l 1,102,-1
 337 694 l 2,103,104
 337 695 337 695 338 695 c 2,105,-1
 442 695 l 2,106,107
 443 695 443 695 443 694 c 2,108,-1
 443 168 l 2,109,110
 443 167 443 167 442 167 c 2,111,-1
 359 167 l 1,112,-1
 359 84 l 2,113,114
 359 83 359 83 358 83 c 2,115,-1
 275 83 l 1,116,-1
 275 0 l 2,117,118
 275 -1 275 -1 274 -1 c 2,75,-1
274 -1 m 2,119,120
 275 -1 275 -1 275 0 c 2,121,-1
 275 83 l 1,122,-1
 358 83 l 2,123,124
 359 83 359 83 359 84 c 2,125,-1
 359 167 l 1,126,-1
 442 167 l 2,127,128
 443 167 443 167 443 168 c 2,129,-1
 443 694 l 2,130,131
 443 695 443 695 442 695 c 2,132,-1
 338 695 l 2,133,134
 337 695 337 695 337 694 c 2,135,-1
 337 189 l 1,136,-1
 253 189 l 2,137,138
 252 189 252 189 252 188 c 2,139,-1
 252 105 l 1,140,-1
 190 105 l 1,141,-1
 190 188 l 2,142,143
 190 189 190 189 189 189 c 2,144,-1
 106 189 l 1,145,-1
 106 694 l 2,146,147
 106 695 106 695 105 695 c 2,148,-1
 0 695 l 2,149,150
 -1 695 -1 695 -1 694 c 2,151,-1
 -1 168 l 2,152,153
 -1 167 -1 167 0 167 c 2,154,-1
 84 167 l 1,155,-1
 84 84 l 2,156,157
 84 83 84 83 85 83 c 2,158,-1
 168 83 l 1,159,-1
 168 0 l 2,160,161
 168 -1 168 -1 169 -1 c 2,162,-1
 274 -1 l 2,119,120
EndSplineSet
EndChar

StartChar: Y
Encoding: 89 89 43
Width: 542
GlyphClass: 1
Flags: W
LayerCount: 2
Fore
SplineSet
442 590 m 1,0,-1
 442 694 l 1,1,-1
 338 694 l 1,2,-1
 338 590 l 1,3,-1
 442 590 l 1,4,-1
 442 590 l 1,0,-1
105 590 m 1,5,-1
 105 694 l 1,6,-1
 0 694 l 1,7,-1
 0 590 l 1,8,-1
 105 590 l 1,9,-1
 105 590 l 1,5,-1
105 506 m 1,10,-1
 105 506 l 1,11,-1
 0 506 l 1,12,-1
 0 610 l 1,13,-1
 105 610 l 1,14,-1
 105 506 l 1,10,-1
442 506 m 1,15,-1
 442 506 l 1,16,-1
 338 506 l 1,17,-1
 338 610 l 1,18,-1
 442 610 l 1,19,-1
 442 506 l 1,15,-1
358 421 m 1,20,-1
 358 526 l 1,21,-1
 253 526 l 1,22,-1
 253 421 l 1,23,-1
 358 421 l 1,24,-1
 358 421 l 1,20,-1
189 421 m 1,25,-1
 189 421 l 1,26,-1
 85 421 l 1,27,-1
 85 526 l 1,28,-1
 189 526 l 1,29,-1
 189 421 l 1,25,-1
274 0 m 1,30,-1
 274 0 l 1,31,-1
 169 0 l 1,32,-1
 169 104 l 1,33,-1
 274 104 l 1,34,-1
 274 0 l 1,30,-1
274 84 m 1,35,-1
 274 188 l 1,36,-1
 169 188 l 1,37,-1
 169 84 l 1,38,-1
 274 84 l 1,39,-1
 274 84 l 1,35,-1
274 168 m 1,40,-1
 274 168 l 1,41,-1
 169 168 l 1,42,-1
 169 273 l 1,43,-1
 274 273 l 1,44,-1
 274 168 l 1,40,-1
274 253 m 1,45,-1
 274 357 l 1,46,-1
 169 357 l 1,47,-1
 169 253 l 1,48,-1
 274 253 l 1,49,-1
 274 253 l 1,45,-1
274 337 m 1,50,-1
 274 337 l 1,51,-1
 169 337 l 1,52,-1
 169 441 l 1,53,-1
 274 441 l 1,54,-1
 274 337 l 1,50,-1
274 -1 m 2,55,-1
 169 -1 l 2,56,57
 168 -1 168 -1 168 0 c 2,58,-1
 168 420 l 1,59,-1
 85 420 l 2,60,61
 84 420 84 420 84 421 c 2,62,-1
 84 505 l 1,63,-1
 0 505 l 2,64,65
 -1 505 -1 505 -1 506 c 2,66,-1
 -1 694 l 2,67,68
 -1 695 -1 695 0 695 c 2,69,-1
 105 695 l 2,70,71
 106 695 106 695 106 694 c 2,72,-1
 106 527 l 1,73,-1
 189 527 l 2,74,75
 190 527 190 527 190 526 c 2,76,-1
 190 442 l 1,77,-1
 252 442 l 1,78,-1
 252 526 l 2,79,80
 252 527 252 527 253 527 c 2,81,-1
 337 527 l 1,82,-1
 337 694 l 2,83,84
 337 695 337 695 338 695 c 2,85,-1
 442 695 l 2,86,87
 443 695 443 695 443 694 c 2,88,-1
 443 506 l 2,89,90
 443 505 443 505 442 505 c 2,91,-1
 359 505 l 1,92,-1
 359 421 l 2,93,94
 359 420 359 420 358 420 c 2,95,-1
 275 420 l 1,96,-1
 275 0 l 2,97,98
 275 -1 275 -1 274 -1 c 2,55,-1
274 -1 m 2,99,100
 275 -1 275 -1 275 0 c 2,101,-1
 275 420 l 1,102,-1
 358 420 l 2,103,104
 359 420 359 420 359 421 c 2,105,-1
 359 505 l 1,106,-1
 442 505 l 2,107,108
 443 505 443 505 443 506 c 2,109,-1
 443 694 l 2,110,111
 443 695 443 695 442 695 c 2,112,-1
 338 695 l 2,113,114
 337 695 337 695 337 694 c 2,115,-1
 337 527 l 1,116,-1
 253 527 l 2,117,118
 252 527 252 527 252 526 c 2,119,-1
 252 442 l 1,120,-1
 190 442 l 1,121,-1
 190 526 l 2,122,123
 190 527 190 527 189 527 c 2,124,-1
 106 527 l 1,125,-1
 106 694 l 2,126,127
 106 695 106 695 105 695 c 2,128,-1
 0 695 l 2,129,130
 -1 695 -1 695 -1 694 c 2,131,-1
 -1 506 l 2,132,133
 -1 505 -1 505 0 505 c 2,134,-1
 84 505 l 1,135,-1
 84 421 l 2,136,137
 84 420 84 420 85 420 c 2,138,-1
 168 420 l 1,139,-1
 168 0 l 2,140,141
 168 -1 168 -1 169 -1 c 2,142,-1
 274 -1 l 2,99,100
EndSplineSet
EndChar

StartChar: a
Encoding: 97 97 44
Width: 542
GlyphClass: 1
Flags: W
LayerCount: 2
Fore
SplineSet
189 421 m 1,0,-1
 189 421 l 1,1,-1
 85 421 l 1,2,-1
 85 526 l 1,3,-1
 189 526 l 1,4,-1
 189 421 l 1,0,-1
274 421 m 1,5,-1
 274 526 l 1,6,-1
 169 526 l 1,7,-1
 169 421 l 1,8,-1
 274 421 l 1,9,-1
 274 421 l 1,5,-1
358 421 m 1,10,-1
 358 421 l 1,11,-1
 253 421 l 1,12,-1
 253 526 l 1,13,-1
 358 526 l 1,14,-1
 358 421 l 1,10,-1
189 253 m 1,15,-1
 189 253 l 1,16,-1
 85 253 l 1,17,-1
 85 357 l 1,18,-1
 189 357 l 1,19,-1
 189 253 l 1,15,-1
274 253 m 1,20,-1
 274 357 l 1,21,-1
 169 357 l 1,22,-1
 169 253 l 1,23,-1
 274 253 l 1,24,-1
 274 253 l 1,20,-1
442 84 m 1,25,-1
 442 188 l 1,26,-1
 338 188 l 1,27,-1
 338 84 l 1,28,-1
 442 84 l 1,29,-1
 442 84 l 1,25,-1
442 168 m 1,30,-1
 442 168 l 1,31,-1
 338 168 l 1,32,-1
 338 273 l 1,33,-1
 442 273 l 1,34,-1
 442 168 l 1,30,-1
442 253 m 1,35,-1
 442 357 l 1,36,-1
 338 357 l 1,37,-1
 338 253 l 1,38,-1
 442 253 l 1,39,-1
 442 253 l 1,35,-1
442 337 m 1,40,-1
 442 337 l 1,41,-1
 338 337 l 1,42,-1
 338 441 l 1,43,-1
 442 441 l 1,44,-1
 442 337 l 1,40,-1
358 253 m 1,45,-1
 358 253 l 1,46,-1
 253 253 l 1,47,-1
 253 357 l 1,48,-1
 358 357 l 1,49,-1
 358 253 l 1,45,-1
358 84 m 1,50,-1
 358 84 l 1,51,-1
 253 84 l 1,52,-1
 253 188 l 1,53,-1
 358 188 l 1,54,-1
 358 84 l 1,50,-1
105 84 m 1,55,-1
 105 84 l 1,56,-1
 0 84 l 1,57,-1
 0 188 l 1,58,-1
 105 188 l 1,59,-1
 105 84 l 1,55,-1
105 168 m 1,60,-1
 105 273 l 1,61,-1
 0 273 l 1,62,-1
 0 168 l 1,63,-1
 105 168 l 1,64,-1
 105 168 l 1,60,-1
442 0 m 1,65,-1
 442 0 l 1,66,-1
 338 0 l 1,67,-1
 338 104 l 1,68,-1
 442 104 l 1,69,-1
 442 0 l 1,65,-1
274 0 m 1,70,-1
 274 104 l 1,71,-1
 169 104 l 1,72,-1
 169 0 l 1,73,-1
 274 0 l 1,74,-1
 274 0 l 1,70,-1
189 0 m 1,75,-1
 189 0 l 1,76,-1
 85 0 l 1,77,-1
 85 104 l 1,78,-1
 189 104 l 1,79,-1
 189 0 l 1,75,-1
442 -1 m 2,80,-1
 338 -1 l 2,81,82
 337 -1 337 -1 337 0 c 2,83,-1
 337 83 l 1,84,-1
 275 83 l 1,85,-1
 275 0 l 2,86,87
 275 -1 275 -1 274 -1 c 2,88,-1
 85 -1 l 2,89,90
 84 -1 84 -1 84 0 c 2,91,-1
 84 83 l 1,92,-1
 0 83 l 2,93,94
 -1 83 -1 83 -1 84 c 2,95,-1
 -1 273 l 2,96,97
 -1 274 -1 274 0 274 c 2,98,-1
 84 274 l 1,99,-1
 84 357 l 2,100,101
 84 358 84 358 85 358 c 2,102,-1
 337 358 l 1,103,-1
 337 420 l 1,104,-1
 85 420 l 2,105,106
 84 420 84 420 84 421 c 2,107,-1
 84 526 l 2,108,109
 84 527 84 527 85 527 c 2,110,-1
 358 527 l 2,111,112
 359 527 359 527 359 526 c 2,113,-1
 359 442 l 1,114,-1
 442 442 l 2,115,116
 443 442 443 442 443 441 c 2,117,-1
 443 0 l 2,118,119
 443 -1 443 -1 442 -1 c 2,80,-1
106 105 m 1,120,-1
 106 252 l 1,121,-1
 337 252 l 1,122,-1
 337 189 l 1,123,-1
 253 189 l 2,124,125
 252 189 252 189 252 188 c 2,126,-1
 252 105 l 1,127,-1
 106 105 l 1,120,-1
442 -1 m 2,128,129
 443 -1 443 -1 443 0 c 2,130,-1
 443 441 l 2,131,132
 443 442 443 442 442 442 c 2,133,-1
 359 442 l 1,134,-1
 359 526 l 2,135,136
 359 527 359 527 358 527 c 2,137,-1
 85 527 l 2,138,139
 84 527 84 527 84 526 c 2,140,-1
 84 421 l 2,141,142
 84 420 84 420 85 420 c 2,143,-1
 337 420 l 1,144,-1
 337 358 l 1,145,-1
 85 358 l 2,146,147
 84 358 84 358 84 357 c 2,148,-1
 84 274 l 1,149,-1
 0 274 l 2,150,151
 -1 274 -1 274 -1 273 c 2,152,-1
 -1 84 l 2,153,154
 -1 83 -1 83 0 83 c 2,155,-1
 84 83 l 1,156,-1
 84 0 l 2,157,158
 84 -1 84 -1 85 -1 c 2,159,-1
 274 -1 l 2,160,161
 275 -1 275 -1 275 0 c 2,162,-1
 275 83 l 1,163,-1
 337 83 l 1,164,-1
 337 0 l 2,165,166
 337 -1 337 -1 338 -1 c 2,167,-1
 442 -1 l 2,128,129
106 105 m 1,168,-1
 252 105 l 1,169,-1
 252 188 l 2,170,171
 252 189 252 189 253 189 c 2,172,-1
 337 189 l 1,173,-1
 337 252 l 1,174,-1
 106 252 l 1,175,-1
 106 105 l 1,168,-1
EndSplineSet
EndChar

StartChar: b
Encoding: 98 98 45
Width: 542
GlyphClass: 1
Flags: W
LayerCount: 2
Fore
SplineSet
105 0 m 1,0,-1
 105 0 l 1,1,-1
 0 0 l 1,2,-1
 0 104 l 1,3,-1
 105 104 l 1,4,-1
 105 0 l 1,0,-1
105 84 m 1,5,-1
 105 188 l 1,6,-1
 0 188 l 1,7,-1
 0 84 l 1,8,-1
 105 84 l 1,9,-1
 105 84 l 1,5,-1
105 168 m 1,10,-1
 105 168 l 1,11,-1
 0 168 l 1,12,-1
 0 273 l 1,13,-1
 105 273 l 1,14,-1
 105 168 l 1,10,-1
105 253 m 1,15,-1
 105 357 l 1,16,-1
 0 357 l 1,17,-1
 0 253 l 1,18,-1
 105 253 l 1,19,-1
 105 253 l 1,15,-1
105 337 m 1,20,-1
 105 337 l 1,21,-1
 0 337 l 1,22,-1
 0 441 l 1,23,-1
 105 441 l 1,24,-1
 105 337 l 1,20,-1
189 84 m 1,25,-1
 189 84 l 1,26,-1
 85 84 l 1,27,-1
 85 188 l 1,28,-1
 189 188 l 1,29,-1
 189 84 l 1,25,-1
274 0 m 1,30,-1
 274 0 l 1,31,-1
 169 0 l 1,32,-1
 169 104 l 1,33,-1
 274 104 l 1,34,-1
 274 0 l 1,30,-1
358 0 m 1,35,-1
 358 104 l 1,36,-1
 253 104 l 1,37,-1
 253 0 l 1,38,-1
 358 0 l 1,39,-1
 358 0 l 1,35,-1
442 84 m 1,40,-1
 442 84 l 1,41,-1
 338 84 l 1,42,-1
 338 188 l 1,43,-1
 442 188 l 1,44,-1
 442 84 l 1,40,-1
442 168 m 1,45,-1
 442 273 l 1,46,-1
 338 273 l 1,47,-1
 338 168 l 1,48,-1
 442 168 l 1,49,-1
 442 168 l 1,45,-1
442 253 m 1,50,-1
 442 253 l 1,51,-1
 338 253 l 1,52,-1
 338 357 l 1,53,-1
 442 357 l 1,54,-1
 442 253 l 1,50,-1
189 421 m 1,55,-1
 189 421 l 1,56,-1
 85 421 l 1,57,-1
 85 526 l 1,58,-1
 189 526 l 1,59,-1
 189 421 l 1,55,-1
274 421 m 1,60,-1
 274 526 l 1,61,-1
 169 526 l 1,62,-1
 169 421 l 1,63,-1
 274 421 l 1,64,-1
 274 421 l 1,60,-1
358 421 m 1,65,-1
 358 421 l 1,66,-1
 253 421 l 1,67,-1
 253 526 l 1,68,-1
 358 526 l 1,69,-1
 358 421 l 1,65,-1
442 337 m 1,70,-1
 442 441 l 1,71,-1
 338 441 l 1,72,-1
 338 337 l 1,73,-1
 442 337 l 1,74,-1
 442 337 l 1,70,-1
105 421 m 1,75,-1
 105 526 l 1,76,-1
 0 526 l 1,77,-1
 0 421 l 1,78,-1
 105 421 l 1,79,-1
 105 421 l 1,75,-1
105 506 m 1,80,-1
 105 506 l 1,81,-1
 0 506 l 1,82,-1
 0 610 l 1,83,-1
 105 610 l 1,84,-1
 105 506 l 1,80,-1
105 590 m 1,85,-1
 105 694 l 1,86,-1
 0 694 l 1,87,-1
 0 590 l 1,88,-1
 105 590 l 1,89,-1
 105 590 l 1,85,-1
105 -1 m 2,90,-1
 0 -1 l 2,91,92
 -1 -1 -1 -1 -1 0 c 2,93,-1
 -1 694 l 2,94,95
 -1 695 -1 695 0 695 c 2,96,-1
 105 695 l 2,97,98
 106 695 106 695 106 694 c 2,99,-1
 106 527 l 1,100,-1
 358 527 l 2,101,102
 359 527 359 527 359 526 c 2,103,-1
 359 442 l 1,104,-1
 442 442 l 2,105,106
 443 442 443 442 443 441 c 2,107,-1
 443 84 l 2,108,109
 443 83 443 83 442 83 c 2,110,-1
 359 83 l 1,111,-1
 359 0 l 2,112,113
 359 -1 359 -1 358 -1 c 2,114,-1
 169 -1 l 2,115,116
 168 -1 168 -1 168 0 c 2,117,-1
 168 83 l 1,118,-1
 106 83 l 1,119,-1
 106 0 l 2,120,121
 106 -1 106 -1 105 -1 c 2,90,-1
337 420 m 1,122,-1
 337 105 l 1,123,-1
 190 105 l 1,124,-1
 190 188 l 2,125,126
 190 189 190 189 189 189 c 2,127,-1
 106 189 l 1,128,-1
 106 420 l 1,129,-1
 337 420 l 1,122,-1
105 -1 m 2,130,131
 106 -1 106 -1 106 0 c 2,132,-1
 106 83 l 1,133,-1
 168 83 l 1,134,-1
 168 0 l 2,135,136
 168 -1 168 -1 169 -1 c 2,137,-1
 358 -1 l 2,138,139
 359 -1 359 -1 359 0 c 2,140,-1
 359 83 l 1,141,-1
 442 83 l 2,142,143
 443 83 443 83 443 84 c 2,144,-1
 443 441 l 2,145,146
 443 442 443 442 442 442 c 2,147,-1
 359 442 l 1,148,-1
 359 526 l 2,149,150
 359 527 359 527 358 527 c 2,151,-1
 106 527 l 1,152,-1
 106 694 l 2,153,154
 106 695 106 695 105 695 c 2,155,-1
 0 695 l 2,156,157
 -1 695 -1 695 -1 694 c 2,158,-1
 -1 0 l 2,159,160
 -1 -1 -1 -1 0 -1 c 2,161,-1
 105 -1 l 2,130,131
337 420 m 1,162,-1
 106 420 l 1,163,-1
 106 189 l 1,164,-1
 189 189 l 2,165,166
 190 189 190 189 190 188 c 2,167,-1
 190 105 l 1,168,-1
 337 105 l 1,169,-1
 337 420 l 1,162,-1
EndSplineSet
EndChar

StartChar: c
Encoding: 99 99 46
Width: 542
GlyphClass: 1
Flags: W
LayerCount: 2
Fore
SplineSet
105 84 m 1,0,-1
 105 84 l 1,1,-1
 0 84 l 1,2,-1
 0 188 l 1,3,-1
 105 188 l 1,4,-1
 105 84 l 1,0,-1
105 168 m 1,5,-1
 105 273 l 1,6,-1
 0 273 l 1,7,-1
 0 168 l 1,8,-1
 105 168 l 1,9,-1
 105 168 l 1,5,-1
105 253 m 1,10,-1
 105 253 l 1,11,-1
 0 253 l 1,12,-1
 0 357 l 1,13,-1
 105 357 l 1,14,-1
 105 253 l 1,10,-1
105 337 m 1,15,-1
 105 441 l 1,16,-1
 0 441 l 1,17,-1
 0 337 l 1,18,-1
 105 337 l 1,19,-1
 105 337 l 1,15,-1
189 421 m 1,20,-1
 189 421 l 1,21,-1
 85 421 l 1,22,-1
 85 526 l 1,23,-1
 189 526 l 1,24,-1
 189 421 l 1,20,-1
274 421 m 1,25,-1
 274 526 l 1,26,-1
 169 526 l 1,27,-1
 169 421 l 1,28,-1
 274 421 l 1,29,-1
 274 421 l 1,25,-1
358 421 m 1,30,-1
 358 421 l 1,31,-1
 253 421 l 1,32,-1
 253 526 l 1,33,-1
 358 526 l 1,34,-1
 358 421 l 1,30,-1
442 337 m 1,35,-1
 442 337 l 1,36,-1
 338 337 l 1,37,-1
 338 441 l 1,38,-1
 442 441 l 1,39,-1
 442 337 l 1,35,-1
442 84 m 1,40,-1
 442 188 l 1,41,-1
 338 188 l 1,42,-1
 338 84 l 1,43,-1
 442 84 l 1,44,-1
 442 84 l 1,40,-1
358 0 m 1,45,-1
 358 0 l 1,46,-1
 253 0 l 1,47,-1
 253 104 l 1,48,-1
 358 104 l 1,49,-1
 358 0 l 1,45,-1
274 0 m 1,50,-1
 274 104 l 1,51,-1
 169 104 l 1,52,-1
 169 0 l 1,53,-1
 274 0 l 1,54,-1
 274 0 l 1,50,-1
189 0 m 1,55,-1
 189 0 l 1,56,-1
 85 0 l 1,57,-1
 85 104 l 1,58,-1
 189 104 l 1,59,-1
 189 0 l 1,55,-1
442 336 m 2,60,-1
 338 336 l 2,61,62
 337 336 337 336 337 337 c 2,63,-1
 337 420 l 1,64,-1
 106 420 l 1,65,-1
 106 105 l 1,66,-1
 337 105 l 1,67,-1
 337 188 l 2,68,69
 337 189 337 189 338 189 c 2,70,-1
 442 189 l 2,71,72
 443 189 443 189 443 188 c 2,73,-1
 443 84 l 2,74,75
 443 83 443 83 442 83 c 2,76,-1
 359 83 l 1,77,-1
 359 0 l 2,78,79
 359 -1 359 -1 358 -1 c 2,80,-1
 85 -1 l 2,81,82
 84 -1 84 -1 84 0 c 2,83,-1
 84 83 l 1,84,-1
 0 83 l 2,85,86
 -1 83 -1 83 -1 84 c 2,87,-1
 -1 441 l 2,88,89
 -1 442 -1 442 0 442 c 2,90,-1
 84 442 l 1,91,-1
 84 526 l 2,92,93
 84 527 84 527 85 527 c 2,94,-1
 358 527 l 2,95,96
 359 527 359 527 359 526 c 2,97,-1
 359 442 l 1,98,-1
 442 442 l 2,99,100
 443 442 443 442 443 441 c 2,101,-1
 443 337 l 2,102,103
 443 336 443 336 442 336 c 2,60,-1
442 336 m 2,104,105
 443 336 443 336 443 337 c 2,106,-1
 443 441 l 2,107,108
 443 442 443 442 442 442 c 2,109,-1
 359 442 l 1,110,-1
 359 526 l 2,111,112
 359 527 359 527 358 527 c 2,113,-1
 85 527 l 2,114,115
 84 527 84 527 84 526 c 2,116,-1
 84 442 l 1,117,-1
 0 442 l 2,118,119
 -1 442 -1 442 -1 441 c 2,120,-1
 -1 84 l 2,121,122
 -1 83 -1 83 0 83 c 2,123,-1
 84 83 l 1,124,-1
 84 0 l 2,125,126
 84 -1 84 -1 85 -1 c 2,127,-1
 358 -1 l 2,128,129
 359 -1 359 -1 359 0 c 2,130,-1
 359 83 l 1,131,-1
 442 83 l 2,132,133
 443 83 443 83 443 84 c 2,134,-1
 443 188 l 2,135,136
 443 189 443 189 442 189 c 2,137,-1
 338 189 l 2,138,139
 337 189 337 189 337 188 c 2,140,-1
 337 105 l 1,141,-1
 106 105 l 1,142,-1
 106 420 l 1,143,-1
 337 420 l 1,144,-1
 337 337 l 2,145,146
 337 336 337 336 338 336 c 2,147,-1
 442 336 l 2,104,105
EndSplineSet
EndChar

StartChar: d
Encoding: 100 100 47
Width: 542
GlyphClass: 1
Flags: W
LayerCount: 2
Fore
SplineSet
105 84 m 1,0,-1
 105 84 l 1,1,-1
 0 84 l 1,2,-1
 0 188 l 1,3,-1
 105 188 l 1,4,-1
 105 84 l 1,0,-1
105 168 m 1,5,-1
 105 273 l 1,6,-1
 0 273 l 1,7,-1
 0 168 l 1,8,-1
 105 168 l 1,9,-1
 105 168 l 1,5,-1
105 253 m 1,10,-1
 105 253 l 1,11,-1
 0 253 l 1,12,-1
 0 357 l 1,13,-1
 105 357 l 1,14,-1
 105 253 l 1,10,-1
105 337 m 1,15,-1
 105 441 l 1,16,-1
 0 441 l 1,17,-1
 0 337 l 1,18,-1
 105 337 l 1,19,-1
 105 337 l 1,15,-1
442 168 m 1,20,-1
 442 168 l 1,21,-1
 338 168 l 1,22,-1
 338 273 l 1,23,-1
 442 273 l 1,24,-1
 442 168 l 1,20,-1
358 84 m 1,25,-1
 358 84 l 1,26,-1
 253 84 l 1,27,-1
 253 188 l 1,28,-1
 358 188 l 1,29,-1
 358 84 l 1,25,-1
442 84 m 1,30,-1
 442 188 l 1,31,-1
 338 188 l 1,32,-1
 338 84 l 1,33,-1
 442 84 l 1,34,-1
 442 84 l 1,30,-1
358 421 m 1,35,-1
 358 421 l 1,36,-1
 253 421 l 1,37,-1
 253 526 l 1,38,-1
 358 526 l 1,39,-1
 358 421 l 1,35,-1
274 421 m 1,40,-1
 274 526 l 1,41,-1
 169 526 l 1,42,-1
 169 421 l 1,43,-1
 274 421 l 1,44,-1
 274 421 l 1,40,-1
189 421 m 1,45,-1
 189 421 l 1,46,-1
 85 421 l 1,47,-1
 85 526 l 1,48,-1
 189 526 l 1,49,-1
 189 421 l 1,45,-1
442 421 m 1,50,-1
 442 526 l 1,51,-1
 338 526 l 1,52,-1
 338 421 l 1,53,-1
 442 421 l 1,54,-1
 442 421 l 1,50,-1
442 506 m 1,55,-1
 442 506 l 1,56,-1
 338 506 l 1,57,-1
 338 610 l 1,58,-1
 442 610 l 1,59,-1
 442 506 l 1,55,-1
442 590 m 1,60,-1
 442 694 l 1,61,-1
 338 694 l 1,62,-1
 338 590 l 1,63,-1
 442 590 l 1,64,-1
 442 590 l 1,60,-1
442 253 m 1,65,-1
 442 357 l 1,66,-1
 338 357 l 1,67,-1
 338 253 l 1,68,-1
 442 253 l 1,69,-1
 442 253 l 1,65,-1
442 337 m 1,70,-1
 442 337 l 1,71,-1
 338 337 l 1,72,-1
 338 441 l 1,73,-1
 442 441 l 1,74,-1
 442 337 l 1,70,-1
442 0 m 1,75,-1
 442 0 l 1,76,-1
 338 0 l 1,77,-1
 338 104 l 1,78,-1
 442 104 l 1,79,-1
 442 0 l 1,75,-1
274 0 m 1,80,-1
 274 104 l 1,81,-1
 169 104 l 1,82,-1
 169 0 l 1,83,-1
 274 0 l 1,84,-1
 274 0 l 1,80,-1
189 0 m 1,85,-1
 189 0 l 1,86,-1
 85 0 l 1,87,-1
 85 104 l 1,88,-1
 189 104 l 1,89,-1
 189 0 l 1,85,-1
442 -1 m 2,90,-1
 338 -1 l 2,91,92
 337 -1 337 -1 337 0 c 2,93,-1
 337 83 l 1,94,-1
 275 83 l 1,95,-1
 275 0 l 2,96,97
 275 -1 275 -1 274 -1 c 2,98,-1
 85 -1 l 2,99,100
 84 -1 84 -1 84 0 c 2,101,-1
 84 83 l 1,102,-1
 0 83 l 2,103,104
 -1 83 -1 83 -1 84 c 2,105,-1
 -1 441 l 2,106,107
 -1 442 -1 442 0 442 c 2,108,-1
 84 442 l 1,109,-1
 84 526 l 2,110,111
 84 527 84 527 85 527 c 2,112,-1
 337 527 l 1,113,-1
 337 694 l 2,114,115
 337 695 337 695 338 695 c 2,116,-1
 442 695 l 2,117,118
 443 695 443 695 443 694 c 2,119,-1
 443 0 l 2,120,121
 443 -1 443 -1 442 -1 c 2,90,-1
106 105 m 1,122,-1
 106 420 l 1,123,-1
 337 420 l 1,124,-1
 337 189 l 1,125,-1
 253 189 l 2,126,127
 252 189 252 189 252 188 c 2,128,-1
 252 105 l 1,129,-1
 106 105 l 1,122,-1
442 -1 m 2,130,131
 443 -1 443 -1 443 0 c 2,132,-1
 443 694 l 2,133,134
 443 695 443 695 442 695 c 2,135,-1
 338 695 l 2,136,137
 337 695 337 695 337 694 c 2,138,-1
 337 527 l 1,139,-1
 85 527 l 2,140,141
 84 527 84 527 84 526 c 2,142,-1
 84 442 l 1,143,-1
 0 442 l 2,144,145
 -1 442 -1 442 -1 441 c 2,146,-1
 -1 84 l 2,147,148
 -1 83 -1 83 0 83 c 2,149,-1
 84 83 l 1,150,-1
 84 0 l 2,151,152
 84 -1 84 -1 85 -1 c 2,153,-1
 274 -1 l 2,154,155
 275 -1 275 -1 275 0 c 2,156,-1
 275 83 l 1,157,-1
 337 83 l 1,158,-1
 337 0 l 2,159,160
 337 -1 337 -1 338 -1 c 2,161,-1
 442 -1 l 2,130,131
106 105 m 1,162,-1
 252 105 l 1,163,-1
 252 188 l 2,164,165
 252 189 252 189 253 189 c 2,166,-1
 337 189 l 1,167,-1
 337 420 l 1,168,-1
 106 420 l 1,169,-1
 106 105 l 1,162,-1
EndSplineSet
EndChar

StartChar: e
Encoding: 101 101 48
Width: 542
GlyphClass: 1
Flags: W
LayerCount: 2
Fore
SplineSet
274 421 m 1,0,-1
 274 526 l 1,1,-1
 169 526 l 1,2,-1
 169 421 l 1,3,-1
 274 421 l 1,4,-1
 274 421 l 1,0,-1
189 253 m 1,5,-1
 189 253 l 1,6,-1
 85 253 l 1,7,-1
 85 357 l 1,8,-1
 189 357 l 1,9,-1
 189 253 l 1,5,-1
274 253 m 1,10,-1
 274 357 l 1,11,-1
 169 357 l 1,12,-1
 169 253 l 1,13,-1
 274 253 l 1,14,-1
 274 253 l 1,10,-1
358 253 m 1,15,-1
 358 253 l 1,16,-1
 253 253 l 1,17,-1
 253 357 l 1,18,-1
 358 357 l 1,19,-1
 358 253 l 1,15,-1
442 253 m 1,20,-1
 442 357 l 1,21,-1
 338 357 l 1,22,-1
 338 253 l 1,23,-1
 442 253 l 1,24,-1
 442 253 l 1,20,-1
442 337 m 1,25,-1
 442 337 l 1,26,-1
 338 337 l 1,27,-1
 338 441 l 1,28,-1
 442 441 l 1,29,-1
 442 337 l 1,25,-1
358 421 m 1,30,-1
 358 421 l 1,31,-1
 253 421 l 1,32,-1
 253 526 l 1,33,-1
 358 526 l 1,34,-1
 358 421 l 1,30,-1
189 421 m 1,35,-1
 189 421 l 1,36,-1
 85 421 l 1,37,-1
 85 526 l 1,38,-1
 189 526 l 1,39,-1
 189 421 l 1,35,-1
105 168 m 1,40,-1
 105 273 l 1,41,-1
 0 273 l 1,42,-1
 0 168 l 1,43,-1
 105 168 l 1,44,-1
 105 168 l 1,40,-1
105 253 m 1,45,-1
 105 253 l 1,46,-1
 0 253 l 1,47,-1
 0 357 l 1,48,-1
 105 357 l 1,49,-1
 105 253 l 1,45,-1
105 337 m 1,50,-1
 105 441 l 1,51,-1
 0 441 l 1,52,-1
 0 337 l 1,53,-1
 105 337 l 1,54,-1
 105 337 l 1,50,-1
105 84 m 1,55,-1
 105 84 l 1,56,-1
 0 84 l 1,57,-1
 0 188 l 1,58,-1
 105 188 l 1,59,-1
 105 84 l 1,55,-1
442 0 m 1,60,-1
 442 104 l 1,61,-1
 338 104 l 1,62,-1
 338 0 l 1,63,-1
 442 0 l 1,64,-1
 442 0 l 1,60,-1
358 0 m 1,65,-1
 358 0 l 1,66,-1
 253 0 l 1,67,-1
 253 104 l 1,68,-1
 358 104 l 1,69,-1
 358 0 l 1,65,-1
274 0 m 1,70,-1
 274 104 l 1,71,-1
 169 104 l 1,72,-1
 169 0 l 1,73,-1
 274 0 l 1,74,-1
 274 0 l 1,70,-1
189 0 m 1,75,-1
 189 0 l 1,76,-1
 85 0 l 1,77,-1
 85 104 l 1,78,-1
 189 104 l 1,79,-1
 189 0 l 1,75,-1
106 105 m 1,80,-1
 442 105 l 2,81,82
 443 105 443 105 443 104 c 2,83,-1
 443 0 l 2,84,85
 443 -1 443 -1 442 -1 c 2,86,-1
 85 -1 l 2,87,88
 84 -1 84 -1 84 0 c 2,89,-1
 84 83 l 1,90,-1
 0 83 l 2,91,92
 -1 83 -1 83 -1 84 c 2,93,-1
 -1 441 l 2,94,95
 -1 442 -1 442 0 442 c 2,96,-1
 84 442 l 1,97,-1
 84 526 l 2,98,99
 84 527 84 527 85 527 c 2,100,-1
 358 527 l 2,101,102
 359 527 359 527 359 526 c 2,103,-1
 359 442 l 1,104,-1
 442 442 l 2,105,106
 443 442 443 442 443 441 c 2,107,-1
 443 253 l 2,108,109
 443 252 443 252 442 252 c 2,110,-1
 106 252 l 1,111,-1
 106 105 l 1,80,-1
106 420 m 1,112,-1
 337 420 l 1,113,-1
 337 358 l 1,114,-1
 106 358 l 1,115,-1
 106 420 l 1,112,-1
106 105 m 1,116,-1
 106 252 l 1,117,-1
 442 252 l 2,118,119
 443 252 443 252 443 253 c 2,120,-1
 443 441 l 2,121,122
 443 442 443 442 442 442 c 2,123,-1
 359 442 l 1,124,-1
 359 526 l 2,125,126
 359 527 359 527 358 527 c 2,127,-1
 85 527 l 2,128,129
 84 527 84 527 84 526 c 2,130,-1
 84 442 l 1,131,-1
 0 442 l 2,132,133
 -1 442 -1 442 -1 441 c 2,134,-1
 -1 84 l 2,135,136
 -1 83 -1 83 0 83 c 2,137,-1
 84 83 l 1,138,-1
 84 0 l 2,139,140
 84 -1 84 -1 85 -1 c 2,141,-1
 442 -1 l 2,142,143
 443 -1 443 -1 443 0 c 2,144,-1
 443 104 l 2,145,146
 443 105 443 105 442 105 c 2,147,-1
 106 105 l 1,116,-1
106 420 m 1,148,-1
 106 358 l 1,149,-1
 337 358 l 1,150,-1
 337 420 l 1,151,-1
 106 420 l 1,148,-1
EndSplineSet
EndChar

StartChar: f
Encoding: 102 102 49
Width: 458
GlyphClass: 1
Flags: W
LayerCount: 2
Fore
SplineSet
189 421 m 1,0,-1
 189 421 l 1,1,-1
 85 421 l 1,2,-1
 85 526 l 1,3,-1
 189 526 l 1,4,-1
 189 421 l 1,0,-1
274 253 m 1,5,-1
 274 357 l 1,6,-1
 169 357 l 1,7,-1
 169 253 l 1,8,-1
 274 253 l 1,9,-1
 274 253 l 1,5,-1
274 337 m 1,10,-1
 274 337 l 1,11,-1
 169 337 l 1,12,-1
 169 441 l 1,13,-1
 274 441 l 1,14,-1
 274 337 l 1,10,-1
274 421 m 1,15,-1
 274 526 l 1,16,-1
 169 526 l 1,17,-1
 169 421 l 1,18,-1
 274 421 l 1,19,-1
 274 421 l 1,15,-1
274 506 m 1,20,-1
 274 506 l 1,21,-1
 169 506 l 1,22,-1
 169 610 l 1,23,-1
 274 610 l 1,24,-1
 274 506 l 1,20,-1
358 590 m 1,25,-1
 358 694 l 1,26,-1
 253 694 l 1,27,-1
 253 590 l 1,28,-1
 358 590 l 1,29,-1
 358 590 l 1,25,-1
442 590 m 1,30,-1
 442 590 l 1,31,-1
 338 590 l 1,32,-1
 338 694 l 1,33,-1
 442 694 l 1,34,-1
 442 590 l 1,30,-1
358 421 m 1,35,-1
 358 421 l 1,36,-1
 253 421 l 1,37,-1
 253 526 l 1,38,-1
 358 526 l 1,39,-1
 358 421 l 1,35,-1
442 421 m 1,40,-1
 442 526 l 1,41,-1
 338 526 l 1,42,-1
 338 421 l 1,43,-1
 442 421 l 1,44,-1
 442 421 l 1,40,-1
274 168 m 1,45,-1
 274 168 l 1,46,-1
 169 168 l 1,47,-1
 169 273 l 1,48,-1
 274 273 l 1,49,-1
 274 168 l 1,45,-1
274 84 m 1,50,-1
 274 188 l 1,51,-1
 169 188 l 1,52,-1
 169 84 l 1,53,-1
 274 84 l 1,54,-1
 274 84 l 1,50,-1
274 0 m 1,55,-1
 274 0 l 1,56,-1
 169 0 l 1,57,-1
 169 104 l 1,58,-1
 274 104 l 1,59,-1
 274 0 l 1,55,-1
274 -1 m 2,60,-1
 169 -1 l 2,61,62
 168 -1 168 -1 168 0 c 2,63,-1
 168 420 l 1,64,-1
 85 420 l 2,65,66
 84 420 84 420 84 421 c 2,67,-1
 84 526 l 2,68,69
 84 527 84 527 85 527 c 2,70,-1
 168 527 l 1,71,-1
 168 610 l 2,72,73
 168 611 168 611 169 611 c 2,74,-1
 252 611 l 1,75,-1
 252 694 l 2,76,77
 252 695 252 695 253 695 c 2,78,-1
 442 695 l 2,79,80
 443 695 443 695 443 694 c 2,81,-1
 443 590 l 2,82,83
 443 589 443 589 442 589 c 2,84,-1
 275 589 l 1,85,-1
 275 527 l 1,86,-1
 442 527 l 2,87,88
 443 527 443 527 443 526 c 2,89,-1
 443 421 l 2,90,91
 443 420 443 420 442 420 c 2,92,-1
 275 420 l 1,93,-1
 275 0 l 2,94,95
 275 -1 275 -1 274 -1 c 2,60,-1
274 -1 m 2,96,97
 275 -1 275 -1 275 0 c 2,98,-1
 275 420 l 1,99,-1
 442 420 l 2,100,101
 443 420 443 420 443 421 c 2,102,-1
 443 526 l 2,103,104
 443 527 443 527 442 527 c 2,105,-1
 275 527 l 1,106,-1
 275 589 l 1,107,-1
 442 589 l 2,108,109
 443 589 443 589 443 590 c 2,110,-1
 443 694 l 2,111,112
 443 695 443 695 442 695 c 2,113,-1
 253 695 l 2,114,115
 252 695 252 695 252 694 c 2,116,-1
 252 611 l 1,117,-1
 169 611 l 2,118,119
 168 611 168 611 168 610 c 2,120,-1
 168 527 l 1,121,-1
 85 527 l 2,122,123
 84 527 84 527 84 526 c 2,124,-1
 84 421 l 2,125,126
 84 420 84 420 85 420 c 2,127,-1
 168 420 l 1,128,-1
 168 0 l 2,129,130
 168 -1 168 -1 169 -1 c 2,131,-1
 274 -1 l 2,96,97
EndSplineSet
EndChar

StartChar: g
Encoding: 103 103 50
Width: 542
GlyphClass: 1
Flags: W
LayerCount: 2
Fore
SplineSet
105 84 m 1,0,-1
 105 84 l 1,1,-1
 0 84 l 1,2,-1
 0 188 l 1,3,-1
 105 188 l 1,4,-1
 105 84 l 1,0,-1
105 168 m 1,5,-1
 105 273 l 1,6,-1
 0 273 l 1,7,-1
 0 168 l 1,8,-1
 105 168 l 1,9,-1
 105 168 l 1,5,-1
105 253 m 1,10,-1
 105 253 l 1,11,-1
 0 253 l 1,12,-1
 0 357 l 1,13,-1
 105 357 l 1,14,-1
 105 253 l 1,10,-1
105 337 m 1,15,-1
 105 441 l 1,16,-1
 0 441 l 1,17,-1
 0 337 l 1,18,-1
 105 337 l 1,19,-1
 105 337 l 1,15,-1
189 421 m 1,20,-1
 189 421 l 1,21,-1
 85 421 l 1,22,-1
 85 526 l 1,23,-1
 189 526 l 1,24,-1
 189 421 l 1,20,-1
274 421 m 1,25,-1
 274 526 l 1,26,-1
 169 526 l 1,27,-1
 169 421 l 1,28,-1
 274 421 l 1,29,-1
 274 421 l 1,25,-1
189 -169 m 1,30,-1
 189 -169 l 1,31,-1
 85 -169 l 1,32,-1
 85 -65 l 1,33,-1
 189 -65 l 1,34,-1
 189 -169 l 1,30,-1
274 -169 m 1,35,-1
 274 -65 l 1,36,-1
 169 -65 l 1,37,-1
 169 -169 l 1,38,-1
 274 -169 l 1,39,-1
 274 -169 l 1,35,-1
358 -169 m 1,40,-1
 358 -169 l 1,41,-1
 253 -169 l 1,42,-1
 253 -65 l 1,43,-1
 358 -65 l 1,44,-1
 358 -169 l 1,40,-1
442 -85 m 1,45,-1
 442 20 l 1,46,-1
 338 20 l 1,47,-1
 338 -85 l 1,48,-1
 442 -85 l 1,49,-1
 442 -85 l 1,45,-1
442 84 m 1,50,-1
 442 188 l 1,51,-1
 338 188 l 1,52,-1
 338 84 l 1,53,-1
 442 84 l 1,54,-1
 442 84 l 1,50,-1
442 168 m 1,55,-1
 442 168 l 1,56,-1
 338 168 l 1,57,-1
 338 273 l 1,58,-1
 442 273 l 1,59,-1
 442 168 l 1,55,-1
442 253 m 1,60,-1
 442 357 l 1,61,-1
 338 357 l 1,62,-1
 338 253 l 1,63,-1
 442 253 l 1,64,-1
 442 253 l 1,60,-1
358 337 m 1,65,-1
 358 337 l 1,66,-1
 253 337 l 1,67,-1
 253 441 l 1,68,-1
 358 441 l 1,69,-1
 358 337 l 1,65,-1
442 337 m 1,70,-1
 442 337 l 1,71,-1
 338 337 l 1,72,-1
 338 441 l 1,73,-1
 442 441 l 1,74,-1
 442 337 l 1,70,-1
442 421 m 1,75,-1
 442 526 l 1,76,-1
 338 526 l 1,77,-1
 338 421 l 1,78,-1
 442 421 l 1,79,-1
 442 421 l 1,75,-1
189 0 m 1,80,-1
 189 0 l 1,81,-1
 85 0 l 1,82,-1
 85 104 l 1,83,-1
 189 104 l 1,84,-1
 189 0 l 1,80,-1
274 0 m 1,85,-1
 274 104 l 1,86,-1
 169 104 l 1,87,-1
 169 0 l 1,88,-1
 274 0 l 1,89,-1
 274 0 l 1,85,-1
358 0 m 1,90,-1
 358 0 l 1,91,-1
 253 0 l 1,92,-1
 253 104 l 1,93,-1
 358 104 l 1,94,-1
 358 0 l 1,90,-1
442 0 m 1,95,-1
 442 0 l 1,96,-1
 338 0 l 1,97,-1
 338 104 l 1,98,-1
 442 104 l 1,99,-1
 442 0 l 1,95,-1
106 105 m 1,100,-1
 106 420 l 1,101,-1
 252 420 l 1,102,-1
 252 337 l 2,103,104
 252 336 252 336 253 336 c 2,105,-1
 337 336 l 1,106,-1
 337 105 l 1,107,-1
 106 105 l 1,100,-1
337 -1 m 1,108,-1
 85 -1 l 2,109,110
 84 -1 84 -1 84 0 c 2,111,-1
 84 83 l 1,112,-1
 0 83 l 2,113,114
 -1 83 -1 83 -1 84 c 2,115,-1
 -1 441 l 2,116,117
 -1 442 -1 442 0 442 c 2,118,-1
 84 442 l 1,119,-1
 84 526 l 2,120,121
 84 527 84 527 85 527 c 2,122,-1
 274 527 l 2,123,124
 275 527 275 527 275 526 c 2,125,-1
 275 442 l 1,126,-1
 337 442 l 1,127,-1
 337 526 l 2,128,129
 337 527 337 527 338 527 c 2,130,-1
 442 527 l 2,131,132
 443 527 443 527 443 526 c 2,133,-1
 443 -85 l 2,134,135
 443 -86 443 -86 442 -86 c 2,136,-1
 359 -86 l 1,137,-1
 359 -169 l 2,138,139
 359 -170 359 -170 358 -170 c 2,140,-1
 85 -170 l 2,141,142
 84 -170 84 -170 84 -169 c 2,143,-1
 84 -65 l 2,144,145
 84 -64 84 -64 85 -64 c 2,146,-1
 337 -64 l 1,147,-1
 337 -1 l 1,108,-1
106 105 m 1,148,-1
 337 105 l 1,149,-1
 337 336 l 1,150,-1
 253 336 l 2,151,152
 252 336 252 336 252 337 c 2,153,-1
 252 420 l 1,154,-1
 106 420 l 1,155,-1
 106 105 l 1,148,-1
337 -1 m 1,156,-1
 337 -64 l 1,157,-1
 85 -64 l 2,158,159
 84 -64 84 -64 84 -65 c 2,160,-1
 84 -169 l 2,161,162
 84 -170 84 -170 85 -170 c 2,163,-1
 358 -170 l 2,164,165
 359 -170 359 -170 359 -169 c 2,166,-1
 359 -86 l 1,167,-1
 442 -86 l 2,168,169
 443 -86 443 -86 443 -85 c 2,170,-1
 443 526 l 2,171,172
 443 527 443 527 442 527 c 2,173,-1
 338 527 l 2,174,175
 337 527 337 527 337 526 c 2,176,-1
 337 442 l 1,177,-1
 275 442 l 1,178,-1
 275 526 l 2,179,180
 275 527 275 527 274 527 c 2,181,-1
 85 527 l 2,182,183
 84 527 84 527 84 526 c 2,184,-1
 84 442 l 1,185,-1
 0 442 l 2,186,187
 -1 442 -1 442 -1 441 c 2,188,-1
 -1 84 l 2,189,190
 -1 83 -1 83 0 83 c 2,191,-1
 84 83 l 1,192,-1
 84 0 l 2,193,194
 84 -1 84 -1 85 -1 c 2,195,-1
 337 -1 l 1,156,-1
EndSplineSet
EndChar

StartChar: h
Encoding: 104 104 51
Width: 542
GlyphClass: 1
Flags: W
LayerCount: 2
Fore
SplineSet
105 0 m 1,0,-1
 105 0 l 1,1,-1
 0 0 l 1,2,-1
 0 104 l 1,3,-1
 105 104 l 1,4,-1
 105 0 l 1,0,-1
105 84 m 1,5,-1
 105 188 l 1,6,-1
 0 188 l 1,7,-1
 0 84 l 1,8,-1
 105 84 l 1,9,-1
 105 84 l 1,5,-1
105 168 m 1,10,-1
 105 168 l 1,11,-1
 0 168 l 1,12,-1
 0 273 l 1,13,-1
 105 273 l 1,14,-1
 105 168 l 1,10,-1
105 253 m 1,15,-1
 105 357 l 1,16,-1
 0 357 l 1,17,-1
 0 253 l 1,18,-1
 105 253 l 1,19,-1
 105 253 l 1,15,-1
105 337 m 1,20,-1
 105 337 l 1,21,-1
 0 337 l 1,22,-1
 0 441 l 1,23,-1
 105 441 l 1,24,-1
 105 337 l 1,20,-1
105 421 m 1,25,-1
 105 526 l 1,26,-1
 0 526 l 1,27,-1
 0 421 l 1,28,-1
 105 421 l 1,29,-1
 105 421 l 1,25,-1
105 506 m 1,30,-1
 105 506 l 1,31,-1
 0 506 l 1,32,-1
 0 610 l 1,33,-1
 105 610 l 1,34,-1
 105 506 l 1,30,-1
105 590 m 1,35,-1
 105 694 l 1,36,-1
 0 694 l 1,37,-1
 0 590 l 1,38,-1
 105 590 l 1,39,-1
 105 590 l 1,35,-1
358 421 m 1,40,-1
 358 421 l 1,41,-1
 253 421 l 1,42,-1
 253 526 l 1,43,-1
 358 526 l 1,44,-1
 358 421 l 1,40,-1
274 421 m 1,45,-1
 274 526 l 1,46,-1
 169 526 l 1,47,-1
 169 421 l 1,48,-1
 274 421 l 1,49,-1
 274 421 l 1,45,-1
442 0 m 1,50,-1
 442 0 l 1,51,-1
 338 0 l 1,52,-1
 338 104 l 1,53,-1
 442 104 l 1,54,-1
 442 0 l 1,50,-1
442 84 m 1,55,-1
 442 188 l 1,56,-1
 338 188 l 1,57,-1
 338 84 l 1,58,-1
 442 84 l 1,59,-1
 442 84 l 1,55,-1
442 168 m 1,60,-1
 442 168 l 1,61,-1
 338 168 l 1,62,-1
 338 273 l 1,63,-1
 442 273 l 1,64,-1
 442 168 l 1,60,-1
442 253 m 1,65,-1
 442 357 l 1,66,-1
 338 357 l 1,67,-1
 338 253 l 1,68,-1
 442 253 l 1,69,-1
 442 253 l 1,65,-1
442 337 m 1,70,-1
 442 337 l 1,71,-1
 338 337 l 1,72,-1
 338 441 l 1,73,-1
 442 441 l 1,74,-1
 442 337 l 1,70,-1
189 337 m 1,75,-1
 189 337 l 1,76,-1
 85 337 l 1,77,-1
 85 441 l 1,78,-1
 189 441 l 1,79,-1
 189 337 l 1,75,-1
442 -1 m 2,80,-1
 338 -1 l 2,81,82
 337 -1 337 -1 337 0 c 2,83,-1
 337 420 l 1,84,-1
 190 420 l 1,85,-1
 190 337 l 2,86,87
 190 336 190 336 189 336 c 2,88,-1
 106 336 l 1,89,-1
 106 0 l 2,90,91
 106 -1 106 -1 105 -1 c 2,92,-1
 0 -1 l 2,93,94
 -1 -1 -1 -1 -1 0 c 2,95,-1
 -1 694 l 2,96,97
 -1 695 -1 695 0 695 c 2,98,-1
 105 695 l 2,99,100
 106 695 106 695 106 694 c 2,101,-1
 106 442 l 1,102,-1
 168 442 l 1,103,-1
 168 526 l 2,104,105
 168 527 168 527 169 527 c 2,106,-1
 358 527 l 2,107,108
 359 527 359 527 359 526 c 2,109,-1
 359 442 l 1,110,-1
 442 442 l 2,111,112
 443 442 443 442 443 441 c 2,113,-1
 443 0 l 2,114,115
 443 -1 443 -1 442 -1 c 2,80,-1
442 -1 m 2,116,117
 443 -1 443 -1 443 0 c 2,118,-1
 443 441 l 2,119,120
 443 442 443 442 442 442 c 2,121,-1
 359 442 l 1,122,-1
 359 526 l 2,123,124
 359 527 359 527 358 527 c 2,125,-1
 169 527 l 2,126,127
 168 527 168 527 168 526 c 2,128,-1
 168 442 l 1,129,-1
 106 442 l 1,130,-1
 106 694 l 2,131,132
 106 695 106 695 105 695 c 2,133,-1
 0 695 l 2,134,135
 -1 695 -1 695 -1 694 c 2,136,-1
 -1 0 l 2,137,138
 -1 -1 -1 -1 0 -1 c 2,139,-1
 105 -1 l 2,140,141
 106 -1 106 -1 106 0 c 2,142,-1
 106 336 l 1,143,-1
 189 336 l 2,144,145
 190 336 190 336 190 337 c 2,146,-1
 190 420 l 1,147,-1
 337 420 l 1,148,-1
 337 0 l 2,149,150
 337 -1 337 -1 338 -1 c 2,151,-1
 442 -1 l 2,116,117
EndSplineSet
EndChar

StartChar: i
Encoding: 105 105 52
Width: 374
GlyphClass: 1
Flags: W
LayerCount: 2
Fore
SplineSet
274 84 m 1,0,-1
 274 84 l 1,1,-1
 169 84 l 1,2,-1
 169 188 l 1,3,-1
 274 188 l 1,4,-1
 274 84 l 1,0,-1
274 168 m 1,5,-1
 274 273 l 1,6,-1
 169 273 l 1,7,-1
 169 168 l 1,8,-1
 274 168 l 1,9,-1
 274 168 l 1,5,-1
274 253 m 1,10,-1
 274 253 l 1,11,-1
 169 253 l 1,12,-1
 169 357 l 1,13,-1
 274 357 l 1,14,-1
 274 253 l 1,10,-1
274 337 m 1,15,-1
 274 441 l 1,16,-1
 169 441 l 1,17,-1
 169 337 l 1,18,-1
 274 337 l 1,19,-1
 274 337 l 1,15,-1
189 421 m 1,20,-1
 189 421 l 1,21,-1
 85 421 l 1,22,-1
 85 526 l 1,23,-1
 189 526 l 1,24,-1
 189 421 l 1,20,-1
274 421 m 1,25,-1
 274 421 l 1,26,-1
 169 421 l 1,27,-1
 169 526 l 1,28,-1
 274 526 l 1,29,-1
 274 421 l 1,25,-1
274 590 m 1,30,-1
 274 590 l 1,31,-1
 169 590 l 1,32,-1
 169 694 l 1,33,-1
 274 694 l 1,34,-1
 274 590 l 1,30,-1
189 0 m 1,35,-1
 189 0 l 1,36,-1
 85 0 l 1,37,-1
 85 104 l 1,38,-1
 189 104 l 1,39,-1
 189 0 l 1,35,-1
274 0 m 1,40,-1
 274 104 l 1,41,-1
 169 104 l 1,42,-1
 169 0 l 1,43,-1
 274 0 l 1,44,-1
 274 0 l 1,40,-1
358 0 m 1,45,-1
 358 0 l 1,46,-1
 253 0 l 1,47,-1
 253 104 l 1,48,-1
 358 104 l 1,49,-1
 358 0 l 1,45,-1
274 589 m 2,50,-1
 169 589 l 2,51,52
 168 589 168 589 168 590 c 2,53,-1
 168 694 l 2,54,55
 168 695 168 695 169 695 c 2,56,-1
 274 695 l 2,57,58
 275 695 275 695 275 694 c 2,59,-1
 275 590 l 2,60,61
 275 589 275 589 274 589 c 2,50,-1
358 -1 m 2,62,-1
 85 -1 l 2,63,64
 84 -1 84 -1 84 0 c 2,65,-1
 84 104 l 2,66,67
 84 105 84 105 85 105 c 2,68,-1
 168 105 l 1,69,-1
 168 420 l 1,70,-1
 85 420 l 2,71,72
 84 420 84 420 84 421 c 2,73,-1
 84 526 l 2,74,75
 84 527 84 527 85 527 c 2,76,-1
 274 527 l 2,77,78
 275 527 275 527 275 526 c 2,79,-1
 275 105 l 1,80,-1
 358 105 l 2,81,82
 359 105 359 105 359 104 c 2,83,-1
 359 0 l 2,84,85
 359 -1 359 -1 358 -1 c 2,62,-1
274 589 m 2,86,87
 275 589 275 589 275 590 c 2,88,-1
 275 694 l 2,89,90
 275 695 275 695 274 695 c 2,91,-1
 169 695 l 2,92,93
 168 695 168 695 168 694 c 2,94,-1
 168 590 l 2,95,96
 168 589 168 589 169 589 c 2,97,-1
 274 589 l 2,86,87
358 -1 m 2,98,99
 359 -1 359 -1 359 0 c 2,100,-1
 359 104 l 2,101,102
 359 105 359 105 358 105 c 2,103,-1
 275 105 l 1,104,-1
 275 526 l 2,105,106
 275 527 275 527 274 527 c 2,107,-1
 85 527 l 2,108,109
 84 527 84 527 84 526 c 2,110,-1
 84 421 l 2,111,112
 84 420 84 420 85 420 c 2,113,-1
 168 420 l 1,114,-1
 168 105 l 1,115,-1
 85 105 l 2,116,117
 84 105 84 105 84 104 c 2,118,-1
 84 0 l 2,119,120
 84 -1 84 -1 85 -1 c 2,121,-1
 358 -1 l 2,98,99
EndSplineSet
EndChar

StartChar: k
Encoding: 107 107 53
Width: 542
GlyphClass: 1
Flags: W
LayerCount: 2
Fore
SplineSet
105 0 m 1,0,-1
 105 0 l 1,1,-1
 0 0 l 1,2,-1
 0 104 l 1,3,-1
 105 104 l 1,4,-1
 105 0 l 1,0,-1
105 84 m 1,5,-1
 105 188 l 1,6,-1
 0 188 l 1,7,-1
 0 84 l 1,8,-1
 105 84 l 1,9,-1
 105 84 l 1,5,-1
105 168 m 1,10,-1
 105 168 l 1,11,-1
 0 168 l 1,12,-1
 0 273 l 1,13,-1
 105 273 l 1,14,-1
 105 168 l 1,10,-1
105 253 m 1,15,-1
 105 357 l 1,16,-1
 0 357 l 1,17,-1
 0 253 l 1,18,-1
 105 253 l 1,19,-1
 105 253 l 1,15,-1
105 337 m 1,20,-1
 105 337 l 1,21,-1
 0 337 l 1,22,-1
 0 441 l 1,23,-1
 105 441 l 1,24,-1
 105 337 l 1,20,-1
105 421 m 1,25,-1
 105 526 l 1,26,-1
 0 526 l 1,27,-1
 0 421 l 1,28,-1
 105 421 l 1,29,-1
 105 421 l 1,25,-1
105 506 m 1,30,-1
 105 506 l 1,31,-1
 0 506 l 1,32,-1
 0 610 l 1,33,-1
 105 610 l 1,34,-1
 105 506 l 1,30,-1
442 0 m 1,35,-1
 442 0 l 1,36,-1
 338 0 l 1,37,-1
 338 104 l 1,38,-1
 442 104 l 1,39,-1
 442 0 l 1,35,-1
358 84 m 1,40,-1
 358 84 l 1,41,-1
 253 84 l 1,42,-1
 253 188 l 1,43,-1
 358 188 l 1,44,-1
 358 84 l 1,40,-1
189 253 m 1,45,-1
 189 253 l 1,46,-1
 85 253 l 1,47,-1
 85 357 l 1,48,-1
 189 357 l 1,49,-1
 189 253 l 1,45,-1
274 168 m 1,50,-1
 274 168 l 1,51,-1
 169 168 l 1,52,-1
 169 273 l 1,53,-1
 274 273 l 1,54,-1
 274 168 l 1,50,-1
358 421 m 1,55,-1
 358 421 l 1,56,-1
 253 421 l 1,57,-1
 253 526 l 1,58,-1
 358 526 l 1,59,-1
 358 421 l 1,55,-1
274 337 m 1,60,-1
 274 441 l 1,61,-1
 169 441 l 1,62,-1
 169 337 l 1,63,-1
 274 337 l 1,64,-1
 274 337 l 1,60,-1
442 -1 m 2,65,-1
 338 -1 l 2,66,67
 337 -1 337 -1 337 0 c 2,68,-1
 337 83 l 1,69,-1
 253 83 l 2,70,71
 252 83 252 83 252 84 c 2,72,-1
 252 167 l 1,73,-1
 169 167 l 2,74,75
 168 167 168 167 168 168 c 2,76,-1
 168 252 l 1,77,-1
 106 252 l 1,78,-1
 106 0 l 2,79,80
 106 -1 106 -1 105 -1 c 2,81,-1
 0 -1 l 2,82,83
 -1 -1 -1 -1 -1 0 c 2,84,-1
 -1 610 l 2,85,86
 -1 611 -1 611 0 611 c 2,87,-1
 105 611 l 2,88,89
 106 611 106 611 106 610 c 2,90,-1
 106 358 l 1,91,-1
 168 358 l 1,92,-1
 168 441 l 2,93,94
 168 442 168 442 169 442 c 2,95,-1
 252 442 l 1,96,-1
 252 526 l 2,97,98
 252 527 252 527 253 527 c 2,99,-1
 358 527 l 2,100,101
 359 527 359 527 359 526 c 2,102,-1
 359 421 l 2,103,104
 359 420 359 420 358 420 c 2,105,-1
 275 420 l 1,106,-1
 275 337 l 2,107,108
 275 336 275 336 274 336 c 2,109,-1
 190 336 l 1,110,-1
 190 274 l 1,111,-1
 274 274 l 2,112,113
 275 274 275 274 275 273 c 2,114,-1
 275 189 l 1,115,-1
 358 189 l 2,116,117
 359 189 359 189 359 188 c 2,118,-1
 359 105 l 1,119,-1
 442 105 l 2,120,121
 443 105 443 105 443 104 c 2,122,-1
 443 0 l 2,123,124
 443 -1 443 -1 442 -1 c 2,65,-1
442 -1 m 2,125,126
 443 -1 443 -1 443 0 c 2,127,-1
 443 104 l 2,128,129
 443 105 443 105 442 105 c 2,130,-1
 359 105 l 1,131,-1
 359 188 l 2,132,133
 359 189 359 189 358 189 c 2,134,-1
 275 189 l 1,135,-1
 275 273 l 2,136,137
 275 274 275 274 274 274 c 2,138,-1
 190 274 l 1,139,-1
 190 336 l 1,140,-1
 274 336 l 2,141,142
 275 336 275 336 275 337 c 2,143,-1
 275 420 l 1,144,-1
 358 420 l 2,145,146
 359 420 359 420 359 421 c 2,147,-1
 359 526 l 2,148,149
 359 527 359 527 358 527 c 2,150,-1
 253 527 l 2,151,152
 252 527 252 527 252 526 c 2,153,-1
 252 442 l 1,154,-1
 169 442 l 2,155,156
 168 442 168 442 168 441 c 2,157,-1
 168 358 l 1,158,-1
 106 358 l 1,159,-1
 106 610 l 2,160,161
 106 611 106 611 105 611 c 2,162,-1
 0 611 l 2,163,164
 -1 611 -1 611 -1 610 c 2,165,-1
 -1 0 l 2,166,167
 -1 -1 -1 -1 0 -1 c 2,168,-1
 105 -1 l 2,169,170
 106 -1 106 -1 106 0 c 2,171,-1
 106 252 l 1,172,-1
 168 252 l 1,173,-1
 168 168 l 2,174,175
 168 167 168 167 169 167 c 2,176,-1
 252 167 l 1,177,-1
 252 84 l 2,178,179
 252 83 252 83 253 83 c 2,180,-1
 337 83 l 1,181,-1
 337 0 l 2,182,183
 337 -1 337 -1 338 -1 c 2,184,-1
 442 -1 l 2,125,126
EndSplineSet
EndChar

StartChar: l
Encoding: 108 108 54
Width: 374
GlyphClass: 1
Flags: W
LayerCount: 2
Fore
SplineSet
189 590 m 1,0,-1
 189 590 l 1,1,-1
 85 590 l 1,2,-1
 85 694 l 1,3,-1
 189 694 l 1,4,-1
 189 590 l 1,0,-1
274 84 m 1,5,-1
 274 84 l 1,6,-1
 169 84 l 1,7,-1
 169 188 l 1,8,-1
 274 188 l 1,9,-1
 274 84 l 1,5,-1
274 253 m 1,10,-1
 274 253 l 1,11,-1
 169 253 l 1,12,-1
 169 357 l 1,13,-1
 274 357 l 1,14,-1
 274 253 l 1,10,-1
274 421 m 1,15,-1
 274 421 l 1,16,-1
 169 421 l 1,17,-1
 169 526 l 1,18,-1
 274 526 l 1,19,-1
 274 421 l 1,15,-1
274 590 m 1,20,-1
 274 590 l 1,21,-1
 169 590 l 1,22,-1
 169 694 l 1,23,-1
 274 694 l 1,24,-1
 274 590 l 1,20,-1
274 506 m 1,25,-1
 274 610 l 1,26,-1
 169 610 l 1,27,-1
 169 506 l 1,28,-1
 274 506 l 1,29,-1
 274 506 l 1,25,-1
274 337 m 1,30,-1
 274 441 l 1,31,-1
 169 441 l 1,32,-1
 169 337 l 1,33,-1
 274 337 l 1,34,-1
 274 337 l 1,30,-1
274 168 m 1,35,-1
 274 273 l 1,36,-1
 169 273 l 1,37,-1
 169 168 l 1,38,-1
 274 168 l 1,39,-1
 274 168 l 1,35,-1
358 0 m 1,40,-1
 358 0 l 1,41,-1
 253 0 l 1,42,-1
 253 104 l 1,43,-1
 358 104 l 1,44,-1
 358 0 l 1,40,-1
274 0 m 1,45,-1
 274 104 l 1,46,-1
 169 104 l 1,47,-1
 169 0 l 1,48,-1
 274 0 l 1,49,-1
 274 0 l 1,45,-1
189 0 m 1,50,-1
 189 0 l 1,51,-1
 85 0 l 1,52,-1
 85 104 l 1,53,-1
 189 104 l 1,54,-1
 189 0 l 1,50,-1
358 -1 m 2,55,-1
 85 -1 l 2,56,57
 84 -1 84 -1 84 0 c 2,58,-1
 84 104 l 2,59,60
 84 105 84 105 85 105 c 2,61,-1
 168 105 l 1,62,-1
 168 589 l 1,63,-1
 85 589 l 2,64,65
 84 589 84 589 84 590 c 2,66,-1
 84 694 l 2,67,68
 84 695 84 695 85 695 c 2,69,-1
 274 695 l 2,70,71
 275 695 275 695 275 694 c 2,72,-1
 275 105 l 1,73,-1
 358 105 l 2,74,75
 359 105 359 105 359 104 c 2,76,-1
 359 0 l 2,77,78
 359 -1 359 -1 358 -1 c 2,55,-1
358 -1 m 2,79,80
 359 -1 359 -1 359 0 c 2,81,-1
 359 104 l 2,82,83
 359 105 359 105 358 105 c 2,84,-1
 275 105 l 1,85,-1
 275 694 l 2,86,87
 275 695 275 695 274 695 c 2,88,-1
 85 695 l 2,89,90
 84 695 84 695 84 694 c 2,91,-1
 84 590 l 2,92,93
 84 589 84 589 85 589 c 2,94,-1
 168 589 l 1,95,-1
 168 105 l 1,96,-1
 85 105 l 2,97,98
 84 105 84 105 84 104 c 2,99,-1
 84 0 l 2,100,101
 84 -1 84 -1 85 -1 c 2,102,-1
 358 -1 l 2,79,80
EndSplineSet
EndChar

StartChar: m
Encoding: 109 109 55
Width: 542
GlyphClass: 1
Flags: W
LayerCount: 2
Fore
SplineSet
105 0 m 1,0,-1
 105 0 l 1,1,-1
 0 0 l 1,2,-1
 0 104 l 1,3,-1
 105 104 l 1,4,-1
 105 0 l 1,0,-1
105 84 m 1,5,-1
 105 188 l 1,6,-1
 0 188 l 1,7,-1
 0 84 l 1,8,-1
 105 84 l 1,9,-1
 105 84 l 1,5,-1
105 168 m 1,10,-1
 105 168 l 1,11,-1
 0 168 l 1,12,-1
 0 273 l 1,13,-1
 105 273 l 1,14,-1
 105 168 l 1,10,-1
105 253 m 1,15,-1
 105 357 l 1,16,-1
 0 357 l 1,17,-1
 0 253 l 1,18,-1
 105 253 l 1,19,-1
 105 253 l 1,15,-1
105 337 m 1,20,-1
 105 337 l 1,21,-1
 0 337 l 1,22,-1
 0 441 l 1,23,-1
 105 441 l 1,24,-1
 105 337 l 1,20,-1
105 421 m 1,25,-1
 105 526 l 1,26,-1
 0 526 l 1,27,-1
 0 421 l 1,28,-1
 105 421 l 1,29,-1
 105 421 l 1,25,-1
274 0 m 1,30,-1
 274 0 l 1,31,-1
 169 0 l 1,32,-1
 169 104 l 1,33,-1
 274 104 l 1,34,-1
 274 0 l 1,30,-1
442 0 m 1,35,-1
 442 0 l 1,36,-1
 338 0 l 1,37,-1
 338 104 l 1,38,-1
 442 104 l 1,39,-1
 442 0 l 1,35,-1
274 84 m 1,40,-1
 274 188 l 1,41,-1
 169 188 l 1,42,-1
 169 84 l 1,43,-1
 274 84 l 1,44,-1
 274 84 l 1,40,-1
442 84 m 1,45,-1
 442 188 l 1,46,-1
 338 188 l 1,47,-1
 338 84 l 1,48,-1
 442 84 l 1,49,-1
 442 84 l 1,45,-1
442 168 m 1,50,-1
 442 168 l 1,51,-1
 338 168 l 1,52,-1
 338 273 l 1,53,-1
 442 273 l 1,54,-1
 442 168 l 1,50,-1
442 253 m 1,55,-1
 442 357 l 1,56,-1
 338 357 l 1,57,-1
 338 253 l 1,58,-1
 442 253 l 1,59,-1
 442 253 l 1,55,-1
274 168 m 1,60,-1
 274 168 l 1,61,-1
 169 168 l 1,62,-1
 169 273 l 1,63,-1
 274 273 l 1,64,-1
 274 168 l 1,60,-1
274 253 m 1,65,-1
 274 357 l 1,66,-1
 169 357 l 1,67,-1
 169 253 l 1,68,-1
 274 253 l 1,69,-1
 274 253 l 1,65,-1
442 337 m 1,70,-1
 442 337 l 1,71,-1
 338 337 l 1,72,-1
 338 441 l 1,73,-1
 442 441 l 1,74,-1
 442 337 l 1,70,-1
274 337 m 1,75,-1
 274 337 l 1,76,-1
 169 337 l 1,77,-1
 169 441 l 1,78,-1
 274 441 l 1,79,-1
 274 337 l 1,75,-1
358 421 m 1,80,-1
 358 526 l 1,81,-1
 253 526 l 1,82,-1
 253 421 l 1,83,-1
 358 421 l 1,84,-1
 358 421 l 1,80,-1
189 421 m 1,85,-1
 189 421 l 1,86,-1
 85 421 l 1,87,-1
 85 526 l 1,88,-1
 189 526 l 1,89,-1
 189 421 l 1,85,-1
442 -1 m 2,90,-1
 338 -1 l 2,91,92
 337 -1 337 -1 337 0 c 2,93,-1
 337 420 l 1,94,-1
 275 420 l 1,95,-1
 275 0 l 2,96,97
 275 -1 275 -1 274 -1 c 2,98,-1
 169 -1 l 2,99,100
 168 -1 168 -1 168 0 c 2,101,-1
 168 420 l 1,102,-1
 106 420 l 1,103,-1
 106 0 l 2,104,105
 106 -1 106 -1 105 -1 c 2,106,-1
 0 -1 l 2,107,108
 -1 -1 -1 -1 -1 0 c 2,109,-1
 -1 526 l 2,110,111
 -1 527 -1 527 0 527 c 2,112,-1
 189 527 l 2,113,114
 190 527 190 527 190 526 c 2,115,-1
 190 442 l 1,116,-1
 252 442 l 1,117,-1
 252 526 l 2,118,119
 252 527 252 527 253 527 c 2,120,-1
 358 527 l 2,121,122
 359 527 359 527 359 526 c 2,123,-1
 359 442 l 1,124,-1
 442 442 l 2,125,126
 443 442 443 442 443 441 c 2,127,-1
 443 0 l 2,128,129
 443 -1 443 -1 442 -1 c 2,90,-1
442 -1 m 2,130,131
 443 -1 443 -1 443 0 c 2,132,-1
 443 441 l 2,133,134
 443 442 443 442 442 442 c 2,135,-1
 359 442 l 1,136,-1
 359 526 l 2,137,138
 359 527 359 527 358 527 c 2,139,-1
 253 527 l 2,140,141
 252 527 252 527 252 526 c 2,142,-1
 252 442 l 1,143,-1
 190 442 l 1,144,-1
 190 526 l 2,145,146
 190 527 190 527 189 527 c 2,147,-1
 0 527 l 2,148,149
 -1 527 -1 527 -1 526 c 2,150,-1
 -1 0 l 2,151,152
 -1 -1 -1 -1 0 -1 c 2,153,-1
 105 -1 l 2,154,155
 106 -1 106 -1 106 0 c 2,156,-1
 106 420 l 1,157,-1
 168 420 l 1,158,-1
 168 0 l 2,159,160
 168 -1 168 -1 169 -1 c 2,161,-1
 274 -1 l 2,162,163
 275 -1 275 -1 275 0 c 2,164,-1
 275 420 l 1,165,-1
 337 420 l 1,166,-1
 337 0 l 2,167,168
 337 -1 337 -1 338 -1 c 2,169,-1
 442 -1 l 2,130,131
EndSplineSet
EndChar

StartChar: n
Encoding: 110 110 56
Width: 542
GlyphClass: 1
Flags: W
LayerCount: 2
Fore
SplineSet
105 0 m 1,0,-1
 105 0 l 1,1,-1
 0 0 l 1,2,-1
 0 104 l 1,3,-1
 105 104 l 1,4,-1
 105 0 l 1,0,-1
189 337 m 1,5,-1
 189 337 l 1,6,-1
 85 337 l 1,7,-1
 85 441 l 1,8,-1
 189 441 l 1,9,-1
 189 337 l 1,5,-1
274 421 m 1,10,-1
 274 526 l 1,11,-1
 169 526 l 1,12,-1
 169 421 l 1,13,-1
 274 421 l 1,14,-1
 274 421 l 1,10,-1
358 421 m 1,15,-1
 358 421 l 1,16,-1
 253 421 l 1,17,-1
 253 526 l 1,18,-1
 358 526 l 1,19,-1
 358 421 l 1,15,-1
442 0 m 1,20,-1
 442 0 l 1,21,-1
 338 0 l 1,22,-1
 338 104 l 1,23,-1
 442 104 l 1,24,-1
 442 0 l 1,20,-1
442 84 m 1,25,-1
 442 188 l 1,26,-1
 338 188 l 1,27,-1
 338 84 l 1,28,-1
 442 84 l 1,29,-1
 442 84 l 1,25,-1
442 168 m 1,30,-1
 442 168 l 1,31,-1
 338 168 l 1,32,-1
 338 273 l 1,33,-1
 442 273 l 1,34,-1
 442 168 l 1,30,-1
442 253 m 1,35,-1
 442 357 l 1,36,-1
 338 357 l 1,37,-1
 338 253 l 1,38,-1
 442 253 l 1,39,-1
 442 253 l 1,35,-1
442 337 m 1,40,-1
 442 337 l 1,41,-1
 338 337 l 1,42,-1
 338 441 l 1,43,-1
 442 441 l 1,44,-1
 442 337 l 1,40,-1
105 84 m 1,45,-1
 105 188 l 1,46,-1
 0 188 l 1,47,-1
 0 84 l 1,48,-1
 105 84 l 1,49,-1
 105 84 l 1,45,-1
105 168 m 1,50,-1
 105 168 l 1,51,-1
 0 168 l 1,52,-1
 0 273 l 1,53,-1
 105 273 l 1,54,-1
 105 168 l 1,50,-1
105 253 m 1,55,-1
 105 357 l 1,56,-1
 0 357 l 1,57,-1
 0 253 l 1,58,-1
 105 253 l 1,59,-1
 105 253 l 1,55,-1
105 337 m 1,60,-1
 105 337 l 1,61,-1
 0 337 l 1,62,-1
 0 441 l 1,63,-1
 105 441 l 1,64,-1
 105 337 l 1,60,-1
105 421 m 1,65,-1
 105 526 l 1,66,-1
 0 526 l 1,67,-1
 0 421 l 1,68,-1
 105 421 l 1,69,-1
 105 421 l 1,65,-1
442 -1 m 2,70,-1
 338 -1 l 2,71,72
 337 -1 337 -1 337 0 c 2,73,-1
 337 420 l 1,74,-1
 190 420 l 1,75,-1
 190 337 l 2,76,77
 190 336 190 336 189 336 c 2,78,-1
 106 336 l 1,79,-1
 106 0 l 2,80,81
 106 -1 106 -1 105 -1 c 2,82,-1
 0 -1 l 2,83,84
 -1 -1 -1 -1 -1 0 c 2,85,-1
 -1 526 l 2,86,87
 -1 527 -1 527 0 527 c 2,88,-1
 105 527 l 2,89,90
 106 527 106 527 106 526 c 2,91,-1
 106 442 l 1,92,-1
 168 442 l 1,93,-1
 168 526 l 2,94,95
 168 527 168 527 169 527 c 2,96,-1
 358 527 l 2,97,98
 359 527 359 527 359 526 c 2,99,-1
 359 442 l 1,100,-1
 442 442 l 2,101,102
 443 442 443 442 443 441 c 2,103,-1
 443 0 l 2,104,105
 443 -1 443 -1 442 -1 c 2,70,-1
442 -1 m 2,106,107
 443 -1 443 -1 443 0 c 2,108,-1
 443 441 l 2,109,110
 443 442 443 442 442 442 c 2,111,-1
 359 442 l 1,112,-1
 359 526 l 2,113,114
 359 527 359 527 358 527 c 2,115,-1
 169 527 l 2,116,117
 168 527 168 527 168 526 c 2,118,-1
 168 442 l 1,119,-1
 106 442 l 1,120,-1
 106 526 l 2,121,122
 106 527 106 527 105 527 c 2,123,-1
 0 527 l 2,124,125
 -1 527 -1 527 -1 526 c 2,126,-1
 -1 0 l 2,127,128
 -1 -1 -1 -1 0 -1 c 2,129,-1
 105 -1 l 2,130,131
 106 -1 106 -1 106 0 c 2,132,-1
 106 336 l 1,133,-1
 189 336 l 2,134,135
 190 336 190 336 190 337 c 2,136,-1
 190 420 l 1,137,-1
 337 420 l 1,138,-1
 337 0 l 2,139,140
 337 -1 337 -1 338 -1 c 2,141,-1
 442 -1 l 2,106,107
EndSplineSet
EndChar

StartChar: o
Encoding: 111 111 57
Width: 542
GlyphClass: 1
Flags: W
LayerCount: 2
Fore
SplineSet
105 84 m 1,0,-1
 105 84 l 1,1,-1
 0 84 l 1,2,-1
 0 188 l 1,3,-1
 105 188 l 1,4,-1
 105 84 l 1,0,-1
105 168 m 1,5,-1
 105 273 l 1,6,-1
 0 273 l 1,7,-1
 0 168 l 1,8,-1
 105 168 l 1,9,-1
 105 168 l 1,5,-1
105 253 m 1,10,-1
 105 253 l 1,11,-1
 0 253 l 1,12,-1
 0 357 l 1,13,-1
 105 357 l 1,14,-1
 105 253 l 1,10,-1
105 337 m 1,15,-1
 105 441 l 1,16,-1
 0 441 l 1,17,-1
 0 337 l 1,18,-1
 105 337 l 1,19,-1
 105 337 l 1,15,-1
274 421 m 1,20,-1
 274 526 l 1,21,-1
 169 526 l 1,22,-1
 169 421 l 1,23,-1
 274 421 l 1,24,-1
 274 421 l 1,20,-1
189 421 m 1,25,-1
 189 421 l 1,26,-1
 85 421 l 1,27,-1
 85 526 l 1,28,-1
 189 526 l 1,29,-1
 189 421 l 1,25,-1
358 421 m 1,30,-1
 358 421 l 1,31,-1
 253 421 l 1,32,-1
 253 526 l 1,33,-1
 358 526 l 1,34,-1
 358 421 l 1,30,-1
442 84 m 1,35,-1
 442 188 l 1,36,-1
 338 188 l 1,37,-1
 338 84 l 1,38,-1
 442 84 l 1,39,-1
 442 84 l 1,35,-1
442 337 m 1,40,-1
 442 337 l 1,41,-1
 338 337 l 1,42,-1
 338 441 l 1,43,-1
 442 441 l 1,44,-1
 442 337 l 1,40,-1
442 253 m 1,45,-1
 442 357 l 1,46,-1
 338 357 l 1,47,-1
 338 253 l 1,48,-1
 442 253 l 1,49,-1
 442 253 l 1,45,-1
442 168 m 1,50,-1
 442 168 l 1,51,-1
 338 168 l 1,52,-1
 338 273 l 1,53,-1
 442 273 l 1,54,-1
 442 168 l 1,50,-1
274 0 m 1,55,-1
 274 104 l 1,56,-1
 169 104 l 1,57,-1
 169 0 l 1,58,-1
 274 0 l 1,59,-1
 274 0 l 1,55,-1
358 0 m 1,60,-1
 358 0 l 1,61,-1
 253 0 l 1,62,-1
 253 104 l 1,63,-1
 358 104 l 1,64,-1
 358 0 l 1,60,-1
189 0 m 1,65,-1
 189 0 l 1,66,-1
 85 0 l 1,67,-1
 85 104 l 1,68,-1
 189 104 l 1,69,-1
 189 0 l 1,65,-1
106 105 m 1,70,-1
 106 420 l 1,71,-1
 337 420 l 1,72,-1
 337 105 l 1,73,-1
 106 105 l 1,70,-1
358 -1 m 2,74,-1
 85 -1 l 2,75,76
 84 -1 84 -1 84 0 c 2,77,-1
 84 83 l 1,78,-1
 0 83 l 2,79,80
 -1 83 -1 83 -1 84 c 2,81,-1
 -1 441 l 2,82,83
 -1 442 -1 442 0 442 c 2,84,-1
 84 442 l 1,85,-1
 84 526 l 2,86,87
 84 527 84 527 85 527 c 2,88,-1
 358 527 l 2,89,90
 359 527 359 527 359 526 c 2,91,-1
 359 442 l 1,92,-1
 442 442 l 2,93,94
 443 442 443 442 443 441 c 2,95,-1
 443 84 l 2,96,97
 443 83 443 83 442 83 c 2,98,-1
 359 83 l 1,99,-1
 359 0 l 2,100,101
 359 -1 359 -1 358 -1 c 2,74,-1
106 105 m 1,102,-1
 337 105 l 1,103,-1
 337 420 l 1,104,-1
 106 420 l 1,105,-1
 106 105 l 1,102,-1
358 -1 m 2,106,107
 359 -1 359 -1 359 0 c 2,108,-1
 359 83 l 1,109,-1
 442 83 l 2,110,111
 443 83 443 83 443 84 c 2,112,-1
 443 441 l 2,113,114
 443 442 443 442 442 442 c 2,115,-1
 359 442 l 1,116,-1
 359 526 l 2,117,118
 359 527 359 527 358 527 c 2,119,-1
 85 527 l 2,120,121
 84 527 84 527 84 526 c 2,122,-1
 84 442 l 1,123,-1
 0 442 l 2,124,125
 -1 442 -1 442 -1 441 c 2,126,-1
 -1 84 l 2,127,128
 -1 83 -1 83 0 83 c 2,129,-1
 84 83 l 1,130,-1
 84 0 l 2,131,132
 84 -1 84 -1 85 -1 c 2,133,-1
 358 -1 l 2,106,107
EndSplineSet
EndChar

StartChar: p
Encoding: 112 112 58
Width: 542
GlyphClass: 1
Flags: W
LayerCount: 2
Fore
SplineSet
105 -85 m 1,0,-1
 105 20 l 1,1,-1
 0 20 l 1,2,-1
 0 -85 l 1,3,-1
 105 -85 l 1,4,-1
 105 -85 l 1,0,-1
105 -169 m 1,5,-1
 105 -169 l 1,6,-1
 0 -169 l 1,7,-1
 0 -65 l 1,8,-1
 105 -65 l 1,9,-1
 105 -169 l 1,5,-1
358 0 m 1,10,-1
 358 0 l 1,11,-1
 253 0 l 1,12,-1
 253 104 l 1,13,-1
 358 104 l 1,14,-1
 358 0 l 1,10,-1
274 0 m 1,15,-1
 274 104 l 1,16,-1
 169 104 l 1,17,-1
 169 0 l 1,18,-1
 274 0 l 1,19,-1
 274 0 l 1,15,-1
189 0 m 1,20,-1
 189 0 l 1,21,-1
 85 0 l 1,22,-1
 85 104 l 1,23,-1
 189 104 l 1,24,-1
 189 0 l 1,20,-1
105 0 m 1,25,-1
 105 0 l 1,26,-1
 0 0 l 1,27,-1
 0 104 l 1,28,-1
 105 104 l 1,29,-1
 105 0 l 1,25,-1
105 84 m 1,30,-1
 105 188 l 1,31,-1
 0 188 l 1,32,-1
 0 84 l 1,33,-1
 105 84 l 1,34,-1
 105 84 l 1,30,-1
105 168 m 1,35,-1
 105 168 l 1,36,-1
 0 168 l 1,37,-1
 0 273 l 1,38,-1
 105 273 l 1,39,-1
 105 168 l 1,35,-1
442 84 m 1,40,-1
 442 188 l 1,41,-1
 338 188 l 1,42,-1
 338 84 l 1,43,-1
 442 84 l 1,44,-1
 442 84 l 1,40,-1
442 168 m 1,45,-1
 442 168 l 1,46,-1
 338 168 l 1,47,-1
 338 273 l 1,48,-1
 442 273 l 1,49,-1
 442 168 l 1,45,-1
442 253 m 1,50,-1
 442 357 l 1,51,-1
 338 357 l 1,52,-1
 338 253 l 1,53,-1
 442 253 l 1,54,-1
 442 253 l 1,50,-1
442 337 m 1,55,-1
 442 337 l 1,56,-1
 338 337 l 1,57,-1
 338 441 l 1,58,-1
 442 441 l 1,59,-1
 442 337 l 1,55,-1
189 337 m 1,60,-1
 189 337 l 1,61,-1
 85 337 l 1,62,-1
 85 441 l 1,63,-1
 189 441 l 1,64,-1
 189 337 l 1,60,-1
274 421 m 1,65,-1
 274 526 l 1,66,-1
 169 526 l 1,67,-1
 169 421 l 1,68,-1
 274 421 l 1,69,-1
 274 421 l 1,65,-1
358 421 m 1,70,-1
 358 421 l 1,71,-1
 253 421 l 1,72,-1
 253 526 l 1,73,-1
 358 526 l 1,74,-1
 358 421 l 1,70,-1
105 253 m 1,75,-1
 105 357 l 1,76,-1
 0 357 l 1,77,-1
 0 253 l 1,78,-1
 105 253 l 1,79,-1
 105 253 l 1,75,-1
105 337 m 1,80,-1
 105 337 l 1,81,-1
 0 337 l 1,82,-1
 0 441 l 1,83,-1
 105 441 l 1,84,-1
 105 337 l 1,80,-1
105 421 m 1,85,-1
 105 526 l 1,86,-1
 0 526 l 1,87,-1
 0 421 l 1,88,-1
 105 421 l 1,89,-1
 105 421 l 1,85,-1
105 -170 m 2,90,-1
 0 -170 l 2,91,92
 -1 -170 -1 -170 -1 -169 c 2,93,-1
 -1 526 l 2,94,95
 -1 527 -1 527 0 527 c 2,96,-1
 105 527 l 2,97,98
 106 527 106 527 106 526 c 2,99,-1
 106 442 l 1,100,-1
 168 442 l 1,101,-1
 168 526 l 2,102,103
 168 527 168 527 169 527 c 2,104,-1
 358 527 l 2,105,106
 359 527 359 527 359 526 c 2,107,-1
 359 442 l 1,108,-1
 442 442 l 2,109,110
 443 442 443 442 443 441 c 2,111,-1
 443 84 l 2,112,113
 443 83 443 83 442 83 c 2,114,-1
 359 83 l 1,115,-1
 359 0 l 2,116,117
 359 -1 359 -1 358 -1 c 2,118,-1
 106 -1 l 1,119,-1
 106 -85 l 1,120,-1
 106 -169 l 2,121,122
 106 -170 106 -170 105 -170 c 2,90,-1
337 420 m 1,123,-1
 337 105 l 1,124,-1
 106 105 l 1,125,-1
 106 336 l 1,126,-1
 189 336 l 2,127,128
 190 336 190 336 190 337 c 2,129,-1
 190 420 l 1,130,-1
 337 420 l 1,123,-1
105 -170 m 2,131,132
 106 -170 106 -170 106 -169 c 2,133,-1
 106 -85 l 1,134,-1
 106 -1 l 1,135,-1
 358 -1 l 2,136,137
 359 -1 359 -1 359 0 c 2,138,-1
 359 83 l 1,139,-1
 442 83 l 2,140,141
 443 83 443 83 443 84 c 2,142,-1
 443 441 l 2,143,144
 443 442 443 442 442 442 c 2,145,-1
 359 442 l 1,146,-1
 359 526 l 2,147,148
 359 527 359 527 358 527 c 2,149,-1
 169 527 l 2,150,151
 168 527 168 527 168 526 c 2,152,-1
 168 442 l 1,153,-1
 106 442 l 1,154,-1
 106 526 l 2,155,156
 106 527 106 527 105 527 c 2,157,-1
 0 527 l 2,158,159
 -1 527 -1 527 -1 526 c 2,160,-1
 -1 -169 l 2,161,162
 -1 -170 -1 -170 0 -170 c 2,163,-1
 105 -170 l 2,131,132
337 420 m 1,164,-1
 190 420 l 1,165,-1
 190 337 l 2,166,167
 190 336 190 336 189 336 c 2,168,-1
 106 336 l 1,169,-1
 106 105 l 1,170,-1
 337 105 l 1,171,-1
 337 420 l 1,164,-1
EndSplineSet
EndChar

StartChar: r
Encoding: 114 114 59
Width: 542
GlyphClass: 1
Flags: W
LayerCount: 2
Fore
SplineSet
105 0 m 1,0,-1
 105 0 l 1,1,-1
 0 0 l 1,2,-1
 0 104 l 1,3,-1
 105 104 l 1,4,-1
 105 0 l 1,0,-1
105 84 m 1,5,-1
 105 188 l 1,6,-1
 0 188 l 1,7,-1
 0 84 l 1,8,-1
 105 84 l 1,9,-1
 105 84 l 1,5,-1
105 168 m 1,10,-1
 105 168 l 1,11,-1
 0 168 l 1,12,-1
 0 273 l 1,13,-1
 105 273 l 1,14,-1
 105 168 l 1,10,-1
105 253 m 1,15,-1
 105 357 l 1,16,-1
 0 357 l 1,17,-1
 0 253 l 1,18,-1
 105 253 l 1,19,-1
 105 253 l 1,15,-1
105 337 m 1,20,-1
 105 337 l 1,21,-1
 0 337 l 1,22,-1
 0 441 l 1,23,-1
 105 441 l 1,24,-1
 105 337 l 1,20,-1
105 421 m 1,25,-1
 105 526 l 1,26,-1
 0 526 l 1,27,-1
 0 421 l 1,28,-1
 105 421 l 1,29,-1
 105 421 l 1,25,-1
274 421 m 1,30,-1
 274 526 l 1,31,-1
 169 526 l 1,32,-1
 169 421 l 1,33,-1
 274 421 l 1,34,-1
 274 421 l 1,30,-1
358 421 m 1,35,-1
 358 421 l 1,36,-1
 253 421 l 1,37,-1
 253 526 l 1,38,-1
 358 526 l 1,39,-1
 358 421 l 1,35,-1
442 337 m 1,40,-1
 442 337 l 1,41,-1
 338 337 l 1,42,-1
 338 441 l 1,43,-1
 442 441 l 1,44,-1
 442 337 l 1,40,-1
189 337 m 1,45,-1
 189 337 l 1,46,-1
 85 337 l 1,47,-1
 85 441 l 1,48,-1
 189 441 l 1,49,-1
 189 337 l 1,45,-1
442 336 m 2,50,-1
 338 336 l 2,51,52
 337 336 337 336 337 337 c 2,53,-1
 337 420 l 1,54,-1
 190 420 l 1,55,-1
 190 337 l 2,56,57
 190 336 190 336 189 336 c 2,58,-1
 106 336 l 1,59,-1
 106 0 l 2,60,61
 106 -1 106 -1 105 -1 c 2,62,-1
 0 -1 l 2,63,64
 -1 -1 -1 -1 -1 0 c 2,65,-1
 -1 526 l 2,66,67
 -1 527 -1 527 0 527 c 2,68,-1
 105 527 l 2,69,70
 106 527 106 527 106 526 c 2,71,-1
 106 442 l 1,72,-1
 168 442 l 1,73,-1
 168 526 l 2,74,75
 168 527 168 527 169 527 c 2,76,-1
 358 527 l 2,77,78
 359 527 359 527 359 526 c 2,79,-1
 359 442 l 1,80,-1
 442 442 l 2,81,82
 443 442 443 442 443 441 c 2,83,-1
 443 337 l 2,84,85
 443 336 443 336 442 336 c 2,50,-1
442 336 m 2,86,87
 443 336 443 336 443 337 c 2,88,-1
 443 441 l 2,89,90
 443 442 443 442 442 442 c 2,91,-1
 359 442 l 1,92,-1
 359 526 l 2,93,94
 359 527 359 527 358 527 c 2,95,-1
 169 527 l 2,96,97
 168 527 168 527 168 526 c 2,98,-1
 168 442 l 1,99,-1
 106 442 l 1,100,-1
 106 526 l 2,101,102
 106 527 106 527 105 527 c 2,103,-1
 0 527 l 2,104,105
 -1 527 -1 527 -1 526 c 2,106,-1
 -1 0 l 2,107,108
 -1 -1 -1 -1 0 -1 c 2,109,-1
 105 -1 l 2,110,111
 106 -1 106 -1 106 0 c 2,112,-1
 106 336 l 1,113,-1
 189 336 l 2,114,115
 190 336 190 336 190 337 c 2,116,-1
 190 420 l 1,117,-1
 337 420 l 1,118,-1
 337 337 l 2,119,120
 337 336 337 336 338 336 c 2,121,-1
 442 336 l 2,86,87
EndSplineSet
EndChar

StartChar: s
Encoding: 115 115 60
Width: 542
GlyphClass: 1
Flags: W
LayerCount: 2
Fore
SplineSet
105 337 m 1,0,-1
 105 337 l 1,1,-1
 0 337 l 1,2,-1
 0 441 l 1,3,-1
 105 441 l 1,4,-1
 105 337 l 1,0,-1
274 421 m 1,5,-1
 274 421 l 1,6,-1
 169 421 l 1,7,-1
 169 526 l 1,8,-1
 274 526 l 1,9,-1
 274 421 l 1,5,-1
358 421 m 1,10,-1
 358 526 l 1,11,-1
 253 526 l 1,12,-1
 253 421 l 1,13,-1
 358 421 l 1,14,-1
 358 421 l 1,10,-1
189 421 m 1,15,-1
 189 526 l 1,16,-1
 85 526 l 1,17,-1
 85 421 l 1,18,-1
 189 421 l 1,19,-1
 189 421 l 1,15,-1
189 253 m 1,20,-1
 189 253 l 1,21,-1
 85 253 l 1,22,-1
 85 357 l 1,23,-1
 189 357 l 1,24,-1
 189 253 l 1,20,-1
274 253 m 1,25,-1
 274 357 l 1,26,-1
 169 357 l 1,27,-1
 169 253 l 1,28,-1
 274 253 l 1,29,-1
 274 253 l 1,25,-1
358 253 m 1,30,-1
 358 253 l 1,31,-1
 253 253 l 1,32,-1
 253 357 l 1,33,-1
 358 357 l 1,34,-1
 358 253 l 1,30,-1
442 168 m 1,35,-1
 442 168 l 1,36,-1
 338 168 l 1,37,-1
 338 273 l 1,38,-1
 442 273 l 1,39,-1
 442 168 l 1,35,-1
442 84 m 1,40,-1
 442 188 l 1,41,-1
 338 188 l 1,42,-1
 338 84 l 1,43,-1
 442 84 l 1,44,-1
 442 84 l 1,40,-1
358 0 m 1,45,-1
 358 0 l 1,46,-1
 253 0 l 1,47,-1
 253 104 l 1,48,-1
 358 104 l 1,49,-1
 358 0 l 1,45,-1
274 0 m 1,50,-1
 274 104 l 1,51,-1
 169 104 l 1,52,-1
 169 0 l 1,53,-1
 274 0 l 1,54,-1
 274 0 l 1,50,-1
189 0 m 1,55,-1
 189 0 l 1,56,-1
 85 0 l 1,57,-1
 85 104 l 1,58,-1
 189 104 l 1,59,-1
 189 0 l 1,55,-1
105 84 m 1,60,-1
 105 84 l 1,61,-1
 0 84 l 1,62,-1
 0 188 l 1,63,-1
 105 188 l 1,64,-1
 105 84 l 1,60,-1
106 105 m 1,65,-1
 337 105 l 1,66,-1
 337 252 l 1,67,-1
 85 252 l 2,68,69
 84 252 84 252 84 253 c 2,70,-1
 84 336 l 1,71,-1
 0 336 l 2,72,73
 -1 336 -1 336 -1 337 c 2,74,-1
 -1 441 l 2,75,76
 -1 442 -1 442 0 442 c 2,77,-1
 84 442 l 1,78,-1
 84 526 l 2,79,80
 84 527 84 527 85 527 c 2,81,-1
 358 527 l 2,82,83
 359 527 359 527 359 526 c 2,84,-1
 359 421 l 2,85,86
 359 420 359 420 358 420 c 2,87,-1
 106 420 l 1,88,-1
 106 358 l 1,89,-1
 358 358 l 2,90,91
 359 358 359 358 359 357 c 2,92,-1
 359 274 l 1,93,-1
 442 274 l 2,94,95
 443 274 443 274 443 273 c 2,96,-1
 443 84 l 2,97,98
 443 83 443 83 442 83 c 2,99,-1
 359 83 l 1,100,-1
 359 0 l 2,101,102
 359 -1 359 -1 358 -1 c 2,103,-1
 85 -1 l 2,104,105
 84 -1 84 -1 84 0 c 2,106,-1
 84 83 l 1,107,-1
 0 83 l 2,108,109
 -1 83 -1 83 -1 84 c 2,110,-1
 -1 188 l 2,111,112
 -1 189 -1 189 0 189 c 2,113,-1
 105 189 l 2,114,115
 106 189 106 189 106 188 c 2,116,-1
 106 105 l 1,65,-1
106 105 m 1,117,-1
 106 188 l 2,118,119
 106 189 106 189 105 189 c 2,120,-1
 0 189 l 2,121,122
 -1 189 -1 189 -1 188 c 2,123,-1
 -1 84 l 2,124,125
 -1 83 -1 83 0 83 c 2,126,-1
 84 83 l 1,127,-1
 84 0 l 2,128,129
 84 -1 84 -1 85 -1 c 2,130,-1
 358 -1 l 2,131,132
 359 -1 359 -1 359 0 c 2,133,-1
 359 83 l 1,134,-1
 442 83 l 2,135,136
 443 83 443 83 443 84 c 2,137,-1
 443 273 l 2,138,139
 443 274 443 274 442 274 c 2,140,-1
 359 274 l 1,141,-1
 359 357 l 2,142,143
 359 358 359 358 358 358 c 2,144,-1
 106 358 l 1,145,-1
 106 420 l 1,146,-1
 358 420 l 2,147,148
 359 420 359 420 359 421 c 2,149,-1
 359 526 l 2,150,151
 359 527 359 527 358 527 c 2,152,-1
 85 527 l 2,153,154
 84 527 84 527 84 526 c 2,155,-1
 84 442 l 1,156,-1
 0 442 l 2,157,158
 -1 442 -1 442 -1 441 c 2,159,-1
 -1 337 l 2,160,161
 -1 336 -1 336 0 336 c 2,162,-1
 84 336 l 1,163,-1
 84 253 l 2,164,165
 84 252 84 252 85 252 c 2,166,-1
 337 252 l 1,167,-1
 337 105 l 1,168,-1
 106 105 l 1,117,-1
EndSplineSet
EndChar

StartChar: t
Encoding: 116 116 61
Width: 542
GlyphClass: 1
Flags: W
LayerCount: 2
Fore
SplineSet
105 507 m 1,0,-1
 168 507 l 1,1,-1
 168 442 l 1,2,-1
 105 442 l 1,3,-1
 105 507 l 1,0,-1
85 421 m 1,4,-1
 0 421 l 1,5,-1
 0 526 l 1,6,-1
 85 526 l 1,7,-1
 85 421 l 1,4,-1
189 84 m 1,8,-1
 85 84 l 1,9,-1
 85 188 l 1,10,-1
 189 188 l 1,11,-1
 189 84 l 1,8,-1
189 168 m 1,12,-1
 189 273 l 1,13,-1
 85 273 l 1,14,-1
 85 168 l 1,15,-1
 189 168 l 1,12,-1
189 253 m 1,16,-1
 85 253 l 1,17,-1
 85 357 l 1,18,-1
 189 357 l 1,19,-1
 189 253 l 1,16,-1
189 337 m 1,20,-1
 189 421 l 1,21,-1
 85 421 l 1,22,-1
 85 337 l 1,23,-1
 189 337 l 1,20,-1
189 526 m 1,24,-1
 189 610 l 1,25,-1
 85 610 l 1,26,-1
 85 526 l 1,27,-1
 189 526 l 1,24,-1
189 590 m 1,28,-1
 85 590 l 1,29,-1
 85 694 l 1,30,-1
 189 694 l 1,31,-1
 189 590 l 1,28,-1
274 421 m 1,32,-1
 189 421 l 1,33,-1
 189 526 l 1,34,-1
 274 526 l 1,35,-1
 274 421 l 1,32,-1
358 421 m 1,36,-1
 358 526 l 1,37,-1
 253 526 l 1,38,-1
 253 421 l 1,39,-1
 358 421 l 1,36,-1
442 84 m 1,40,-1
 338 84 l 1,41,-1
 338 188 l 1,42,-1
 442 188 l 1,43,-1
 442 84 l 1,40,-1
274 0 m 1,44,-1
 169 0 l 1,45,-1
 169 104 l 1,46,-1
 274 104 l 1,47,-1
 274 0 l 1,44,-1
358 0 m 1,48,-1
 358 104 l 1,49,-1
 253 104 l 1,50,-1
 253 0 l 1,51,-1
 358 0 l 1,48,-1
190 105 m 1,52,-1
 337 105 l 1,53,-1
 337 188 l 2,54,55
 337 189 337 189 338 189 c 2,56,-1
 442 189 l 2,57,58
 443 189 443 189 443 188 c 2,59,-1
 443 84 l 2,60,61
 443 83 443 83 442 83 c 2,62,-1
 359 83 l 1,63,-1
 359 0 l 2,64,65
 359 -1 359 -1 358 -1 c 2,66,-1
 169 -1 l 2,67,68
 168 -1 168 -1 168 0 c 2,69,-1
 168 83 l 1,70,-1
 85 83 l 2,71,72
 84 83 84 83 84 84 c 2,73,-1
 84 420 l 1,74,-1
 0 420 l 2,75,76
 -1 420 -1 420 -1 421 c 2,77,-1
 -1 526 l 2,78,79
 -1 527 -1 527 0 527 c 2,80,-1
 85 526 l 1,81,-1
 84 694 l 2,82,83
 83.994047619 695 83.994047619 695 85 695 c 2,84,-1
 189 695 l 2,85,86
 190 695 190 695 190 694 c 2,87,-1
 190 527 l 1,88,-1
 274 527 l 1,89,-1
 358 527 l 2,90,91
 359 527 359 527 359 526 c 2,92,-1
 359 421 l 2,93,94
 359 420 359 420 358 420 c 2,95,-1
 190 420 l 1,96,-1
 190 105 l 1,52,-1
190 105 m 1,97,-1
 190 420 l 1,98,-1
 358 420 l 2,99,100
 359 420 359 420 359 421 c 2,101,-1
 359 526 l 2,102,103
 359 527 359 527 358 527 c 2,104,-1
 274 527 l 1,105,-1
 190 527 l 1,106,-1
 190 694 l 2,107,108
 190 695 190 695 189 695 c 2,109,-1
 85 695 l 2,110,111
 84 695 84 695 84 694 c 2,112,-1
 85 526 l 1,113,-1
 0 527 l 2,114,115
 -1 527.011764706 -1 527.011764706 -1 526 c 2,116,-1
 -1 421 l 2,117,118
 -1 420 -1 420 0 420 c 2,119,-1
 84 420 l 1,120,-1
 84 84 l 2,121,122
 84 83 84 83 85 83 c 2,123,-1
 168 83 l 1,124,-1
 168 0 l 2,125,126
 168 -1 168 -1 169 -1 c 2,127,-1
 358 -1 l 2,128,129
 359 -1 359 -1 359 0 c 2,130,-1
 359 83 l 1,131,-1
 442 83 l 2,132,133
 443 83 443 83 443 84 c 2,134,-1
 443 188 l 2,135,136
 443 189 443 189 442 189 c 2,137,-1
 338 189 l 2,138,139
 337 189 337 189 337 188 c 2,140,-1
 337 105 l 1,141,-1
 190 105 l 1,97,-1
EndSplineSet
EndChar

StartChar: u
Encoding: 117 117 62
Width: 542
GlyphClass: 1
Flags: W
LayerCount: 2
Fore
SplineSet
105 84 m 1,0,-1
 105 84 l 1,1,-1
 0 84 l 1,2,-1
 0 188 l 1,3,-1
 105 188 l 1,4,-1
 105 84 l 1,0,-1
105 168 m 1,5,-1
 105 273 l 1,6,-1
 0 273 l 1,7,-1
 0 168 l 1,8,-1
 105 168 l 1,9,-1
 105 168 l 1,5,-1
105 253 m 1,10,-1
 105 253 l 1,11,-1
 0 253 l 1,12,-1
 0 357 l 1,13,-1
 105 357 l 1,14,-1
 105 253 l 1,10,-1
105 337 m 1,15,-1
 105 441 l 1,16,-1
 0 441 l 1,17,-1
 0 337 l 1,18,-1
 105 337 l 1,19,-1
 105 337 l 1,15,-1
105 421 m 1,20,-1
 105 421 l 1,21,-1
 0 421 l 1,22,-1
 0 526 l 1,23,-1
 105 526 l 1,24,-1
 105 421 l 1,20,-1
189 0 m 1,25,-1
 189 0 l 1,26,-1
 85 0 l 1,27,-1
 85 104 l 1,28,-1
 189 104 l 1,29,-1
 189 0 l 1,25,-1
274 0 m 1,30,-1
 274 104 l 1,31,-1
 169 104 l 1,32,-1
 169 0 l 1,33,-1
 274 0 l 1,34,-1
 274 0 l 1,30,-1
442 0 m 1,35,-1
 442 0 l 1,36,-1
 338 0 l 1,37,-1
 338 104 l 1,38,-1
 442 104 l 1,39,-1
 442 0 l 1,35,-1
358 84 m 1,40,-1
 358 84 l 1,41,-1
 253 84 l 1,42,-1
 253 188 l 1,43,-1
 358 188 l 1,44,-1
 358 84 l 1,40,-1
442 84 m 1,45,-1
 442 188 l 1,46,-1
 338 188 l 1,47,-1
 338 84 l 1,48,-1
 442 84 l 1,49,-1
 442 84 l 1,45,-1
442 168 m 1,50,-1
 442 168 l 1,51,-1
 338 168 l 1,52,-1
 338 273 l 1,53,-1
 442 273 l 1,54,-1
 442 168 l 1,50,-1
442 253 m 1,55,-1
 442 357 l 1,56,-1
 338 357 l 1,57,-1
 338 253 l 1,58,-1
 442 253 l 1,59,-1
 442 253 l 1,55,-1
442 337 m 1,60,-1
 442 337 l 1,61,-1
 338 337 l 1,62,-1
 338 441 l 1,63,-1
 442 441 l 1,64,-1
 442 337 l 1,60,-1
442 421 m 1,65,-1
 442 526 l 1,66,-1
 338 526 l 1,67,-1
 338 421 l 1,68,-1
 442 421 l 1,69,-1
 442 421 l 1,65,-1
442 -1 m 2,70,-1
 338 -1 l 2,71,72
 337 -1 337 -1 337 0 c 2,73,-1
 337 83 l 1,74,-1
 275 83 l 1,75,-1
 275 0 l 2,76,77
 275 -1 275 -1 274 -1 c 2,78,-1
 85 -1 l 2,79,80
 84 -1 84 -1 84 0 c 2,81,-1
 84 83 l 1,82,-1
 0 83 l 2,83,84
 -1 83 -1 83 -1 84 c 2,85,-1
 -1 526 l 2,86,87
 -1 527 -1 527 0 527 c 2,88,-1
 105 527 l 2,89,90
 106 527 106 527 106 526 c 2,91,-1
 106 105 l 1,92,-1
 252 105 l 1,93,-1
 252 188 l 2,94,95
 252 189 252 189 253 189 c 2,96,-1
 337 189 l 1,97,-1
 337 526 l 2,98,99
 337 527 337 527 338 527 c 2,100,-1
 442 527 l 2,101,102
 443 527 443 527 443 526 c 2,103,-1
 443 0 l 2,104,105
 443 -1 443 -1 442 -1 c 2,70,-1
442 -1 m 2,106,107
 443 -1 443 -1 443 0 c 2,108,-1
 443 526 l 2,109,110
 443 527 443 527 442 527 c 2,111,-1
 338 527 l 2,112,113
 337 527 337 527 337 526 c 2,114,-1
 337 189 l 1,115,-1
 253 189 l 2,116,117
 252 189 252 189 252 188 c 2,118,-1
 252 105 l 1,119,-1
 106 105 l 1,120,-1
 106 526 l 2,121,122
 106 527 106 527 105 527 c 2,123,-1
 0 527 l 2,124,125
 -1 527 -1 527 -1 526 c 2,126,-1
 -1 84 l 2,127,128
 -1 83 -1 83 0 83 c 2,129,-1
 84 83 l 1,130,-1
 84 0 l 2,131,132
 84 -1 84 -1 85 -1 c 2,133,-1
 274 -1 l 2,134,135
 275 -1 275 -1 275 0 c 2,136,-1
 275 83 l 1,137,-1
 337 83 l 1,138,-1
 337 0 l 2,139,140
 337 -1 337 -1 338 -1 c 2,141,-1
 442 -1 l 2,106,107
EndSplineSet
EndChar

StartChar: v
Encoding: 118 118 63
Width: 542
GlyphClass: 1
Flags: W
LayerCount: 2
Fore
SplineSet
274 0 m 1,0,-1
 274 0 l 1,1,-1
 169 0 l 1,2,-1
 169 104 l 1,3,-1
 274 104 l 1,4,-1
 274 0 l 1,0,-1
189 84 m 1,5,-1
 189 84 l 1,6,-1
 85 84 l 1,7,-1
 85 188 l 1,8,-1
 189 188 l 1,9,-1
 189 84 l 1,5,-1
358 84 m 1,10,-1
 358 188 l 1,11,-1
 253 188 l 1,12,-1
 253 84 l 1,13,-1
 358 84 l 1,14,-1
 358 84 l 1,10,-1
442 168 m 1,15,-1
 442 168 l 1,16,-1
 338 168 l 1,17,-1
 338 273 l 1,18,-1
 442 273 l 1,19,-1
 442 168 l 1,15,-1
442 253 m 1,20,-1
 442 357 l 1,21,-1
 338 357 l 1,22,-1
 338 253 l 1,23,-1
 442 253 l 1,24,-1
 442 253 l 1,20,-1
442 337 m 1,25,-1
 442 337 l 1,26,-1
 338 337 l 1,27,-1
 338 441 l 1,28,-1
 442 441 l 1,29,-1
 442 337 l 1,25,-1
442 421 m 1,30,-1
 442 526 l 1,31,-1
 338 526 l 1,32,-1
 338 421 l 1,33,-1
 442 421 l 1,34,-1
 442 421 l 1,30,-1
105 168 m 1,35,-1
 105 168 l 1,36,-1
 0 168 l 1,37,-1
 0 273 l 1,38,-1
 105 273 l 1,39,-1
 105 168 l 1,35,-1
105 253 m 1,40,-1
 105 357 l 1,41,-1
 0 357 l 1,42,-1
 0 253 l 1,43,-1
 105 253 l 1,44,-1
 105 253 l 1,40,-1
105 337 m 1,45,-1
 105 337 l 1,46,-1
 0 337 l 1,47,-1
 0 441 l 1,48,-1
 105 441 l 1,49,-1
 105 337 l 1,45,-1
105 421 m 1,50,-1
 105 526 l 1,51,-1
 0 526 l 1,52,-1
 0 421 l 1,53,-1
 105 421 l 1,54,-1
 105 421 l 1,50,-1
274 -1 m 2,55,-1
 169 -1 l 2,56,57
 168 -1 168 -1 168 0 c 2,58,-1
 168 83 l 1,59,-1
 85 83 l 2,60,61
 84 83 84 83 84 84 c 2,62,-1
 84 167 l 1,63,-1
 0 167 l 2,64,65
 -1 167 -1 167 -1 168 c 2,66,-1
 -1 526 l 2,67,68
 -1 527 -1 527 0 527 c 2,69,-1
 105 527 l 2,70,71
 106 527 106 527 106 526 c 2,72,-1
 106 189 l 1,73,-1
 189 189 l 2,74,75
 190 189 190 189 190 188 c 2,76,-1
 190 105 l 1,77,-1
 252 105 l 1,78,-1
 252 188 l 2,79,80
 252 189 252 189 253 189 c 2,81,-1
 337 189 l 1,82,-1
 337 526 l 2,83,84
 337 527 337 527 338 527 c 2,85,-1
 442 527 l 2,86,87
 443 527 443 527 443 526 c 2,88,-1
 443 168 l 2,89,90
 443 167 443 167 442 167 c 2,91,-1
 359 167 l 1,92,-1
 359 84 l 2,93,94
 359 83 359 83 358 83 c 2,95,-1
 275 83 l 1,96,-1
 275 0 l 2,97,98
 275 -1 275 -1 274 -1 c 2,55,-1
274 -1 m 2,99,100
 275 -1 275 -1 275 0 c 2,101,-1
 275 83 l 1,102,-1
 358 83 l 2,103,104
 359 83 359 83 359 84 c 2,105,-1
 359 167 l 1,106,-1
 442 167 l 2,107,108
 443 167 443 167 443 168 c 2,109,-1
 443 526 l 2,110,111
 443 527 443 527 442 527 c 2,112,-1
 338 527 l 2,113,114
 337 527 337 527 337 526 c 2,115,-1
 337 189 l 1,116,-1
 253 189 l 2,117,118
 252 189 252 189 252 188 c 2,119,-1
 252 105 l 1,120,-1
 190 105 l 1,121,-1
 190 188 l 2,122,123
 190 189 190 189 189 189 c 2,124,-1
 106 189 l 1,125,-1
 106 526 l 2,126,127
 106 527 106 527 105 527 c 2,128,-1
 0 527 l 2,129,130
 -1 527 -1 527 -1 526 c 2,131,-1
 -1 168 l 2,132,133
 -1 167 -1 167 0 167 c 2,134,-1
 84 167 l 1,135,-1
 84 84 l 2,136,137
 84 83 84 83 85 83 c 2,138,-1
 168 83 l 1,139,-1
 168 0 l 2,140,141
 168 -1 168 -1 169 -1 c 2,142,-1
 274 -1 l 2,99,100
EndSplineSet
EndChar

StartChar: w
Encoding: 119 119 64
Width: 542
GlyphClass: 1
Flags: W
LayerCount: 2
Fore
SplineSet
105 84 m 1,0,-1
 105 84 l 1,1,-1
 0 84 l 1,2,-1
 0 188 l 1,3,-1
 105 188 l 1,4,-1
 105 84 l 1,0,-1
105 168 m 1,5,-1
 105 273 l 1,6,-1
 0 273 l 1,7,-1
 0 168 l 1,8,-1
 105 168 l 1,9,-1
 105 168 l 1,5,-1
105 253 m 1,10,-1
 105 253 l 1,11,-1
 0 253 l 1,12,-1
 0 357 l 1,13,-1
 105 357 l 1,14,-1
 105 253 l 1,10,-1
105 337 m 1,15,-1
 105 441 l 1,16,-1
 0 441 l 1,17,-1
 0 337 l 1,18,-1
 105 337 l 1,19,-1
 105 337 l 1,15,-1
105 421 m 1,20,-1
 105 421 l 1,21,-1
 0 421 l 1,22,-1
 0 526 l 1,23,-1
 105 526 l 1,24,-1
 105 421 l 1,20,-1
274 84 m 1,25,-1
 274 188 l 1,26,-1
 169 188 l 1,27,-1
 169 84 l 1,28,-1
 274 84 l 1,29,-1
 274 84 l 1,25,-1
274 168 m 1,30,-1
 274 168 l 1,31,-1
 169 168 l 1,32,-1
 169 273 l 1,33,-1
 274 273 l 1,34,-1
 274 168 l 1,30,-1
274 253 m 1,35,-1
 274 357 l 1,36,-1
 169 357 l 1,37,-1
 169 253 l 1,38,-1
 274 253 l 1,39,-1
 274 253 l 1,35,-1
189 0 m 1,40,-1
 189 0 l 1,41,-1
 85 0 l 1,42,-1
 85 104 l 1,43,-1
 189 104 l 1,44,-1
 189 0 l 1,40,-1
358 0 m 1,45,-1
 358 0 l 1,46,-1
 253 0 l 1,47,-1
 253 104 l 1,48,-1
 358 104 l 1,49,-1
 358 0 l 1,45,-1
442 84 m 1,50,-1
 442 188 l 1,51,-1
 338 188 l 1,52,-1
 338 84 l 1,53,-1
 442 84 l 1,54,-1
 442 84 l 1,50,-1
442 168 m 1,55,-1
 442 168 l 1,56,-1
 338 168 l 1,57,-1
 338 273 l 1,58,-1
 442 273 l 1,59,-1
 442 168 l 1,55,-1
442 253 m 1,60,-1
 442 357 l 1,61,-1
 338 357 l 1,62,-1
 338 253 l 1,63,-1
 442 253 l 1,64,-1
 442 253 l 1,60,-1
442 337 m 1,65,-1
 442 337 l 1,66,-1
 338 337 l 1,67,-1
 338 441 l 1,68,-1
 442 441 l 1,69,-1
 442 337 l 1,65,-1
442 421 m 1,70,-1
 442 526 l 1,71,-1
 338 526 l 1,72,-1
 338 421 l 1,73,-1
 442 421 l 1,74,-1
 442 421 l 1,70,-1
358 -1 m 2,75,-1
 253 -1 l 2,76,77
 252 -1 252 -1 252 0 c 2,78,-1
 252 83 l 1,79,-1
 190 83 l 1,80,-1
 190 0 l 2,81,82
 190 -1 190 -1 189 -1 c 2,83,-1
 85 -1 l 2,84,85
 84 -1 84 -1 84 0 c 2,86,-1
 84 83 l 1,87,-1
 0 83 l 2,88,89
 -1 83 -1 83 -1 84 c 2,90,-1
 -1 526 l 2,91,92
 -1 527 -1 527 0 527 c 2,93,-1
 105 527 l 2,94,95
 106 527 106 527 106 526 c 2,96,-1
 106 105 l 1,97,-1
 168 105 l 1,98,-1
 168 357 l 2,99,100
 168 358 168 358 169 358 c 2,101,-1
 274 358 l 2,102,103
 275 358 275 358 275 357 c 2,104,-1
 275 105 l 1,105,-1
 337 105 l 1,106,-1
 337 526 l 2,107,108
 337 527 337 527 338 527 c 2,109,-1
 442 527 l 2,110,111
 443 527 443 527 443 526 c 2,112,-1
 443 84 l 2,113,114
 443 83 443 83 442 83 c 2,115,-1
 359 83 l 1,116,-1
 359 0 l 2,117,118
 359 -1 359 -1 358 -1 c 2,75,-1
358 -1 m 2,119,120
 359 -1 359 -1 359 0 c 2,121,-1
 359 83 l 1,122,-1
 442 83 l 2,123,124
 443 83 443 83 443 84 c 2,125,-1
 443 526 l 2,126,127
 443 527 443 527 442 527 c 2,128,-1
 338 527 l 2,129,130
 337 527 337 527 337 526 c 2,131,-1
 337 105 l 1,132,-1
 275 105 l 1,133,-1
 275 357 l 2,134,135
 275 358 275 358 274 358 c 2,136,-1
 169 358 l 2,137,138
 168 358 168 358 168 357 c 2,139,-1
 168 105 l 1,140,-1
 106 105 l 1,141,-1
 106 526 l 2,142,143
 106 527 106 527 105 527 c 2,144,-1
 0 527 l 2,145,146
 -1 527 -1 527 -1 526 c 2,147,-1
 -1 84 l 2,148,149
 -1 83 -1 83 0 83 c 2,150,-1
 84 83 l 1,151,-1
 84 0 l 2,152,153
 84 -1 84 -1 85 -1 c 2,154,-1
 189 -1 l 2,155,156
 190 -1 190 -1 190 0 c 2,157,-1
 190 83 l 1,158,-1
 252 83 l 1,159,-1
 252 0 l 2,160,161
 252 -1 252 -1 253 -1 c 2,162,-1
 358 -1 l 2,119,120
EndSplineSet
EndChar

StartChar: x
Encoding: 120 120 65
Width: 542
GlyphClass: 1
Flags: W
LayerCount: 2
Fore
SplineSet
105 0 m 1,0,-1
 105 0 l 1,1,-1
 0 0 l 1,2,-1
 0 104 l 1,3,-1
 105 104 l 1,4,-1
 105 0 l 1,0,-1
105 421 m 1,5,-1
 105 421 l 1,6,-1
 0 421 l 1,7,-1
 0 526 l 1,8,-1
 105 526 l 1,9,-1
 105 421 l 1,5,-1
189 337 m 1,10,-1
 189 337 l 1,11,-1
 85 337 l 1,12,-1
 85 441 l 1,13,-1
 189 441 l 1,14,-1
 189 337 l 1,10,-1
189 84 m 1,15,-1
 189 188 l 1,16,-1
 85 188 l 1,17,-1
 85 84 l 1,18,-1
 189 84 l 1,19,-1
 189 84 l 1,15,-1
442 0 m 1,20,-1
 442 0 l 1,21,-1
 338 0 l 1,22,-1
 338 104 l 1,23,-1
 442 104 l 1,24,-1
 442 0 l 1,20,-1
358 84 m 1,25,-1
 358 84 l 1,26,-1
 253 84 l 1,27,-1
 253 188 l 1,28,-1
 358 188 l 1,29,-1
 358 84 l 1,25,-1
274 168 m 1,30,-1
 274 168 l 1,31,-1
 169 168 l 1,32,-1
 169 273 l 1,33,-1
 274 273 l 1,34,-1
 274 168 l 1,30,-1
274 253 m 1,35,-1
 274 357 l 1,36,-1
 169 357 l 1,37,-1
 169 253 l 1,38,-1
 274 253 l 1,39,-1
 274 253 l 1,35,-1
358 337 m 1,40,-1
 358 337 l 1,41,-1
 253 337 l 1,42,-1
 253 441 l 1,43,-1
 358 441 l 1,44,-1
 358 337 l 1,40,-1
442 421 m 1,45,-1
 442 526 l 1,46,-1
 338 526 l 1,47,-1
 338 421 l 1,48,-1
 442 421 l 1,49,-1
 442 421 l 1,45,-1
442 -1 m 2,50,-1
 338 -1 l 2,51,52
 337 -1 337 -1 337 0 c 2,53,-1
 337 83 l 1,54,-1
 253 83 l 2,55,56
 252 83 252 83 252 84 c 2,57,-1
 252 167 l 1,58,-1
 190 167 l 1,59,-1
 190 84 l 2,60,61
 190 83 190 83 189 83 c 2,62,-1
 106 83 l 1,63,-1
 106 0 l 2,64,65
 106 -1 106 -1 105 -1 c 2,66,-1
 0 -1 l 2,67,68
 -1 -1 -1 -1 -1 0 c 2,69,-1
 -1 104 l 2,70,71
 -1 105 -1 105 0 105 c 2,72,-1
 84 105 l 1,73,-1
 84 188 l 2,74,75
 84 189 84 189 85 189 c 2,76,-1
 168 189 l 1,77,-1
 168 336 l 1,78,-1
 85 336 l 2,79,80
 84 336 84 336 84 337 c 2,81,-1
 84 420 l 1,82,-1
 0 420 l 2,83,84
 -1 420 -1 420 -1 421 c 2,85,-1
 -1 526 l 2,86,87
 -1 527 -1 527 0 527 c 2,88,-1
 105 527 l 2,89,90
 106 527 106 527 106 526 c 2,91,-1
 106 442 l 1,92,-1
 189 442 l 2,93,94
 190 442 190 442 190 441 c 2,95,-1
 190 358 l 1,96,-1
 252 358 l 1,97,-1
 252 441 l 2,98,99
 252 442 252 442 253 442 c 2,100,-1
 337 442 l 1,101,-1
 337 526 l 2,102,103
 337 527 337 527 338 527 c 2,104,-1
 442 527 l 2,105,106
 443 527 443 527 443 526 c 2,107,-1
 443 421 l 2,108,109
 443 420 443 420 442 420 c 2,110,-1
 359 420 l 1,111,-1
 359 337 l 2,112,113
 359 336 359 336 358 336 c 2,114,-1
 275 336 l 1,115,-1
 275 189 l 1,116,-1
 358 189 l 2,117,118
 359 189 359 189 359 188 c 2,119,-1
 359 105 l 1,120,-1
 442 105 l 2,121,122
 443 105 443 105 443 104 c 2,123,-1
 443 0 l 2,124,125
 443 -1 443 -1 442 -1 c 2,50,-1
442 -1 m 2,126,127
 443 -1 443 -1 443 0 c 2,128,-1
 443 104 l 2,129,130
 443 105 443 105 442 105 c 2,131,-1
 359 105 l 1,132,-1
 359 188 l 2,133,134
 359 189 359 189 358 189 c 2,135,-1
 275 189 l 1,136,-1
 275 336 l 1,137,-1
 358 336 l 2,138,139
 359 336 359 336 359 337 c 2,140,-1
 359 420 l 1,141,-1
 442 420 l 2,142,143
 443 420 443 420 443 421 c 2,144,-1
 443 526 l 2,145,146
 443 527 443 527 442 527 c 2,147,-1
 338 527 l 2,148,149
 337 527 337 527 337 526 c 2,150,-1
 337 442 l 1,151,-1
 253 442 l 2,152,153
 252 442 252 442 252 441 c 2,154,-1
 252 358 l 1,155,-1
 190 358 l 1,156,-1
 190 441 l 2,157,158
 190 442 190 442 189 442 c 2,159,-1
 106 442 l 1,160,-1
 106 526 l 2,161,162
 106 527 106 527 105 527 c 2,163,-1
 0 527 l 2,164,165
 -1 527 -1 527 -1 526 c 2,166,-1
 -1 421 l 2,167,168
 -1 420 -1 420 0 420 c 2,169,-1
 84 420 l 1,170,-1
 84 337 l 2,171,172
 84 336 84 336 85 336 c 2,173,-1
 168 336 l 1,174,-1
 168 189 l 1,175,-1
 85 189 l 2,176,177
 84 189 84 189 84 188 c 2,178,-1
 84 105 l 1,179,-1
 0 105 l 2,180,181
 -1 105 -1 105 -1 104 c 2,182,-1
 -1 0 l 2,183,184
 -1 -1 -1 -1 0 -1 c 2,185,-1
 105 -1 l 2,186,187
 106 -1 106 -1 106 0 c 2,188,-1
 106 83 l 1,189,-1
 189 83 l 2,190,191
 190 83 190 83 190 84 c 2,192,-1
 190 167 l 1,193,-1
 252 167 l 1,194,-1
 252 84 l 2,195,196
 252 83 252 83 253 83 c 2,197,-1
 337 83 l 1,198,-1
 337 0 l 2,199,200
 337 -1 337 -1 338 -1 c 2,201,-1
 442 -1 l 2,126,127
EndSplineSet
EndChar

